<?xml version="1.0" encoding="utf-8" ?>
<svg baseProfile="full" height="200mm" version="1.1" viewBox="0,0,200,200" width="200mm" xmlns="http://www.w3.org/2000/svg" xmlns:ev="http://www.w3.org/2001/xml-events" xmlns:xlink="http://www.w3.org/1999/xlink"><defs /><rect fill="#1a1a1a" height="200" width="200" x="0" y="0" /><text alignment-baseline="middle" fill="#e1ed5e" style="dominant-baseline: central; font-size:9.0px; font-family:Arial;" text-anchor="middle" x="100.0" y="100.0">2025</text><line stroke="#e1ed5e" stroke-width="0.3" x1="100.0" x2="100.0" y1="15.0" y2="10.0" /><path d="M 100.0 14.0 a86.0,86.0 0 0,1 42.46469731375804,11.215312516191453" fill="none" id="id73" stroke="none" /><text fill="#e1ed5e" style="font-size:6.75px; font-family:Arial;" text-anchor="middle"><textPath startOffset="22.20632615414155" xlink:href="#id73">January</textPath></text><path d="M 100.0 79.0 l 0.0 -21.857370733955207 a42.85737073395521,42.85737073395521 0 0,0 0.7377191863462171,0.006349781943141127 l -0.3762387070736887 21.854132328620626" fill="red" stroke="none" /><path d="M 101.08401301168833 79.027996857942 l 1.694841979265187 -32.789487700965736 a53.83326046901926,53.83326046901926 0 0,0 0.925003971996401,0.055798765667098446 l -2.2590080001012 32.75545566591833" fill="red" stroke="none" /><path d="M 101.44485096284872 79.0497635885617 l 1.4461019263693626 -20.968375293699165 a42.01818196797389,42.01818196797389 0 0,0 0.7211316669721981,0.0559736963748313 l -1.806823782703902 20.94037633513587" fill="red" stroke="none" /><path d="M 103.95276090670814 79.375362276772 l 4.914460196890659 -25.64257326925086 a47.10926048159391,47.10926048159391 0 0,0 0.7951002066590376,0.15948962154141116 l -5.355126813016822 25.55417969163224" fill="red" stroke="none" /><path d="M 106.74666289553966 80.11325718540242 l 11.302103619900159 -33.31454845646449 a56.17949239390871,56.17949239390871 0 0,0 0.9130986550776896,0.318562191594529 l -11.873884279041121 33.115065411697756" fill="red" stroke="none" /><path d="M 107.4271985657038 80.35727306442388 l 12.464406527150258 -32.96464092900208 a56.242431551357306,56.242431551357306 0 0,0 0.9026022035314908,0.3501956322036419 l -13.029991895681416 32.74520259290789" fill="red" stroke="none" /><path d="M 108.09893153111575 80.62456947434976 l 7.741843703100828 -18.52115359088706 a41.0740946062449,41.0740946062449 0 0,0 0.6499804177005898,0.27828769376559576 l -8.059507878591733 18.385146369158672" fill="red" stroke="none" /><path d="M 108.43124777332544 80.76684994638697 l 1.9050256386080793 -4.345696502865062 a25.74491314765273,25.74491314765273 0 0,0 0.4043396530769315,0.18141541611763143 l -1.979547410151791 4.312260756230899" fill="red" stroke="none" /><path d="M 109.08828744355905 81.06846463323043 l 10.931730505322891 -22.77155558368528 a46.259581856037826,46.259581856037826 0 0,0 0.714883975636532,0.3507904621378274 l -11.322085747969854 22.58000996141262" fill="red" stroke="none" /><path d="M 109.41281617654863 81.2277094730956 l 8.754868630697619 -17.46012398178999 a40.53211852821529,40.53211852821529 0 0,0 0.6209897167744168,0.3180950523033128 l -9.054118835060791 17.306836404174177" fill="red" stroke="none" /><path d="M 109.73455568895987 81.39251694778311 l 11.602109312811518 -22.177288754221042 a46.028804945392956,46.028804945392956 0 0,0 0.6988815456771768,0.3733183179000803 l -11.982135905017005 21.97429170981921" fill="red" stroke="none" /><line stroke="#e1ed5e" stroke-width="0.3" x1="143.23703022742887" x2="145.7803849466894" y1="26.81831364943548" y2="22.513508569990506" /><path d="M 143.74570117128098 25.957352633546492 a86.0,86.0 0 0,1 28.547481713284135,27.462654790039103" fill="none" id="id74" stroke="none" /><text fill="#e1ed5e" style="font-size:6.75px; font-family:Arial;" text-anchor="middle"><textPath startOffset="19.985693538727396" xlink:href="#id74">February</textPath></text><path d="M 110.99172775467656 82.1063720568725 l 20.22720911634322 -32.92823133303057 a59.644642673439925,59.644642673439925 0 0,0 0.8701893418448573,0.544912486031926 l -20.791017610560342 32.5751745056757" fill="red" stroke="none" /><path d="M 111.2981086023043 82.29822771554956 l 28.349677469339877 -44.41801301126789 a73.69406126391057,73.69406126391057 0 0,0 1.0634157412780139,0.6916751789604965 l -29.11006023640217 43.923438908147865" fill="red" stroke="none" /><path d="M 111.90073688211348 82.69761687909136 l 21.680035866043184 -31.520425192587066 a59.256517869173564,59.256517869173564 0 0,0 0.8354290341793924,0.5852714271950616 l -22.219396039806227 31.14256892262807" fill="red" stroke="none" /><path d="M 113.06298171725822 83.55741782278167 l 24.34110780052976 -30.638538272312964 a60.130672833737435,60.130672833737435 0 0,0 0.8048822750282891,0.6508254905959028 l -24.86489347412254 30.21500668445293" fill="red" stroke="none" /><path d="M 113.34407831869373 83.78471172551755 l 17.908233527068866 -21.761500659162778 a49.18275605753943,49.18275605753943 0 0,0 0.6490776263297794,0.5435838455779534 l -18.280168690357762 21.450015656191002" fill="red" stroke="none" /><path d="M 114.16331599549186 84.49514656593476 l 26.08485710973886 -28.55559294615529 a59.67611225216422,59.67611225216422 0 0,0 0.752464954768897,0.6993341688644081 l -26.572529948302602 28.10235419121624" fill="red" stroke="none" /><path d="M 114.94478906791727 85.2469230424477 l 27.638577471541506 -27.284029140984618 a59.836956765643976,59.836956765643976 0 0,0 0.7172904937697436,0.7392309054441845 l -28.104132229014358 26.80423403999032" fill="red" stroke="none" /><path d="M 115.4437574822437 85.77008943001954 l 28.687361340134064 -26.432594971021008 a60.008291138698496,60.008291138698496 0 0,0 0.6933996885985517,0.7656692548253182 l -29.13810466934865 25.93487292892614" fill="red" stroke="none" /><path d="M 115.68641384162765 86.03803664274999 l 21.310307995447797 -18.96760740651742 a49.52892142350672,49.52892142350672 0 0,0 0.5613469660480012,0.641716620827749 l -21.633646825073647 18.597975229486725" fill="red" stroke="none" /><path d="M 116.38621287248628 86.86637796730983 l 10.919048668610175 -8.75166576231081 a34.99347267273856,34.99347267273856 0 0,0 0.3726736842430767,0.4732577333835358 l -11.068076433447217 8.562415634974236" fill="red" stroke="none" /><path d="M 116.82858285166822 87.43820079747576 l 44.13797184927001 -32.94706063275168 a76.07875600724083,76.07875600724083 0 0,0 0.7743273596286145,1.056181648326841 l -44.698561821412255 32.182416540753344" fill="red" stroke="none" /><path d="M 117.2510076193507 88.02491185347247 l 32.11620633556936 -22.294025386036235 a60.09570663515488,60.09570663515488 0 0,0 0.5825721709174619,0.8548527751912008 l -32.49520297215555 21.73789458757463" fill="red" stroke="none" /><path d="M 117.65298651832404 88.62581576622439 l 23.852606229043836 -15.368727406166155 a49.37507014974348,49.37507014974348 0 0,0 0.45418576125478616,0.718412801358581 l -24.113619586544576 14.955866957093367" fill="red" stroke="none" /><line stroke="#e1ed5e" stroke-width="0.3" x1="172.23445277983987" x2="176.4835382374775" y1="55.19839476539836" y2="52.563006222186495" /><path d="M 173.08426987136738 54.67131705675599 a86.0,86.0 0 0,1 12.851231095245387,41.99856678651699" fill="none" id="id75" stroke="none" /><text fill="#e1ed5e" style="font-size:6.75px; font-family:Arial;" text-anchor="middle"><textPath startOffset="22.20632615414155" xlink:href="#id75">March</textPath></text><path d="M 118.03404312379186 89.2402003453031 l 33.52020368183099 -19.99943515302517 a60.03308162714667,60.03308162714667 0 0,0 0.5218313458461318,0.8919789241670892 l -33.85949470214745 19.419476816504186" fill="red" stroke="none" /><path d="M 118.3937258080291 89.86733742301442 l 33.99972586532138 -18.729633870747858 a59.81727120560214,59.81727120560214 0 0,0 0.4890543329930678,0.906143404555323 l -34.31708829753291 18.141609482860076" fill="red" stroke="none" /><path d="M 118.73160827565052 90.50648371742162 l 34.99078535754236 -17.733959927180766 a60.22815818562546,60.22815818562546 0 0,0 0.4607166928942362,0.9287767395611091 l -35.29086206339 17.129023599120707" fill="red" stroke="none" /><path d="M 119.04729006885535 91.15688171328212 l 57.14187020656606 -26.529354860153646 a84.0,84.0 0 0,0 0.5975907321466121,1.3167119646317489 l -57.59006325567602 25.541820886679833" fill="red" stroke="none" /><path d="M 119.47837535516314 92.15188598940014 l 34.899267970870646 -14.061410611910588 a58.62555213281779,58.62555213281779 0 0,0 0.3690798158907212,0.939267873981934 l -35.136141336643064 13.45859373303287" fill="red" stroke="none" /><line stroke="#e1ed5e" stroke-width="0.3" x1="184.98032266829074" x2="189.97916517819016" y1="98.17113171792111" y2="98.06355123074" /><path d="M 185.9800911702706 98.14961562048488 a86.0,86.0 0 0,1 -9.607161424134198,41.387399972396054" fill="none" id="id76" stroke="none" /><text fill="#e1ed5e" style="font-size:6.75px; font-family:Arial;" text-anchor="middle"><textPath startOffset="21.466115282336823" xlink:href="#id76">April</textPath></text><line stroke="#e1ed5e" stroke-width="0.3" x1="174.80103733775053" x2="179.2010983576182" y1="140.37084112569926" y2="142.7455964860345" /><path d="M 175.68104954172406 140.8457921977663 a86.0,86.0 0 0,1 -30.038265399797805,32.042727171017184" fill="none" id="id77" stroke="none" /><text fill="#e1ed5e" style="font-size:6.75px; font-family:Arial;" text-anchor="middle"><textPath startOffset="22.206326154141568" xlink:href="#id77">May</textPath></text><line stroke="#e1ed5e" stroke-width="0.3" x1="143.8653032363475" x2="146.44561519142675" y1="172.8068346515853" y2="177.08958963109032" /><path d="M 144.38136562736335 173.6633856474863 a86.0,86.0 0 0,1 -40.68145358897372,12.25698825130547" fill="none" id="id78" stroke="none" /><text fill="#e1ed5e" style="font-size:6.75px; font-family:Arial;" text-anchor="middle"><textPath startOffset="21.466115282336833" xlink:href="#id78">June</textPath></text><line stroke="#e1ed5e" stroke-width="0.3" x1="102.19456741930631" x2="102.32365962044197" y1="184.97166512339345" y2="189.96999836594603" /><path d="M 102.22038585953345 185.97133177190398 a86.0,86.0 0 0,1 -42.740103519485714,-10.115201625700543" fill="none" id="id79" stroke="none" /><text fill="#e1ed5e" style="font-size:6.75px; font-family:Arial;" text-anchor="middle"><textPath startOffset="22.20632615414155" xlink:href="#id79">July</textPath></text><line stroke="#e1ed5e" stroke-width="0.3" x1="58.666819895761336" x2="56.23545636021788" y1="174.27360380694188" y2="178.64263932499728" /><path d="M 58.180547188652646 175.14741091055294 a86.0,86.0 0 0,1 -31.652253787137756,-30.449443065178592" fill="none" id="id80" stroke="none" /><text fill="#e1ed5e" style="font-size:6.75px; font-family:Arial;" text-anchor="middle"><textPath startOffset="22.20632615414155" xlink:href="#id80">August</textPath></text><line stroke="#e1ed5e" stroke-width="0.3" x1="26.63291911575756" x2="22.317208475507996" y1="142.92168965132927" y2="145.44649492493687" /><path d="M 25.769776987707644 143.4266507060508 a86.0,86.0 0 0,1 -11.730757126820373,-40.83630448921669" fill="none" id="id81" stroke="none" /><text fill="#e1ed5e" style="font-size:6.75px; font-family:Arial;" text-anchor="middle"><textPath startOffset="21.46611528233685" xlink:href="#id81">September</textPath></text><line stroke="#e1ed5e" stroke-width="0.3" x1="15.007084014347285" x2="10.007500721073583" y1="101.09737516637583" y2="101.16192664675087" /><path d="M 14.007167355692545 101.11028546245083 a86.0,86.0 0 0,1 10.666146001902534,-42.60595125391555" fill="none" id="id82" stroke="none" /><text fill="#e1ed5e" style="font-size:6.75px; font-family:Arial;" text-anchor="middle"><textPath startOffset="22.20632615414155" xlink:href="#id82">October</textPath></text><line stroke="#e1ed5e" stroke-width="0.3" x1="26.266209847984243" x2="21.928928074336255" y1="57.711370442889674" y2="55.22380399835377" /><path d="M 25.398753493254645 57.213857153982495 a86.0,86.0 0 0,1 29.58750427330803,-30.492523968695096" fill="none" id="id83" stroke="none" /><text fill="#e1ed5e" style="font-size:6.75px; font-family:Arial;" text-anchor="middle"><textPath startOffset="21.46611528233685" xlink:href="#id83">November</textPath></text><line stroke="#e1ed5e" stroke-width="0.3" x1="56.762969772571076" x2="54.21961505331055" y1="26.818313649435495" y2="22.513508569990535" /><path d="M 56.25429882871897 25.957352633546506 a86.0,86.0 0 0,1 42.265352541879196,-11.944610805530505" fill="none" id="id84" stroke="none" /><text fill="#e1ed5e" style="font-size:6.75px; font-family:Arial;" text-anchor="middle"><textPath startOffset="22.20632615414155" xlink:href="#id84">December</textPath></text></svg>