<?xml version="1.0" encoding="utf-8" ?>
<svg baseProfile="full" height="200mm" version="1.1" viewBox="0,0,200,200" width="200mm" xmlns="http://www.w3.org/2000/svg" xmlns:ev="http://www.w3.org/2001/xml-events" xmlns:xlink="http://www.w3.org/1999/xlink"><defs /><rect fill="#1a1a1a" height="200" width="200" x="0" y="0" /><text alignment-baseline="middle" fill="#e1ed5e" style="dominant-baseline: central; font-size:9.0px; font-family:Arial;" text-anchor="middle" x="100.0" y="100.0">2024</text><line stroke="#e1ed5e" stroke-width="0.3" x1="100.0" x2="100.0" y1="15.0" y2="10.0" /><path d="M 100.0 14.0 a86.0,86.0 0 0,1 42.35913384403234,11.155469271406648" fill="none" id="id61" stroke="none" /><text fill="#e1ed5e" style="font-size:6.75px; font-family:Arial;" text-anchor="middle"><textPath startOffset="22.145653131862478" xlink:href="#id61">January</textPath></text><path d="M 100.36049292484886 79.00309439819443 l 0.7360918438299114 -42.873659630451286 a63.87997809363178,63.87997809363178 0 0,0 1.0962616001141714,0.028235810111334154 l -1.4719667580148241 42.85470610298991" fill="red" stroke="none" /><path d="M 100.72087961077811 79.0123766808444 l 0.10765456530901073 -3.134245207537713 a24.136093513657556,24.136093513657556 0 0,0 0.41396186301660476,0.01777730356620211 l -0.16144218892645174 3.1319353355456805" fill="red" stroke="none" /><path d="M 101.44090949804482 79.04949213459386 l 0.26156591541473145 -3.80311100430268 a24.81209522954961,24.81209522954961 0 0,0 0.4246779204804595,0.0328727568960689 l -0.32681283067042444 3.798060480411557" fill="red" stroke="none" /><path d="M 101.80034050326958 79.07731436759882 l 0.9191649408393981 -10.682089897206335 a31.721562794689305,31.721562794689305 0 0,0 0.5421372731963676,0.05134096342969373 l -1.1024017774207788 10.664737178271457" fill="red" stroke="none" /><path d="M 102.15924093988457 79.11130261209362 l 1.3162883518293322 -12.73389576341529 a33.801746612813716,33.801746612813716 0 0,0 0.5766643940265729,0.06461644815749906 l -1.5346886474567019 12.70942355475082" fill="red" stroke="none" /><path d="M 102.51750503828377 79.15144685158666 l 0.6199327405066631 -5.133932402258747 a26.17122601649883,26.17122601649883 0 0,0 0.4455616061527163,0.05768687037058918 l -0.7079721685501712 5.122533935687761" fill="red" stroke="none" /><path d="M 103.58742460773223 79.30868818359171 l 1.157140819450255 -6.674080748382536 a27.77364958585609,27.77364958585609 0 0,0 0.4690642300298723,0.08547912806305909 l -1.271539783031181 6.653233446388111" fill="red" stroke="none" /><path d="M 103.94208987418118 79.37332000966035 l 0.7608464930033867 -3.981070354519216 a25.053123308455753,25.053123308455753 0 0,0 0.42173176847454324,0.08435816498193774 l -0.829074747008887 3.967422792874419" fill="red" stroke="none" /><path d="M 104.64783097203109 79.52079915486377 l 0.9951188227623015 -4.384677144835811 a25.49618228454556,25.49618228454556 0 0,0 0.42599002695399046,0.10053248645043383 l -1.070241003456177 4.366948514739149" fill="red" stroke="none" /><path d="M 104.9986988182912 79.60360301121754 l 0.8378030854095638 -3.418522489474943 a24.51968890968616,24.51968890968616 0 0,0 0.407954738895445,0.10370049933262546 l -0.8963631175304032 3.40363675830705" fill="red" stroke="none" /><path d="M 105.3480935250658 79.69241777938227 l 1.7184801005809718 -6.525348850666203 a27.74784050485661,27.74784050485661 0 0,0 0.4595816672136578,0.12526102706797937 l -1.8302431687293224 6.494887329454082" fill="red" stroke="none" /><path d="M 105.69591212413111 79.78721728523813 l 8.42241659428518 -29.888185218352636 a52.052225635761495,52.052225635761495 0 0,0 0.8579693684320198,0.24974237897100962 l -8.934245975098804 29.739199145079112" fill="red" stroke="none" /><path d="M 106.04205211174951 79.88797359093562 l 1.029473834739324 -3.426783577628378 a24.578080779456556,24.578080779456556 0 0,0 0.403032968687791,0.12486064393887135 l -1.088147436298745 3.40860634588286" fill="red" stroke="none" /><path d="M 106.72888874123014 80.10723608172694 l 2.510647524342868 -7.422283292890198 a28.835409387607385,28.835409387607385 0 0,0 0.4675376408190099,0.16263386120926665 l -2.637690937206896 7.378090999112341" fill="red" stroke="none" /><path d="M 107.06938296918511 80.22567764915836 l 1.0662525959284086 -2.9824982790174754 a24.167363348696558,24.167363348696558 0 0,0 0.3894522825293055,0.14301227262096444 l -1.1172940301118388 2.963755157387789" fill="red" stroke="none" /><path d="M 107.74402155503746 80.48000691201159 l 7.975285564813796 -20.102929465457287 a42.62713464454961,42.62713464454961 0 0,0 0.6778638784181807,0.2756813381066724 l -8.319203904422416 19.963060870771322" fill="red" stroke="none" /><path d="M 108.07796709384702 80.6158196554323 l 11.224109984161924 -26.933777968219317 a50.17891431458511,50.17891431458511 0 0,0 0.7922651406068975,0.3381708775277394 l -11.684810199939252 26.737132441032177" fill="red" stroke="none" /><path d="M 108.4095320186766 80.7573450057729 l 2.6043189930855233 -5.959191518334223 a27.5034176376681,27.5034176376681 0 0,0 0.4310002914390761,0.19278094825831174 l -2.7062326873802314 5.913606819166058" fill="red" stroke="none" /><path d="M 108.73861861582097 80.90454125486305 l 1.3250885404605315 -2.8955576013132447 a24.184354481301153,24.184354481301153 0 0,0 0.3760221278989081,0.175997342326976 l -1.3745993822309446 2.8723840274157353" fill="red" stroke="none" /><path d="M 109.06512990194946 81.05736502329252 l 1.7094287103364185 -3.572048545232987 a24.960009763273764,24.960009763273764 0 0,0 0.3849068257216642,0.18827721638747352 l -1.77049578532015 3.5421775787482925" fill="red" stroke="none" /><path d="M 109.3889696526874 81.21577127319529 l 5.9940291106248855 -11.992073462169115 a34.40664801138149,34.40664801138149 0 0,0 0.5260494318351059,0.2686045881456046 l -6.19900576417357 11.887410922350677" fill="red" stroke="none" /><path d="M 109.71004243097381 81.37971332152246 l 1.5639535312891741 -2.9990871112497466 a24.382376996861264,24.382376996861264 0 0,0 0.3694640503861797,0.19671879668524264 l -1.6152063974619133 2.971797846841931" fill="red" stroke="none" /><path d="M 110.34350942703115 81.72400993836675 l 3.38414187292747 -5.979454427251534 a27.870683478641627,27.870683478641627 0 0,0 0.414354157519557,0.23922748438375688 l -3.4862884983074243 5.920480045591606" fill="red" stroke="none" /><line stroke="#e1ed5e" stroke-width="0.3" x1="143.13028292997686" x2="145.6673583964461" y1="26.7553504044142" y2="22.446841604673864" /><path d="M 143.63769802327073 25.89364864446614 a86.0,86.0 0 0,1 29.32050498858742,28.57503671076993" fill="none" id="id62" stroke="none" /><text fill="#e1ed5e" style="font-size:6.75px; font-family:Arial;" text-anchor="middle"><textPath startOffset="20.669276256404974" xlink:href="#id62">February</textPath></text><path d="M 111.27062007382361 82.28071324371311 l 2.782730901546405 -4.374915176548361 a26.184927586033815,26.184927586033815 0 0,0 0.37720556252786036,0.244500088362242 l -2.8574220963312724 4.326501246482224" fill="red" stroke="none" /><path d="M 111.8722381534696 82.67804972795209 l 2.150188507348534 -3.1371892913835655 a24.803323187306784,24.803323187306784 0 0,0 0.3491420994938842,0.24372830118865066 l -2.2037256980161786 3.0998161743897885" fill="red" stroke="none" /><path d="M 112.16784306229584 82.88440491214696 l 6.397287038180482 -8.998585373405405 a32.04082515808206,32.04082515808206 0 0,0 0.4455490185451178,0.3225431296661299 l -6.550817067099568 8.8874414723662" fill="red" stroke="none" /><path d="M 112.45986205192187 83.09580414077388 l 8.075376434752568 -10.95579905469185 a34.61033568615205,34.61033568615205 0 0,0 0.47522794513795164,0.3566199096423123 l -8.262257368801286 10.815560117785523" fill="red" stroke="none" /><path d="M 112.7482090630111 83.31218511350987 l 11.501031487785811 -15.055219405582207 a39.94553658868652,39.94553658868652 0 0,0 0.5413382128261859,0.42094786854855 l -11.757779645247222 14.855570485412866" fill="red" stroke="none" /><path d="M 113.31354834802062 83.75963576809568 l 2.7798748707539143 -3.3909953409883853 a25.384809425693895,25.384809425693895 0 0,0 0.33462698911624644,0.2791577357420534 l -2.837676194032053 3.3427754213344616" fill="red" stroke="none" /><path d="M 113.59037401385872 83.9905735841838 l 8.36496504184933 -9.853907785893096 a33.92563881609903,33.92563881609903 0 0,0 0.44074335386597335,0.3807036117569708 l -8.532887875478165 9.708860041671405" fill="red" stroke="none" /><path d="M 113.86319453409587 84.22622945171908 l 3.0921837327234787 -3.5183374635006524 a25.684047261075822,25.684047261075822 0 0,0 0.3286762738939221,0.29390435083442246 l -3.152125033440776 3.464737582782843" fill="red" stroke="none" /><path d="M 114.39649973595853 84.71141617570332 l 7.216428663557402 -7.663597163085618 a31.526517189187828,31.526517189187828 0 0,0 0.39081999281837027,0.37439671241409817 l -7.346921142241085 7.53858832036594" fill="red" stroke="none" /><path d="M 114.65682725009322 84.96080404539774 l 4.87984306545576 -5.0071488758680305 a27.991738568380768,27.991738568380768 0 0,0 0.3412433925292968,0.33832679986230696 l -4.965078378115019 4.922642065777064" fill="red" stroke="none" /><path d="M 114.91283532996326 85.21462403516908 l 2.7562793547681395 -2.7327215531219133 a24.881345510054228,24.881345510054228 0 0,0 0.29811785406936336,0.30589518102467506 l -2.8027840099883146 2.6850036800294963" fill="red" stroke="none" /><path d="M 115.41159269507618 85.73525988315684 l 2.5165014361111937 -2.329236160079516 a24.42901160210514,24.42901160210514 0 0,0 0.28221592289672176,0.3102047362165296 l -2.5561150598497933 2.2856938483053146" fill="red" stroke="none" /><path d="M 115.8921839302757 86.27271002978787 l 3.05521773384797 -2.6390243114898206 a25.037177815981536,25.037177815981536 0 0,0 0.27815760470988665,0.3276689589309002 l -3.100069902064969 2.5861885701093685" fill="red" stroke="none" /><path d="M 116.1254893667686 86.54754324733833 l 3.254399504563808 -2.714935813436418 a25.2381591058365,25.2381591058365 0 0,0 0.27467912096192987,0.33506386537321725 l -3.3005254447643657 2.6586696663647054" fill="red" stroke="none" /><path d="M 116.35404254752997 86.82634096563983 l 12.061520240990369 -9.71590691592272 a36.4880314347142,36.4880314347142 0 0,0 0.3887427386548378,0.49116375106704735 l -12.226529410286766 9.507423220940993" fill="red" stroke="none" /><line stroke="#e1ed5e" stroke-width="0.3" x1="172.87174338648825" x2="177.1583165268699" y1="56.24261187166439" y2="53.66864786411523" /><path d="M 173.72905801456457 55.72781907015455 a86.0,86.0 0 0,1 12.242430191666344,42.057860355516425" fill="none" id="id63" stroke="none" /><text fill="#e1ed5e" style="font-size:6.75px; font-family:Arial;" text-anchor="middle"><textPath startOffset="22.145653131862474" xlink:href="#id63">March</textPath></text><path d="M 118.36410011445183 89.81374322990088 l 7.5762949010325515 -4.202443068102055 a29.66376201012302,29.66376201012302 0 0,0 0.2431787894260214,0.44742158274600724 l -7.647319040073914 4.071766651881445" fill="red" stroke="none" /><line stroke="#e1ed5e" stroke-width="0.3" x1="184.99686870605535" x2="189.99668451229388" y1="99.2704041080226" y2="99.22748670261217" /><path d="M 185.99683186730306 99.26182062694052 a86.0,86.0 0 0,1 -10.086455211305974,41.156179273409016" fill="none" id="id64" stroke="none" /><text fill="#e1ed5e" style="font-size:6.75px; font-family:Arial;" text-anchor="middle"><textPath startOffset="21.40746469413373" xlink:href="#id64">April</textPath></text><path d="M 120.592083275326 104.11899336999214 l 18.314195308889534 3.663351980731672 a39.67698844961045,39.67698844961045 0 0,0 -0.13932723599378688,0.6667312612574462 l -18.248610362071382 -3.977199693274527" fill="red" stroke="none" /><line stroke="#e1ed5e" stroke-width="0.3" x1="174.33088141563837" x2="178.70328620479359" y1="141.23008692659167" y2="143.65538615756765" /><path d="M 175.20536237346943 141.71514677278685 a86.0,86.0 0 0,1 -30.301960400862466,31.631185727798858" fill="none" id="id65" stroke="none" /><text fill="#e1ed5e" style="font-size:6.75px; font-family:Arial;" text-anchor="middle"><textPath startOffset="22.145653131862474" xlink:href="#id65">May</textPath></text><path d="M 117.21940702142032 112.02048342749411 l 2.7573727022893983 1.924860294553886 a24.36276543530482,24.36276543530482 0 0,0 -0.24233399321387275,0.34087310977271906 l -2.723923610545565 -1.971910631036109" fill="red" stroke="none" /><path d="M 117.01052211995028 112.31430620078461 l 12.114304225585109 8.76982203082135 a35.955472086240164,35.955472086240164 0 0,0 -0.3662287078169912,0.4968595784136139 l -11.961973498184289 -8.976487918503842" fill="red" stroke="none" /><path d="M 116.79662413953412 112.60449989151573 l 15.36734393744842 11.531941381991663 a40.21304066850233,40.21304066850233 0 0,0 -0.4190735445177465,0.5485807222152385 l -15.167118415576368 -11.79404301744778" fill="red" stroke="none" /><path d="M 116.1254893667686 113.45245675266167 l 3.766441252840811 3.142099251244941 a25.904983936342205,25.904983936342205 0 0,0 -0.28779874212426215,0.33902619456273697 l -3.7119479472094343 -3.2062922282572344" fill="red" stroke="none" /><path d="M 114.39649973595853 115.28858382429668 l 4.434399070985713 4.709178144032697 a27.468404278722396,27.468404278722396 0 0,0 -0.3460629524600945,0.320310702377168 l -4.352906347211651 -4.784606592542246" fill="red" stroke="none" /><path d="M 113.86319453409587 115.77377054828091 l 5.865748966486606 6.67414556317556 a29.88545046333019,29.88545046333019 0 0,0 -0.3882554353774834,0.33536579788660864 l -5.750314051346267 -6.773855493526886" fill="red" stroke="none" /><line stroke="#e1ed5e" stroke-width="0.3" x1="143.1302829299769" x2="145.66735839644613" y1="173.24464959558577" y2="177.55315839532614" /><path d="M 143.63769802327073 174.10635135553383 a86.0,86.0 0 0,1 -40.68552437913181,11.842963189579606" fill="none" id="id66" stroke="none" /><text fill="#e1ed5e" style="font-size:6.75px; font-family:Arial;" text-anchor="middle"><textPath startOffset="21.407464694133747" xlink:href="#id66">June</textPath></text><line stroke="#e1ed5e" stroke-width="0.3" x1="101.45913802915013" x2="101.54496967792366" y1="184.9874750549273" y2="189.98673829345242" /><path d="M 101.47630435890484 185.9873277026323 a86.0,86.0 0 0,1 -42.54439059252881,-10.42667462771756" fill="none" id="id67" stroke="none" /><text fill="#e1ed5e" style="font-size:6.75px; font-family:Arial;" text-anchor="middle"><textPath startOffset="22.145653131862474" xlink:href="#id67">July</textPath></text><path d="M 99.27912038922189 120.98762331915562 l -0.4291254337906465 12.49351878789589 a33.500886382230405,33.500886382230405 0 0,0 -0.5745788700913121,-0.02467488894243998 l 0.6435300644827974 -12.484311330527621" fill="red" stroke="none" /><path d="M 98.91894614982273 120.97215588758144 l -0.467502344868527 9.069420596194075 a30.081461798252903,30.081461798252903 0 0,0 -0.5154754249625412,-0.03100972152734605 l 0.6231221219635145 -9.060058896842037" fill="red" stroke="none" /><path d="M 98.55909050195518 120.95050786540614 l -4.322728494134462 62.8515235962184 a84.0,84.0 0 0,0 -1.4377240208990556,-0.1112889320197854 l 5.4010215098087535 -62.76805689720356" fill="red" stroke="none" /><path d="M 97.84075906011543 120.88869738790638 l -0.7662678806884106 7.412946643475663 a28.45244553176954,28.45244553176954 0 0,0 -0.48540427360437055,-0.054390561313796354 l 0.8934080558935804 -7.398700321654895" fill="red" stroke="none" /><path d="M 97.48249496171623 120.84855314841334 l -0.42039629100956705 3.4814843598024448 a24.506774356733498,24.506774356733498 0 0,0 -0.41722454030715217,-0.054018069869058834 l 0.4800986532075132 -3.473754693732989" fill="red" stroke="none" /><path d="M 97.12497278360702 120.80226474461374 l -4.996080219202387 36.14914767157117 a57.49276222674525,57.49276222674525 0 0,0 -0.9764868997879449,-0.14350994709564482 l 5.615892224598017 -36.05805665117664" fill="red" stroke="none" /><path d="M 96.05791012581884 120.62667999033965 l -0.6965189215419451 3.6444813183886136 a24.710442384426628,24.710442384426628 0 0,0 -0.4159632489037898,-0.08320429951097175 l 0.7589786559766929 -3.63198762221478" fill="red" stroke="none" /><path d="M 95.70440661134978 120.55596938700252 l -1.5308762153242166 7.3257968737546495 a28.484041810556565,28.484041810556565 0 0,0 -0.4777690501080915,-0.10412754077402937 l 1.6564076820514444 -7.298437874846901" fill="red" stroke="none" /><path d="M 95.35216902796893 120.47920084513623 l -0.7504558764139091 3.306647059881597 a24.39073720613494,24.39073720613494 0 0,0 -0.4075202586768072,-0.09617367142759108 l 0.8071082888306041 -3.2932772448077783" fill="red" stroke="none" /><path d="M 95.00130118170881 120.39639698878247 l -2.43094754046775 9.919095527990706 a31.212637369353295,31.212637369353295 0 0,0 -0.5193109657775135,-0.13200681675091044 l 2.6008637994706416 -9.875903479404531" fill="red" stroke="none" /><path d="M 94.6519064749342 120.30758222061772 l -2.8779831161513143 10.928170662474205 a32.300783196089284,32.300783196089284 0 0,0 -0.534991102855996,-0.14581420408316137 l 3.0651556199420056 -10.8771559642469" fill="red" stroke="none" /><path d="M 94.30408787586889 120.21278271476187 l -1.9296039689362872 6.847483756712796 a28.114169331368227,28.114169331368227 0 0,0 -0.4634018202029147,-0.13488951617057943 l 2.0468658015208083 -6.8133505462397" fill="red" stroke="none" /><path d="M 93.61358852112213 120.00534299687104 l -5.117770990767848 16.031344736925174 a37.828416264999014,37.828416264999014 0 0,0 -0.6169224972170682,-0.20279467847306523 l 5.3922162256326605 -15.941129137050087" fill="red" stroke="none" /><path d="M 93.27111125876986 119.89276391827306 l -2.660564029275554 7.8654848013064855 a29.303279599860424,29.303279599860424 0 0,0 -0.4751236935192065,-0.16527268412801505 l 2.7951934948397823 -7.818653684609879" fill="red" stroke="none" /><path d="M 92.93061703081489 119.77432235084164 l -4.010652670506679 11.21850932246281 a32.913869491547544,32.913869491547544 0 0,0 -0.530400499856201,-0.19477041035963907 l 4.202642322016999 -11.148008063094451" fill="red" stroke="none" /><path d="M 92.59220618246901 119.65005319985036 l -2.4906847205926703 6.606837132517921 a28.0607228576833,28.0607228576833 0 0,0 -0.4492758742492854,-0.17378955970465387 l 2.6037328573354843 -6.563107684675226" fill="red" stroke="none" /><path d="M 92.25597844496254 119.51999308798841 l -2.5555832239036977 6.441739154758589 a27.930152159386395,27.930152159386395 0 0,0 -0.4441499862809172,-0.18063193280590942 l 2.665787671375056 -6.396919965373388" fill="red" stroke="none" /><path d="M 91.92203290615298 119.3841803445677 l -4.466419565667845 10.717781014651264 a32.611190017160155,32.611190017160155 0 0,0 -0.5148917507924996,-0.21977667105725435 l 4.649746391630776 -10.639529693934605" fill="red" stroke="none" /><path d="M 91.59046798132341 119.24265499422711 l -2.4155807753779137 5.527321540372672 a27.03210691989483,27.03210691989483 0 0,0 -0.42361447999575375,-0.1894773687434416 l 2.5101086582293024 -5.485040420719375" fill="red" stroke="none" /><path d="M 90.93487009805054 118.94263497670748 l -3.3996150869693604 7.103888013774572 a28.87544333049256,28.87544333049256 0 0,0 -0.44528649383780716,-0.2178119377268349 l 3.521061830069237 -7.044482325950516" fill="red" stroke="none" /><path d="M 90.6110303473126 118.78422872680471 l -3.397138304535977 6.796552261805246 a28.598267651747705,28.598267651747705 0 0,0 -0.4372440594821534,-0.22325993225885646 l 3.5133095857317125 -6.737234377873553" fill="red" stroke="none" /><path d="M 90.28995756902619 118.62028667847754 l -5.329729037084663 10.220458179724934 a32.526655066074014,32.526655066074014 0 0,0 -0.4928735917655923,-0.26242742639971983 l 5.504391444636817 -10.127460285602641" fill="red" stroke="none" /><path d="M 89.97174638481275 118.45085714620012 l -5.17970651466986 9.53007658448925 a31.846737725433563,31.846737725433563 0 0,0 -0.4780890074386301,-0.2651879132862731 l 5.342539710264593 -9.439755755769827" fill="red" stroke="none" /><line stroke="#e1ed5e" stroke-width="0.3" x1="58.13341422392154" x2="55.67067388415222" y1="173.97424548756322" y2="178.32567169271397" /><path d="M 57.64086615596768 174.84453072859336 a86.0,86.0 0 0,1 -31.369924170532247,-30.572349798747897" fill="none" id="id68" stroke="none" /><text fill="#e1ed5e" style="font-size:6.75px; font-family:Arial;" text-anchor="middle"><textPath startOffset="22.145653131862474" xlink:href="#id68">August</textPath></text><path d="M 89.65649057296885 118.27599006163327 l -6.142856601223208 10.85383901721034 a33.47158805584554,33.47158805584554 0 0,0 -0.49762294779565985,-0.2873027428647615 l 6.328272016879268 -10.746789377069407" fill="red" stroke="none" /><path d="M 89.34428304082925 118.09573695890944 l -2.4517167875713155 4.163551101782042 a25.83177741453489,25.83177741453489 0 0,0 -0.380178868511067,-0.2282864871147685 l 2.52282841263981 -4.1208506141313554" fill="red" stroke="none" /><path d="M 89.03521579738668 117.91015095944536 l -4.707599433680616 7.689509885085028 a30.0160997499368,30.0160997499368 0 0,0 -0.43714285796937197,-0.27280947431887176 l 4.8389064204397005 -7.607564613924608" fill="red" stroke="none" /><path d="M 88.72937992617639 117.7192867562869 l -4.189931065784705 6.587267564465675 a28.80689543300596,28.80689543300596 0 0,0 -0.41497617897877304,-0.2689825456140838 l 4.3023928770204884 -6.514371177147697" fill="red" stroke="none" /><path d="M 88.4268655584334 117.5232005979908 l -4.148933159781585 6.2820136060449245 a28.52843551548851,28.52843551548851 0 0,0 -0.40633147416513465,-0.2733979498158316 l 4.256160922043724 -6.209865982171972" fill="red" stroke="none" /><path d="M 88.1277618465304 117.32195027204791 l -6.435923017171772 9.390204021943228 a32.38406942427356,32.38406942427356 0 0,0 -0.45585189950403987,-0.3182200290964505 l 6.596170007849577 -9.27833917704165" fill="red" stroke="none" /><path d="M 87.83215693770417 117.11559508785305 l -6.562934182927918 9.231588827052951 a32.3267090260681,32.3267090260681 0 0,0 -0.4495244241775044,-0.32542101676943624 l 6.720439617479377 -9.11756703891045" fill="red" stroke="none" /><path d="M 87.54013794807813 116.9041958592261 l -6.817648257740449 9.249449228884515 a32.49054562690492,32.49054562690492 0 0,0 -0.4461215104845907,-0.33477789845107586 l 6.975422757135806 -9.131052303169424" fill="red" stroke="none" /><path d="M 87.2517909369889 116.68781488649013 l -4.446082407292685 5.820064592308771 a28.323988027781297,28.323988027781297 0 0,0 -0.38384406290368617,-0.29847946497396405 l 4.545336414831599 -5.742884075714014" fill="red" stroke="none" /><path d="M 86.96720088162412 116.46651593811092 l -19.08035503699613 24.107405283222466 a51.74454322034019,51.74454322034019 0 0,0 -0.6917733641633032,-0.557243654102883 l 19.491379171514694 -23.776313335326172" fill="red" stroke="none" /><path d="M 86.68645165197938 116.24036423190432 l -8.571553502304242 10.45590155770699 a34.52025912574621,34.52025912574621 0 0,0 -0.455052081780414,-0.379620631109341 l 8.74977991824655 -10.30721874268578" fill="red" stroke="none" /><path d="M 86.40962598614128 116.0094264158162 l -2.4758377232218876 2.9165306125499804 a24.825692518442864,24.825692518442864 0 0,0 -0.3225218261013711,-0.27858667179036695 l 2.5255390290861213 -2.873599808294891" fill="red" stroke="none" /><path d="M 86.13680546590413 115.77377054828092 l -5.91133199232979 6.726010679024469 a29.954499739119594,29.954499739119594 0 0,0 -0.3833248420910308,-0.3427714374960713 l 6.025921861244191 -6.6235437116450155" fill="red" stroke="none" /><line stroke="#e1ed5e" stroke-width="0.3" x1="26.387840678322732" x2="22.057713659400548" y1="142.50000000000003" y2="145.00000000000006" /><path d="M 25.521815274538298 143.00000000000003 a86.0,86.0 0 0,1 -11.493303480769221,-40.785679425670985" fill="none" id="id69" stroke="none" /><text fill="#e1ed5e" style="font-size:6.75px; font-family:Arial;" text-anchor="middle"><textPath startOffset="21.40746469413373" xlink:href="#id69">September</textPath></text><line stroke="#e1ed5e" stroke-width="0.3" x1="15.003131293944662" x2="10.003315487706104" y1="100.72959589197737" y2="100.7725132973878" /><path d="M 14.003168132696942 100.73817937305945 a86.0,86.0 0 0,1 10.791469493833604,-42.45332614584628" fill="none" id="id70" stroke="none" /><text fill="#e1ed5e" style="font-size:6.75px; font-family:Arial;" text-anchor="middle"><textPath startOffset="22.145653131862435" xlink:href="#id70">October</textPath></text><line stroke="#e1ed5e" stroke-width="0.3" x1="26.387840678322718" x2="22.05771365940052" y1="57.49999999999999" y2="54.99999999999999" /><path d="M 25.521815274538284 56.99999999999999 a86.0,86.0 0 0,1 29.574782752854787,-30.34633250058573" fill="none" id="id71" stroke="none" /><text fill="#e1ed5e" style="font-size:6.75px; font-family:Arial;" text-anchor="middle"><textPath startOffset="21.40746469413373" xlink:href="#id71">November</textPath></text><path d="M 82.576782715395 88.27688183743585 l -10.239438265775803 -6.889551036824601 a33.341475174696285,33.341475174696285 0 0,0 0.32358737287240696,-0.4721236475466391 l 10.119661156088082 7.064309419441275" fill="red" stroke="none" /><path d="M 82.78059297857968 87.97951657250589 l -16.198743219546976 -11.307980825040993 a40.75524518279421,40.75524518279421 0 0,0 0.40538835116165667,-0.5702294840829552 l 16.002239769855347 11.584387535833468" fill="red" stroke="none" /><path d="M 83.2033758604659 87.39550010848427 l -7.691809491755979 -5.772077239985625 a30.61669428243549,30.61669428243549 0 0,0 0.31906680969803375,-0.4176686960769123 l 7.591590704703639 5.903266849303421" fill="red" stroke="none" /><path d="M 83.42222388311158 87.10902102172516 l -7.386346540173514 -5.743667745556565 a30.356699972900707,30.356699972900707 0 0,0 0.32341965899429925,-0.4086301738526055 l 7.286660450537653 5.869617863323854" fill="red" stroke="none" /><path d="M 86.13680546590413 84.22622945171909 l -7.447767524437072 -8.474192274982041 a32.28189593159877,32.28189593159877 0 0,0 0.4193887448714456,-0.3622580091164207 l 7.301199299802779 8.600794416563174" fill="red" stroke="none" /><path d="M 86.40962598614128 83.9905735841838 l -6.938643175450428 -8.173704213710513 a31.72167009795833,31.72167009795833 0 0,0 0.4181605926839798,-0.34884443881382177 l 6.79730824860454 8.291610836436217" fill="red" stroke="none" /><line stroke="#e1ed5e" stroke-width="0.3" x1="56.869717070023135" x2="54.33264160355391" y1="26.7553504044142" y2="22.446841604673864" /><path d="M 56.362301976729285 25.89364864446614 a86.0,86.0 0 0,1 42.16139366436587,-11.88097634709845" fill="none" id="id72" stroke="none" /><text fill="#e1ed5e" style="font-size:6.75px; font-family:Arial;" text-anchor="middle"><textPath startOffset="22.145653131862474" xlink:href="#id72">December</textPath></text></svg>