<?xml version="1.0" encoding="utf-8" ?>
<svg baseProfile="full" height="200mm" version="1.1" viewBox="0,0,200,200" width="200mm" xmlns="http://www.w3.org/2000/svg" xmlns:ev="http://www.w3.org/2001/xml-events" xmlns:xlink="http://www.w3.org/1999/xlink"><defs /><rect fill="#1a1a1a" height="200" width="200" x="0" y="0" /><text alignment-baseline="middle" fill="#e1ed5e" style="dominant-baseline: central; font-size:9.0px; font-family:Arial;" text-anchor="middle" x="100.0" y="100.0">2023</text><line stroke="#e1ed5e" stroke-width="0.3" x1="100.0" x2="100.0" y1="15.0" y2="10.0" /><path d="M 100.0 14.0 a86.0,86.0 0 0,1 42.46469731375804,11.215312516191453" fill="none" id="id49" stroke="none" /><text fill="#e1ed5e" style="font-size:6.75px; font-family:Arial;" text-anchor="middle"><textPath startOffset="22.20632615414155" xlink:href="#id49">January</textPath></text><line stroke="#e1ed5e" stroke-width="0.3" x1="143.23703022742887" x2="145.7803849466894" y1="26.81831364943548" y2="22.513508569990506" /><path d="M 143.74570117128098 25.957352633546492 a86.0,86.0 0 0,1 28.547481713284135,27.462654790039103" fill="none" id="id50" stroke="none" /><text fill="#e1ed5e" style="font-size:6.75px; font-family:Arial;" text-anchor="middle"><textPath startOffset="19.985693538727396" xlink:href="#id50">February</textPath></text><line stroke="#e1ed5e" stroke-width="0.3" x1="172.23445277983987" x2="176.4835382374775" y1="55.19839476539836" y2="52.563006222186495" /><path d="M 173.08426987136738 54.67131705675599 a86.0,86.0 0 0,1 12.851231095245387,41.99856678651699" fill="none" id="id51" stroke="none" /><text fill="#e1ed5e" style="font-size:6.75px; font-family:Arial;" text-anchor="middle"><textPath startOffset="22.20632615414155" xlink:href="#id51">March</textPath></text><line stroke="#e1ed5e" stroke-width="0.3" x1="184.98032266829074" x2="189.97916517819016" y1="98.17113171792111" y2="98.06355123074" /><path d="M 185.9800911702706 98.14961562048488 a86.0,86.0 0 0,1 -9.607161424134198,41.387399972396054" fill="none" id="id52" stroke="none" /><text fill="#e1ed5e" style="font-size:6.75px; font-family:Arial;" text-anchor="middle"><textPath startOffset="21.466115282336823" xlink:href="#id52">April</textPath></text><path d="M 119.9155931802556 106.66101706037122 l 3.6666599350150584 1.2263598759352385 a24.86631007866008,24.86631007866008 0 0,0 -0.1392621936123418,0.40476112182531726 l -3.645006910459486 -1.2892937008498562" fill="red" stroke="none" /><path d="M 119.79798401119884 107.00284435728193 l 5.309424692621089 1.8780232738900706 a26.63178142188485,26.63178142188485 0 0,0 -0.15658947103878595,0.4308669717969794 l -5.276310960577077 -1.969138042693181" fill="red" stroke="none" /><path d="M 119.41010516605496 108.01547362559984 l 15.730118738087933 6.495809826584458 a38.018583396319926,38.018583396319926 0 0,0 -0.25499429370619225,0.6027311862247777 l -15.61597346318943 -6.7656155384754" fill="red" stroke="none" /><path d="M 119.26925614724726 108.34839909993367 l 15.857858419771496 6.870412119017284 a38.282194199425525,38.282194199425525 0 0,0 -0.2671712788559315,0.602400702662388 l -15.737246056184292 -7.14236115817236" fill="red" stroke="none" /><path d="M 119.12269723197855 108.67885076344098 l 3.155921814284762 1.432317529007463 a24.465743210594297,24.465743210594297 0 0,0 -0.17734795878719103,0.3819917256125269 l -3.1307992386577395 -1.4864293218988205" fill="red" stroke="none" /><line stroke="#e1ed5e" stroke-width="0.3" x1="174.80103733775053" x2="179.2010983576182" y1="140.37084112569926" y2="142.7455964860345" /><path d="M 175.68104954172406 140.8457921977663 a86.0,86.0 0 0,1 -30.038265399797805,32.042727171017184" fill="none" id="id53" stroke="none" /><text fill="#e1ed5e" style="font-size:6.75px; font-family:Arial;" text-anchor="middle"><textPath startOffset="22.206326154141568" xlink:href="#id53">May</textPath></text><path d="M 118.30583269289576 110.29060199501025 l 5.019333636793359 2.821612411898267 a26.7580558142852,26.7580558142852 0 0,0 -0.22916109166868606,0.3995616793702553 l -4.970020548972293 -2.907593937126838" fill="red" stroke="none" /><path d="M 118.12598468904814 110.60418214915192 l 2.8466306992634673 1.6653545153106226 a24.297986052070975,24.297986052070975 0 0,0 -0.21430722375529881,0.35919123394236 l -2.8175425998099413 -1.7141078431390868" fill="red" stroke="none" /><path d="M 117.94076556474637 110.91462005526583 l 4.375818271757661 2.6621157104340103 a26.121976728099003,26.121976728099003 0 0,0 -0.2370076308796872,0.38213176585061726 l -4.32934600121001 -2.737043807649901" fill="red" stroke="none" /><path d="M 117.75023020441432 111.22182372390056 l 12.436414586100282 7.8623911146716186 a35.71331375990586,35.71331375990586 0 0,0 -0.33297586413709696,0.5167859355649215 l -12.299233858586135 -8.075298650157993" fill="red" stroke="none" /><path d="M 117.35343817320211 111.8261652097733 l 3.336304574452222 2.273652557711789 a25.037378377945295,25.037378377945295 0 0,0 -0.24577059361276138,0.35405087053622103 l -3.2966730736773244 -2.3307446904350297" fill="red" stroke="none" /><path d="M 117.14729908036423 112.12312394758627 l 3.0167717859007683 2.132854749348627 a24.694588121837928,24.694588121837928 0 0,0 -0.24838076334731332,0.3449791562939483 l -2.979611230177852 -2.1844675110937066" fill="red" stroke="none" /><path d="M 116.93607887273984 112.41649034213515 l 21.57066789968657 15.814285683385824 a47.74668849249025,47.74668849249025 0 0,0 -0.49165159233905315,0.6586476524931061 l -21.295255040652425 -16.183246215388245" fill="red" stroke="none" /><path d="M 116.71984013943494 112.70617746262583 l 4.621448667862702 3.5120519346223698 a26.804506575168528,26.804506575168528 0 0,0 -0.28233210106003515,0.3649522993703187 l -4.560309749584598 -3.5910822281059414" fill="red" stroke="none" /><path d="M 116.498646956653 112.99209946851258 l 11.80490835018499 9.295946746738046 a36.02566095299827,36.02566095299827 0 0,0 -0.3878455546598938,0.48389696341845995 l -11.643144883470242 -9.497771543734757" fill="red" stroke="none" /><path d="M 116.27256486870786 113.27417163493432 l 15.019133723529896 12.251698516043282 a40.38242746235079,40.38242746235079 0 0,0 -0.44402209690788685,0.5348532194796477 l -14.806015626728465 -12.5084129926367" fill="red" stroke="none" /><path d="M 116.0416608686014 113.55231037782055 l 15.969562457364997 13.491400223016324 a41.905616591176795,41.905616591176795 0 0,0 -0.47025583051266,0.5470137705427707 l -15.734964117281558 -13.764291092720622" fill="red" stroke="none" /><path d="M 115.80600337817218 113.82643327865902 l 13.253083560481592 11.593245376535021 a38.60816748618828,38.60816748618828 0 0,0 -0.4418633993619102,0.4964382133448416 l -13.051561311471342 -11.819657759620728" fill="red" stroke="none" /><path d="M 114.55890576462653 115.13401014063108 l 3.1094327706914338 3.2322612594684856 a25.485095874662058,25.485095874662058 0 0,0 -0.31876292587563715,0.30141024259406957 l -3.053334010424989 -3.2853061388084766" fill="red" stroke="none" /><path d="M 114.29624159901734 115.38237550388516 l 20.82361079881221 22.40565105419767 a51.58816708897213,51.58816708897213 0 0,0 -0.6556621446773983,0.5989318235633994 l -20.43484910466795 -22.76077564434765" fill="red" stroke="none" /><path d="M 114.0293411484842 115.62618273729858 l 8.405233337642624 9.36193016432767 a33.5814817832387,33.5814817832387 0 0,0 -0.4334532113369033,0.3824720622641023 l -8.242837773399133 -9.50522536836406" fill="red" stroke="none" /><path d="M 112.92097659922987 116.55440617244103 l 2.4273629831697736 3.109947026274749 a24.945106026242897,24.945106026242897 0 0,0 -0.34076353731490056,0.26128294951039954 l -2.3734707173613794 -3.15126931761252" fill="red" stroke="none" /><path d="M 112.34349029814194 116.9893568818739 l 2.704022131369699 3.7217671741711804 a25.60035722370288,25.60035722370288 0 0,0 -0.35873740610676935,0.25594961418829576 l -2.6395573974140447 -3.7677610502036956" fill="red" stroke="none" /><path d="M 111.7513745106137 117.40417183066458 l 6.0458139535712725 8.954049146263559 a31.804020662461742,31.804020662461742 0 0,0 -0.45635029082841383,0.3024440887402956 l -5.890788964002894 -9.056791256095172" fill="red" stroke="none" /><path d="M 111.1453310114006 117.79835938074945 l 12.442784395366044 19.870306959871602 a44.444657860354596,44.444657860354596 0 0,0 -0.6518990034705346,0.4004496121450413 l -12.0989061919632 -20.08154503884502" fill="red" stroke="none" /><line stroke="#e1ed5e" stroke-width="0.3" x1="143.8653032363475" x2="146.44561519142675" y1="172.8068346515853" y2="177.08958963109032" /><path d="M 144.38136562736335 173.6633856474863 a86.0,86.0 0 0,1 -40.68145358897372,12.25698825130547" fill="none" id="id54" stroke="none" /><text fill="#e1ed5e" style="font-size:6.75px; font-family:Arial;" text-anchor="middle"><textPath startOffset="21.466115282336833" xlink:href="#id54">June</textPath></text><path d="M 110.8373102113329 117.98757091392108 l 23.037775184860795 38.23768137626167 a65.64145340936713,65.64145340936713 0 0,0 -0.9728442520661237,0.5747735318870358 l -22.37616306176629 -38.628573480442455" fill="red" stroke="none" /><path d="M 110.5260780823613 118.17145234162733 l 6.95437546987303 12.005525840468719 a34.874292374104485,34.874292374104485 0 0,0 -0.522036990978589,0.2964262278061991 l -6.746689711973242 -12.123455234069546" fill="red" stroke="none" /><path d="M 110.21172684928248 118.3499491758327 l 5.050307412866807 9.075143285383561 a31.385751326442385,31.385751326442385 0 0,0 -0.47433911920838634,0.25864750802781133 l -4.893345481789772 -9.160731445171143" fill="red" stroke="none" /><path d="M 109.89434966115114 118.52300852407294 l 10.823673404437784 20.262776392405886 a43.97241852950131,43.97241852950131 0 0,0 -0.6707031282338937,0.35088017730450655 l -10.473279373677395 -20.44608598865511" fill="red" stroke="none" /><path d="M 109.57404056367764 118.69057910512821 l 13.017725750757409 25.413390646836227 a49.55348679041906,49.55348679041906 0 0,0 -0.762524553191327,0.3823456407201894 l -12.578347289883322 -25.63370412846572" fill="red" stroke="none" /><path d="M 109.2508944713604 118.85261126421891 l 15.124461195407779 30.822488396179455 a55.333294589712956,55.333294589712956 0 0,0 -0.8586866545047006,0.41222177646431535 l -14.591661872902845 -31.07826444914333" fill="red" stroke="none" /><path d="M 108.92500713936063 119.00905698771935 l 7.15790553119372 15.245369782966964 a37.84211718914507,37.84211718914507 0 0,0 -0.5920165049787628,0.27176574085982147 l -6.894421030447537 -15.366322594160861" fill="red" stroke="none" /><path d="M 108.59647513512805 119.15986991738527 l 7.039927043775007 15.690627177577783 a38.19756825854799,38.19756825854799 0 0,0 -0.6022107204168794,0.26399148248904414 l -6.768795648700373 -15.809483213361283" fill="red" stroke="none" /><path d="M 108.2653958097858 119.30500536409082 l 5.814650929286296 13.580942759847897 a35.77336020259829,35.77336020259829 0 0,0 -0.5681636484402008,0.2374924511274402 l -5.580015821348635 -13.67902025399531" fill="red" stroke="none" /><path d="M 107.93186726928326 119.44442032107085 l 12.81475353896014 31.41447601971623 a54.92767619300823,54.92767619300823 0 0,0 -0.8785261321537335,0.34958367869700924 l -12.27210633076454 -31.63040654281931" fill="red" stroke="none" /><path d="M 107.59598834532513 119.57807347666477 l 8.425186433371582 21.715267526531182 a44.292415293092475,44.292415293092475 0 0,0 -0.7131706954784566,0.2696601334393189 l -8.05014551713285 -21.857075910077132" fill="red" stroke="none" /><path d="M 107.2578585660854 119.70592522655815 l 9.537103827597587 25.89433965863645 a48.5948034197602,48.5948034197602 0 0,0 -0.7874219551803651,0.2823414979964141 l -9.089962311787488 -26.054668697672824" fill="red" stroke="none" /><path d="M 106.91757812671514 119.82793768551818 l 9.213548379129241 26.40890493428099 a48.96997914840921,48.96997914840921 0 0,0 -0.7982812399968262,0.270820338569402 l -8.757597406195188 -26.563588259748517" fill="red" stroke="none" /><path d="M 106.2309692047433 120.05430185196036 l 5.074697749392742 16.332855632846684 a38.10306201740213,38.10306201740213 0 0,0 -0.6280201578418195,0.18921732182982992 l -4.792802617110677 -16.41778832378224" fill="red" stroke="none" /><path d="M 105.88484417918355 120.15858648285463 l 1.104312951742566 3.7828339143768934 a24.94072829806197,24.94072829806197 0 0,0 -0.41314771522224863,0.11675967114279127 l -1.0390340684157116 -3.8012823788582035" fill="red" stroke="none" /><path d="M 105.53697534728816 120.25689768951611 l 3.2934524851723808 12.049020602935236 a33.49102584906644,33.49102584906644 0 0,0 -0.5574016006807574,0.14721482888410067 l -3.085560441680126 -12.103926781122922" fill="red" stroke="none" /><path d="M 105.18746579009965 120.34920634021253 l 1.0270997174366174 4.029070248902826 a25.157925071493263,25.157925071493263 0 0,0 -0.42055271233448216,0.10336162469515985 l -0.9575937203589241 -4.046153131912016" fill="red" stroke="none" /><path d="M 104.83641907484287 120.43548508189849 l 1.6868119573768905 7.127343610533461 a28.32423112156913,28.32423112156913 0 0,0 -0.47541527401393974,0.10820296854632776 l -1.5638765339700889 -7.155323312657473" fill="red" stroke="none" /><path d="M 104.48393922423573 120.51570834832081 l 4.098044835570816 18.750096386340594 a40.19270918790287,40.19270918790287 0 0,0 -0.6771677951888536,0.14190709546097122 l -3.774685578952584 -18.81785946252811" fill="red" stroke="none" /><path d="M 104.13013068566511 120.58985236759428 l 3.285967782472045 16.381465061286583 a37.707782073680434,37.707782073680434 0 0,0 -0.6374992294680518,0.12217824458850604 l -3.0035009384322886 -16.435600504223558" fill="red" stroke="none" /><path d="M 103.7750983002368 120.6578951692458 l 4.417922671250633 24.175525019522 a45.5758835181705,45.5758835181705 0 0,0 -0.7729475138603081,0.13438683298124587 l -4.001126185918275 -24.24799043102425" fill="red" stroke="none" /><path d="M 103.41894727170886 120.7198165907248 l 4.108585596679305 24.899225768971714 a46.23592517621388,46.23592517621388 0 0,0 -0.7863721088487453,0.12281515084294178 l -3.6793776242220417 -24.966259227161764" fill="red" stroke="none" /><path d="M 103.06178313531738 120.77559828337769 l 0.9796257154900871 6.647208320643789 a27.719006250963417,27.719006250963417 0 0,0 -0.4726373151992154,0.0655032252055869 l -0.8650598091040412 -6.663086111341978" fill="red" stroke="none" /><path d="M 102.70371172650421 120.8252237178851 l 2.5140833977239434 19.364619641131817 a40.5271377620075,40.5271377620075 0 0,0 -0.6925751602382546,0.08386120684394766 l -2.1803808144343084 -19.405026376701112" fill="red" stroke="none" /><path d="M 102.34483914955558 120.86867818915974 l 1.0749812471114242 9.567154194607197 a30.62735810412344,30.62735810412344 0 0,0 -0.5244095060157151,0.054357189479634596 l -0.9101391444901065 -9.58424075254259" fill="red" stroke="none" /><line stroke="#e1ed5e" stroke-width="0.3" x1="102.19456741930631" x2="102.32365962044197" y1="184.97166512339345" y2="189.96999836594603" /><path d="M 102.22038585953345 185.97133177190398 a86.0,86.0 0 0,1 -42.740103519485714,-10.115201625700543" fill="none" id="id55" stroke="none" /><text fill="#e1ed5e" style="font-size:6.75px; font-family:Arial;" text-anchor="middle"><textPath startOffset="22.20632615414155" xlink:href="#id55">July</textPath></text><path d="M 100.54218724476979 120.99299961872073 l 0.08989637570195536 3.4807063409188124 a24.48186702647829,24.48186702647829 0 0,0 -0.42136826714556097,0.007254236848612052 l -0.029968418663726418 -3.481738055046584" fill="red" stroke="none" /><path d="M 99.81925306533755 120.99922214144158 l -0.031032115363645682 3.6053185923015487 a24.60545214143513,24.60545214143513 0 0,0 -0.42349534534911576,-0.007290856428887128 l 0.09308715060542938 -3.604250258593502" fill="red" stroke="none" /><path d="M 98.73552117531835 120.96189622390904 l -0.8482663680075413 14.062134714579356 a35.08769635398458,35.08769635398458 0 0,0 -0.6025680925584858,-0.04155662359207152 l 1.0901972213449571 -14.045449746470998" fill="red" stroke="none" /><path d="M 98.01472825383883 120.90594882070398 l -1.3080600826048088 13.774556150421242 a34.83652479204268,34.83652479204268 0 0,0 -0.5964799410837933,-0.06182758475266567 l 1.5449726202941954 -13.749999197212816" fill="red" stroke="none" /><path d="M 97.2962882734958 120.8252237178851 l -2.1130830579186277 16.27593170686346 a37.41252792643918,37.41252792643918 0 0,0 -0.6379217419943859,-0.08841014068426656 l 2.3929333910998443 -16.237147000686587" fill="red" stroke="none" /><path d="M 96.93821686468263 120.77559828337769 l -3.034608839141505 20.591208260952207 a41.81361834118475,41.81361834118475 0 0,0 -0.7111583278205866,-0.11106830509587566 l 3.388603030570609 -20.535921648509227" fill="red" stroke="none" /><path d="M 96.22490169976321 120.6578951692458 l -2.1181321338828054 11.59073170985171 a32.78267988644132,32.78267988644132 0 0,0 -0.5542339543245608,-0.10622025643422811 l 2.3173337027790613 -11.552554255069014" fill="red" stroke="none" /><path d="M 95.86986931433489 120.58985236759428 l -0.7304567010661709 3.64153020340818 a24.714069091234908,24.714069091234908 0 0,0 -0.41638326987157076,-0.08725716262029114 l 0.7930314323671284 -3.6284170600613477" fill="red" stroke="none" /><path d="M 94.81253420990036 120.34920634021253 l -8.069185434696477 31.653513690915773 a53.66583356598313,53.66583356598313 0 0,0 -0.8931772250380514,-0.23589622309402192 l 8.612853102546019 -31.50992611851817" fill="red" stroke="none" /><path d="M 94.46302465271185 120.25689768951611 l -8.263072443453225 30.230261575947203 a52.339225918263296,52.339225918263296 0 0,0 -0.8670088277378557,-0.24502535503581913 l 8.782212439295696 -30.083547427572864" fill="red" stroke="none" /><path d="M 94.11515582081647 120.15858648285463 l -3.722340938979219 12.750912250576116 a34.28313160696275,34.28313160696275 0 0,0 -0.565059514463257,-0.17024779645390206 l 3.941275427882722 -12.684949085016488" fill="red" stroke="none" /><path d="M 93.76903079525671 120.05430185196036 l -4.836392496124138 15.565872949267028 a37.29991082948888,37.29991082948888 0 0,0 -0.6115030061240142,-0.19578395193244486 l 5.103616847339093 -15.480316150674877" fill="red" stroke="none" /><path d="M 92.40401165467489 119.57807347666478 l -5.895195246083801 15.194410580967476 a37.29795815102203,37.29795815102203 0 0,0 -0.5965522880762423,-0.23738046686164593 l 6.155868610201901 -15.090683269699763" fill="red" stroke="none" /><path d="M 92.06813273071674 119.44442032107085 l -6.135538462055738 15.040845327091407 a37.244133106228006,37.244133106228006 0 0,0 -0.5915229217715463,-0.24725662927443667 l 6.3935328433247465 -14.933003654796998" fill="red" stroke="none" /><path d="M 90.42595943632237 118.69057910512821 l -6.424802166540368 12.542590803730088 a35.092362007449154,35.092362007449154 0 0,0 -0.5352572763247396,-0.2800213091519333 l 6.639750345391603 -12.430140075633437" fill="red" stroke="none" /><path d="M 90.10565033884886 118.52300852407294 l -7.364740398840995 13.78737904532928 a36.631097916714154,36.631097916714154 0 0,0 -0.5536130883319637,-0.30187399670432147 l 7.6009762990416 -13.658564396865193" fill="red" stroke="none" /><line stroke="#e1ed5e" stroke-width="0.3" x1="58.666819895761336" x2="56.23545636021788" y1="174.27360380694188" y2="178.64263932499728" /><path d="M 58.180547188652646 175.14741091055294 a86.0,86.0 0 0,1 -31.652253787137756,-30.449443065178592" fill="none" id="id56" stroke="none" /><text fill="#e1ed5e" style="font-size:6.75px; font-family:Arial;" text-anchor="middle"><textPath startOffset="22.20632615414155" xlink:href="#id56">August</textPath></text><path d="M 89.7882731507175 118.34994917583269 l -3.643896239720736 6.547894571385008 a28.493524079084832,28.493524079084832 0 0,0 -0.4265225918581233,-0.2421906592129064 l 3.756067598500066 -6.484200746377469" fill="red" stroke="none" /><path d="M 89.4739219176387 118.17145234162733 l -8.65172345813924 14.935703427467727 a38.260578080394296,38.260578080394296 0 0,0 -0.5670438653164731,-0.3350195105852084 l 8.907535194484096 -14.784565344588769" fill="red" stroke="none" /><path d="M 89.1626897886671 117.98757091392108 l -10.397572394785891 17.257702062293976 a41.14789795923434,41.14789795923434 0 0,0 -0.6035432595479564,-0.3707455647455324 l 10.693094854266157 -17.076168030720066" fill="red" stroke="none" /><path d="M 88.54995079064634 117.60387380957326 l -9.705461547216885 14.921658170805012 a38.80033332302678,38.80033332302678 0 0,0 -0.5567391489309973,-0.3689763498535671 l 9.960875394887843 -14.752383799860127" fill="red" stroke="none" /><path d="M 88.24862548938628 117.40417183066458 l -8.71765437749644 12.911132617657472 a36.57866628810764,36.57866628810764 0 0,0 -0.5187954249328399,-0.35683222389805325 l 8.93860668705217 -12.759159604394318" fill="red" stroke="none" /><path d="M 87.95078237400918 117.19931262002967 l -9.95252564270106 14.206449348083817 a38.34577671216522,38.34577671216522 0 0,0 -0.5373387704189896,-0.3833769454647331 l 10.195591740968936 -14.033028140774865" fill="red" stroke="none" /><path d="M 87.65650970185807 116.9893568818739 l -18.171273707338177 25.010612602713472 a51.914817335866786,51.914817335866786 0 0,0 -0.7184393417037027,-0.531484249533507 l 18.599098019460445 -24.694118404440196" fill="red" stroke="none" /><path d="M 87.07902340077011 116.55440617244103 l -12.06015084215231 15.451512817831093 a40.600930760937494,40.600930760937494 0 0,0 -0.5472280590754615,-0.434751066093367 l 12.324336393945131 -15.241627837732596" fill="red" stroke="none" /><path d="M 86.79598089348748 116.32954008644616 l -2.9018347207326483 3.5887274938184097 a25.615150026958787,25.615150026958787 0 0,0 -0.3404739778254056,-0.28018690439990723 l 2.963178827102743 -3.5382454705613218" fill="red" stroke="none" /><path d="M 86.24171649860922 115.8653595955263 l -9.49825254603357 10.952906454988566 a35.497688134318636,35.497688134318636 0 0,0 -0.4581866582354357,-0.40429645344349685 l 9.685381557175592 -10.78778685977278" fill="red" stroke="none" /><path d="M 85.97065885151581 115.62618273729859 l -10.812447812070108 12.043137561535941 a37.18475177489039,37.18475177489039 0 0,0 -0.4726012857943534,-0.4317100693048064 l 11.018148647331316 -11.855234725644559" fill="red" stroke="none" /><path d="M 85.70375840098266 115.38237550388516 l -10.63072377826298 11.438375876815208 a36.61565659039139,36.61565659039139 0 0,0 -0.4579819469784542,-0.4330505166599434 l 10.826041559632252 -11.253690723409333" fill="red" stroke="none" /><path d="M 85.44109423537348 115.13401014063109 l -38.866867619912604 40.402182568108195 a77.06219541589998,77.06219541589998 0 0,0 -0.9480486597963624,-0.9278651514033873 l 39.55656623208476 -39.72716731378224" fill="red" stroke="none" /><path d="M 85.18274418774928 114.88116024355367 l -21.27517069184287 21.366927067055816 a51.152586294643655,51.152586294643655 0 0,0 -0.6186037543895523,-0.6266423372272119 l 21.639815071287956 -20.99754423584794" fill="red" stroke="none" /><path d="M 84.9287848128048 114.62390073753433 l -13.73581960651365 13.32813976705725 a40.139280287223386,40.139280287223386 0 0,0 -0.47688035542980917,-0.500007146125618 l 13.963206513322417 -13.089725504349131" fill="red" stroke="none" /><path d="M 84.67929136418377 114.36230785411682 l -17.367357676790355 16.280926913752587 a44.80532910599058,44.80532910599058 0 0,0 -0.5226298240688527,-0.5672114533828766 l 17.645033908854938 -15.979564205568368" fill="red" stroke="none" /><path d="M 84.43433777217949 114.09645910891817 l -22.78840222505529 20.6374631173049 a51.744367937705675,51.744367937705675 0 0,0 -0.5922048054460868,-0.665348376838723 l 23.140265880149713 -20.24214057072531" fill="red" stroke="none" /><path d="M 84.19399662182784 113.82643327865904 l -12.161550468125032 10.638417700504156 a37.15794668140579,37.15794668140579 0 0,0 -0.41697849830680467,-0.48504019683372107 l 12.342871476002616 -10.427500404508907" fill="red" stroke="none" /><path d="M 83.95833913139862 113.55231037782056 l -2.9155309827644107 2.463097874853679 a24.81669648420829,24.81669648420829 0 0,0 -0.2728702136967479,-0.32868975060509703 l 2.9574971963546948 -2.412546867134821" fill="red" stroke="none" /><path d="M 83.72743513129214 113.27417163493432 l -16.088812659711525 13.124277725756794 a41.76286489437548,41.76286489437548 0 0,0 -0.4496112235186266,-0.5609591322254733 l 16.312341795285015 -12.845390759953062" fill="red" stroke="none" /><path d="M 83.50135304334701 112.99209946851258 l -19.52658617276735 15.376494236381982 a45.85405686329693,45.85405686329693 0 0,0 -0.48298118005030105,-0.6243182817332777 l 19.78837417003572 -15.038097960535453" fill="red" stroke="none" /><path d="M 83.28015986056508 112.70617746262583 l -29.992646424126136 22.792794958601597 a58.67055005634376,58.67055005634376 0 0,0 -0.6041354964993514,-0.8093382239727253 l 30.380543187320573 -22.273143855119564" fill="red" stroke="none" /><path d="M 83.06392112726016 112.41649034213515 l -34.500049051584 25.29331193312292 a63.77855786615486,63.77855786615486 0 0,0 -0.6414914397368363,-0.8909755033676097 l 34.930320283696446 -24.69570282430417" fill="red" stroke="none" /><path d="M 82.6465618267979 111.8261652097733 l -3.1340459648803516 2.1358156801995456 a24.792618189294707,24.792618189294707 0 0,0 -0.237297107846937,-0.3547269793367801 l 3.170346178138019 -2.0815517866569446" fill="red" stroke="none" /><path d="M 82.05923443525364 110.91462005526583 l -30.12244284863015 18.325584693849457 a56.25887998136695,56.25887998136695 0 0,0 -0.4962009754450981,-0.8316613762727684 l 30.433424699773482 -17.804361223690577" fill="red" stroke="none" /><line stroke="#e1ed5e" stroke-width="0.3" x1="26.63291911575756" x2="22.317208475507996" y1="142.92168965132927" y2="145.44649492493687" /><path d="M 25.769776987707644 143.4266507060508 a86.0,86.0 0 0,1 -11.730757126820373,-40.83630448921669" fill="none" id="id57" stroke="none" /><text fill="#e1ed5e" style="font-size:6.75px; font-family:Arial;" text-anchor="middle"><textPath startOffset="21.46611528233685" xlink:href="#id57">September</textPath></text><path d="M 81.87401531095188 110.60418214915194 l -8.812985552512378 5.155830465483714 a31.210352694084662,31.210352694084662 0 0,0 -0.2672914110195906,-0.46604510517274633 l 8.900428959684346 -5.0033655144526605" fill="red" stroke="none" /><path d="M 81.69416730710424 110.29060199501025 l -5.194081377330711 2.919846645629417 a26.958522114444744,26.958522114444744 0 0,0 -0.2239143915753403,-0.4064696610408322 l 5.243572178357568 -2.8300064661907625" fill="red" stroke="none" /><path d="M 81.51974371655577 109.97397251340807 l -5.69956630301606 3.0761108922259046 a27.476690070070283,27.476690070070283 0 0,0 -0.22105323188669304,-0.41814940864412375 l 5.751672043127639 -2.9775464684956545" fill="red" stroke="none" /><path d="M 81.35079622478065 109.6543875284942 l -55.94761132565806 28.96316258548259 a84.0,84.0 0 0,0 -0.6536853208549331,-1.28978315318926 l 56.437875316299255 -27.995825220590643" fill="red" stroke="none" /><path d="M 81.18737489456691 109.33194174019688 l -23.697911643401106 11.755272301508047 a47.453306846990756,47.453306846990756 0 0,0 -0.356683330888569,-0.7348733077433126 l 23.896748230904397 -11.34561003779945" fill="red" stroke="none" /><path d="M 81.02952815118164 109.00673069616217 l -14.826614929661389 7.0393255830099655 a37.41281861643748,37.41281861643748 0 0,0 -0.2711990785232981,-0.5841386881365221 l 14.945588625024515 -6.783066827594616" fill="red" stroke="none" /><path d="M 80.87730276802145 108.67885076344099 l -13.244263405095607 6.01091907538583 a35.54447184583861,35.54447184583861 0 0,0 -0.2480647255964604,-0.5593204690450432 l 13.345769215423347 -5.782050269848091" fill="red" stroke="none" /><path d="M 80.73074385275274 108.34839909993369 l -7.6501663269466595 3.314432129096393 a29.337296034586693,29.337296034586693 0 0,0 -0.19676806480677952,-0.4651015808565282 l 7.706085372945745 -3.182256022573706" fill="red" stroke="none" /><path d="M 80.58989483394504 108.01547362559985 l -14.519288394270738 5.995793025907068 a36.70857312060904,36.70857312060904 0 0,0 -0.2361539172826574,-0.586114655853753 l 14.620344925810782 -5.744979002210511" fill="red" stroke="none" /><path d="M 80.45479744820244 107.68017299344265 l -14.610344789451688 5.741049507134042 a36.69782864953055,36.69782864953055 0 0,0 -0.22596377004197662,-0.5899201000226892 l 14.707002839087174 -5.488705840278195" fill="red" stroke="none" /><path d="M 80.32549172779594 107.34259656027581 l -7.485184344864047 2.7934974568730135 a28.989468863332142,28.989468863332142 0 0,0 -0.1704521948079035,-0.4690112338066509 l 7.5321608006771745 -2.6642384260602454" fill="red" stroke="none" /><path d="M 80.20201598880116 107.00284435728193 l -24.665259802868665 8.72447292278384 a47.16278786603976,47.16278786603976 0 0,0 -0.264132204348844,-0.7676918233819656 l 24.811782838160735 -8.298608396312575" fill="red" stroke="none" /><path d="M 79.67330655649465 105.27499134158121 l -3.4540360433312505 0.8963587842125553 a24.568448410537332,24.568448410537332 0 0,0 -0.10270627598908241,-0.41026051841794475 l 3.4689536336153917 -0.8367704263972187" fill="red" stroke="none" /><path d="M 79.50377843672027 104.57218783832718 l -14.786351339084964 3.298460428770803 a36.14978637219108,36.14978637219108 0 0,0 -0.1302527778932357,-0.6084976149346398 l 14.84093815570264 -3.0434489944199994" fill="red" stroke="none" /><path d="M 79.4281124754447 104.21870165774334 l -11.390602910189395 2.335884605754032 a32.62764772208953,32.62764772208953 0 0,0 -0.10809083994629105,-0.5511528641654178 l 11.429123683111353 -2.1394680145206593" fill="red" stroke="none" /><path d="M 79.29508885075956 103.50808413554451 l -11.923954304510874 2.0203049714679318 a33.09389591627948,33.09389591627948 0 0,0 -0.09032781215577065,-0.5624713725186229 l 11.956963871027936 -1.8147543692560952" fill="red" stroke="none" /><line stroke="#e1ed5e" stroke-width="0.3" x1="15.007084014347285" x2="10.007500721073583" y1="101.09737516637583" y2="101.16192664675087" /><path d="M 14.007167355692545 101.11028546245083 a86.0,86.0 0 0,1 10.666146001902534,-42.60595125391555" fill="none" id="id58" stroke="none" /><text fill="#e1ed5e" style="font-size:6.75px; font-family:Arial;" text-anchor="middle"><textPath startOffset="22.20632615414155" xlink:href="#id58">October</textPath></text><path d="M 80.803312248108 91.48605970444005 l -3.4574902934117917 -1.5334346378418722 a24.78228250102633,24.78228250102633 0 0,0 0.17630550409585755,-0.38846580809505454 l 3.430582472352582 1.5927224547789975" fill="red" stroke="none" /><path d="M 80.95270993114464 91.15688171328213 l -14.397379333588143 -6.684296191501135 a36.87338487062377,36.87338487062377 0 0,0 0.27223410426236866,-0.573394451928945 l 14.280187035484023 6.931133059070612" fill="red" stroke="none" /><path d="M 81.10775173730289 90.83032412892265 l -21.753937208167045 -10.558645553717865 a45.18095903776194,45.18095903776194 0 0,0 0.34561279402754597,-0.696734303180971 l 21.568964401186086 10.931539445397798" fill="red" stroke="none" /><path d="M 81.26839172434947 90.50648371742162 l -3.866919080778762 -1.9598242028425765 a25.335201735022075,25.335201735022075 0 0,0 0.20049864463553244,-0.3872995639990172 l 3.8326110029831155 2.026096489101929" fill="red" stroke="none" /><path d="M 81.43458229118936 90.18545643968196 l -3.724855550183229 -1.969131943409839 a25.213315734702043,25.213315734702043 0 0,0 0.2061391477855146,-0.3819445337357765 l 3.6904083031792427 2.0329574604780882" fill="red" stroke="none" /><path d="M 81.6062741919709 89.86733742301443 l -3.4474726008868126 -1.8991300062187833 a24.935957585440402,24.935957585440402 0 0,0 0.21034354015794374,-0.37417768717805067 l 3.4142714194364383 1.9581912033316184" fill="red" stroke="none" /><line stroke="#e1ed5e" stroke-width="0.3" x1="26.266209847984243" x2="21.928928074336255" y1="57.711370442889674" y2="55.22380399835377" /><path d="M 25.398753493254645 57.213857153982495 a86.0,86.0 0 0,1 29.58750427330803,-30.492523968695096" fill="none" id="id59" stroke="none" /><text fill="#e1ed5e" style="font-size:6.75px; font-family:Arial;" text-anchor="middle"><textPath startOffset="21.46611528233685" xlink:href="#id59">November</textPath></text><path d="M 81.78341655067845 89.55222093294921 l -20.53032095022305 -11.7747797253147 a44.667266760208065,44.667266760208065 0 0,0 0.3882655911871054,-0.6636717534793141 l 20.32459568456562 12.126430891147905" fill="red" stroke="none" /><path d="M 81.96595687620814 89.24020034530311 l -12.154253939880592 -7.251692615334509 a35.153195208941334,35.153195208941334 0 0,0 0.31451095331051077,-0.5169733121554169 l 12.027627188283864 7.459833700697001" fill="red" stroke="none" /><path d="M 82.15384107792192 88.93136811851018 l -7.424162782598622 -4.60465051486118 a29.73618906540683,29.73618906540683 0 0,0 0.2735338628690075,-0.4326648817595181 l 7.343801323483652 4.7317630443349135" fill="red" stroke="none" /><path d="M 82.34701348167596 88.62581576622439 l -6.599439210763607 -4.252155143545329 a28.85069559092334,28.85069559092334 0 0,0 0.2725750036906479,-0.415150430916962 l 6.525267571715039 4.365123638439958" fill="red" stroke="none" /><path d="M 82.54541684631803 88.32363383020206 l -13.165861027584025 -8.807395338244712 a36.84014233653822,36.84014233653822 0 0,0 0.3571310314762109,-0.5240457210366639 l 13.012305530439074 9.032719082551791" fill="red" stroke="none" /><path d="M 82.7489923806493 88.02491185347247 l -12.636562352106436 -8.771890394728215 a36.382742576530326,36.382742576530326 0 0,0 0.3615532967926672,-0.5113914978020088 l 12.48369643550989 8.98810839286201" fill="red" stroke="none" /><path d="M 82.95767976084542 87.72973835380427 l -3.487035008827836 -2.5106224579361927 a25.29681722663235,25.29681722663235 0 0,0 0.25747026789240535,-0.35118915605433715 l 3.4433021284217973 2.57027405766203" fill="red" stroke="none" /><path d="M 83.17141714833178 87.43820079747576 l -6.160675434972325 -4.598674080175112 a28.687764636794356,28.687764636794356 0 0,0 0.29879544510737643,-0.39317978135292037 l 6.08060404964084 4.704038637409059" fill="red" stroke="none" /><path d="M 83.39014120810768 87.1503855733568 l -3.063445846150644 -2.369923696109451 a24.873143268416328,24.873143268416328 0 0,0 0.26489414260870714,-0.3363886606917042 l 3.022197622947966 2.4223047507542033" fill="red" stroke="none" /><path d="M 83.84228863543731 86.58626213691792 l -7.8261644192599435 -6.497090808514645 a31.17157994076514,31.17157994076514 0 0,0 0.3462856552865793,-0.4098929917410889 l 7.71316815048624 6.63084274988485" fill="red" stroke="none" /><path d="M 84.07557802195018 86.31012108654704 l -5.257380221112803 -4.519655327409944 a27.933060728706565,27.933060728706565 0 0,0 0.3165855108860178,-0.36191196628188277 l 5.178802846648942 4.6094828498947695" fill="red" stroke="none" /><path d="M 84.5562425177563 85.77008943001954 l -7.060194592760319 -6.505278121412398 a30.600259950885125,30.600259950885125 0 0,0 0.36025639124083497,-0.3842964000252468 l 6.947170879549028 6.625843938315695" fill="red" stroke="none" /><path d="M 84.80347519578584 85.50635884689758 l -5.27633136570568 -5.0322856313958075 a28.291335361693513,28.291335361693513 0 0,0 0.33914000657609145,-0.3495135880248662 l 5.18892709542647 5.122363414970797" fill="red" stroke="none" /><path d="M 85.31137513191541 84.99185889309783 l -2.9599513282064818 -3.024338057663137 a25.231776524390312,25.231776524390312 0 0,0 0.3130143132395362,-0.30111952133551523 l 2.907453771354518 3.074840665760966" fill="red" stroke="none" /><path d="M 86.10567301691215 84.25364557470407 l -4.920002983813156 -5.575808806783837 a28.43613294734155,28.43613294734155 0 0,0 0.3698135357344657,-0.3206986539858321 l 4.823295649431916 5.65967245418935" fill="red" stroke="none" /><path d="M 86.37877921826538 84.01681056812374 l -9.100836611262451 -10.678954396027246 a35.03086932507479,35.03086932507479 0 0,0 0.4623114955816559,-0.3871725821827838 l 8.915667578721687 10.834028135603841" fill="red" stroke="none" /><path d="M 86.65592168130627 83.78471172551755 l -13.78241725625494 -16.747943439172847 a42.689827912347454,42.689827912347454 0 0,0 0.5714269305727235,-0.46205417111047364 l 13.492086927117715 16.982703707547454" fill="red" stroke="none" /><path d="M 86.93701828274178 83.55741782278169 l -4.545271660059091 -5.721205495493056 a28.306961528939116,28.306961528939116 0 0,0 0.3841220237191532,-0.2998133323553777 l 4.446117081180512 5.798597217071656" fill="red" stroke="none" /><path d="M 87.22198572758235 83.33499621200491 l -2.245373784776726 -2.9284020060567006 a24.69015470440461,24.69015470440461 0 0,0 0.3394941492951054,-0.25569995479723756 l 2.1946334817232307 2.9666185503597924" fill="red" stroke="none" /><path d="M 87.51073957382395 83.11751280151077 l -2.308408976269514 -3.120415754088014 a24.88146189986226,24.88146189986226 0 0,0 0.3465095270752215,-0.25175390777917417 l 2.2543541328405112 3.1596888966838566" fill="red" stroke="none" /><path d="M 87.80319425747018 82.90503203632743 l -8.639904487217335 -12.109637025959218 a35.875861603575125,35.875861603575125 0 0,0 0.5057964505440383,-0.35434273692783663 l 8.430176897089636 12.256564605650999" fill="red" stroke="none" /><path d="M 88.09926311788651 82.69761687909137 l -8.261966629997682 -12.012005086780391 a35.579038335913424,35.579038335913424 0 0,0 0.507586326808068,-0.34272455367735233 l 8.053975608783075 12.15244155275641" fill="red" stroke="none" /><path d="M 88.39885842347998 82.49532879139004 l -8.284701445999792 -12.500577974777508 a35.99669056001502,35.99669056001502 0 0,0 0.5194373429678107,-0.33785649695596526 l 8.068297077247694 12.641333395893009" fill="red" stroke="none" /><path d="M 89.00827224532344 82.1063720568725 l -5.36436199534157 -8.73273973293743 a31.248762015984617,31.248762015984617 0 0,0 0.46075248113742306,-0.27759821449060207 l 5.213247447986498 8.82378455688665" fill="red" stroke="none" /><line stroke="#e1ed5e" stroke-width="0.3" x1="56.762969772571076" x2="54.21961505331055" y1="26.818313649435495" y2="22.513508569990535" /><path d="M 56.25429882871897 25.957352633546506 a86.0,86.0 0 0,1 42.265352541879196,-11.944610805530505" fill="none" id="id60" stroke="none" /><text fill="#e1ed5e" style="font-size:6.75px; font-family:Arial;" text-anchor="middle"><textPath startOffset="22.20632615414155" xlink:href="#id60">December</textPath></text><path d="M 89.3179101791058 81.91981866633112 l -2.241345090354167 -3.793632738948408 a25.406277019443504,25.406277019443504 0 0,0 0.37843649845586547,-0.219214846291426 l 2.1757118594329814 3.8316517426298815" fill="red" stroke="none" /><path d="M 89.94658935756843 81.56283822128135 l -5.997497831505643 -10.998937745592684 a33.52783348270316,33.52783348270316 0 0,0 0.5090721802444782,-0.27192872840053744 l 5.807280604732859 11.10054520049497" fill="red" stroke="none" /><path d="M 90.26544431104013 81.39251694778311 l -1.6461370872231182 -3.14657072503765 a24.55115117076074,24.55115117076074 0 0,0 0.3761464479435768,-0.19267682024400043 l 1.5917301516907776 3.1744400705941556" fill="red" stroke="none" /><path d="M 90.58718382345135 81.22770947309562 l -4.90236072916612 -9.776940094174558 a31.937170489845542,31.937170489845542 0 0,0 0.4935490225876946,-0.2421823619239094 l 4.733340439568 9.859877616233296" fill="red" stroke="none" /><path d="M 90.91171255644093 81.06846463323043 l -5.888759569829835 -12.266696091533197 a34.606958597471305,34.606958597471305 0 0,0 0.5392452806545216,-0.25318288975709724 l 5.676736077875705 12.366243963930302" fill="red" stroke="none" /><path d="M 91.23893434514133 80.91482961587045 l -1.408639451387841 -3.068590625688833 a24.376464649907003,24.376464649907003 0 0,0 0.3828473300048519,-0.17177243724136929 l 1.3556100029162148 3.0923833934467315" fill="red" stroke="none" /><path d="M 91.56875222667455 80.76684994638697 l -6.43901835745502 -14.68852649055234 a37.037885392759875,37.037885392759875 0 0,0 0.5861090901483426,-0.2509413246162906 l 6.1852255095163695 14.797187343131416" fill="red" stroke="none" /><path d="M 91.90106846888425 80.62456947434976 l -11.536804501516292 -27.600005414089843 a50.91417986447222,50.91417986447222 0 0,0 0.8115141555865397,-0.33103699997071456 l 11.060006476341371 27.794503300244134" fill="red" stroke="none" /><path d="M 92.57280143429618 80.3572730644239 l -1.580537138453989 -4.180049738477213 a25.46888279799054,25.46888279799054 0 0,0 0.4114045327573983,-0.15152376140022414 l 1.5083502799240214 4.20663676768376" fill="red" stroke="none" /><path d="M 92.91201910852362 80.23233633223022 l -1.51216021647172 -4.217262296367255 a25.48017073297889,25.48017073297889 0 0,0 0.4141352767002707,-0.14448366628140744 l 1.439342935708164 4.242666815820872" fill="red" stroke="none" /><path d="M 93.25333710446033 80.11325718540243 l -6.76337445965102 -19.93600251271171 a42.052017249382715,42.052017249382715 0 0,0 0.6874847562415045,-0.22665291523067072 l 6.419206881167106 20.049469152201617" fill="red" stroke="none" /><path d="M 93.94186890950719 79.89281104454417 l -1.1341526412776906 -3.7642997686675597 a24.931444386241246,24.931444386241246 0 0,0 0.4119740518242955,-0.12026652279984587 l 1.0691883717299737 3.7832646203861047" fill="red" stroke="none" /><path d="M 94.98787191387505 79.60689891045804 l -2.920231388559776 -11.88169433989768 a33.23529369281695,33.23529369281695 0 0,0 0.556732813236976,-0.13176066957741617 l 2.715274888360266 11.930200921615967" fill="red" stroke="none" /><path d="M 95.692805502759 79.44645832069477 l -3.096444420713434 -14.775952072643216 a36.09691119744753,36.09691119744753 0 0,0 0.6092360877551075,-0.12220702780813125 l 2.8416419234911903 14.827063056528559" fill="red" stroke="none" /><path d="M 96.04723909329186 79.375362276772 l -2.544777702879642 -13.2780907944545 a34.51974810056943,34.51974810056943 0 0,0 0.5845424210886486,-0.10682139115282585 l 2.3158401606881003 13.319927666958062" fill="red" stroke="none" /><path d="M 96.40284397218896 79.31037775812273 l -2.344013231718191 -13.481969622463913 a34.68422094718986,34.68422094718986 0 0,0 0.5890880295089761,-0.09720457236999015 l 2.111595996070329 13.52032045777353" fill="red" stroke="none" /><path d="M 96.75951476605007 79.25152402106235 l -1.3428415865056456 -8.598069236430133 a29.70229958809137,29.70229958809137 0 0,0 0.5058316040620401,-0.07454642959027596 l 1.1946410020149567 8.619910150181378" fill="red" stroke="none" /><path d="M 98.91598698831166 79.02799685794201 l -1.0703923890994338 -20.708489940047272 a41.73613501749256,41.73613501749256 0 0,0 0.7177803705811616,-0.030909132648346323 l 0.7137711861289481 20.72384679921981" fill="red" stroke="none" /><path d="M 99.27714615592234 79.0124445844662 l -0.5163698559317633 -14.99243734410403 a36.001327119458466,36.001327119458466 0 0,0 0.6195200342194552,-0.016000374721752888 l 0.25822318651742915 14.999104510968142" fill="red" stroke="none" /><path d="M 99.63851952072746 79.00311137660856 l -0.13891178188550007 -8.068804209279612 a29.069999866842316,29.069999866842316 0 0,0 0.5003922611580338,-0.004307034171262029 l 1.9765799012096017e-15 8.069999866842316" fill="red" stroke="none" /></svg>