<?xml version="1.0" encoding="utf-8" ?>
<svg baseProfile="full" height="200mm" version="1.1" viewBox="0,0,200,200" width="200mm" xmlns="http://www.w3.org/2000/svg" xmlns:ev="http://www.w3.org/2001/xml-events" xmlns:xlink="http://www.w3.org/1999/xlink"><defs /><rect fill="#1a1a1a" height="200" width="200" x="0" y="0" /><text alignment-baseline="middle" fill="#e1ed5e" style="dominant-baseline: central; font-size:9.0px; font-family:Arial;" text-anchor="middle" x="100.0" y="100.0">2023</text><line stroke="#e1ed5e" stroke-width="0.3" x1="100.0" x2="100.0" y1="15.0" y2="10.0" /><path d="M 100.0 14.0 a86.0,86.0 0 0,1 42.46469731375804,11.215312516191453" fill="none" id="id49" stroke="none" /><text fill="#e1ed5e" style="font-size:6.75px; font-family:Arial;" text-anchor="middle"><textPath startOffset="22.20632615414155" xlink:href="#id49">January</textPath></text><line stroke="#e1ed5e" stroke-width="0.3" x1="143.23703022742887" x2="145.7803849466894" y1="26.81831364943548" y2="22.513508569990506" /><path d="M 143.74570117128098 25.957352633546492 a86.0,86.0 0 0,1 28.547481713284135,27.462654790039103" fill="none" id="id50" stroke="none" /><text fill="#e1ed5e" style="font-size:6.75px; font-family:Arial;" text-anchor="middle"><textPath startOffset="19.985693538727396" xlink:href="#id50">February</textPath></text><line stroke="#e1ed5e" stroke-width="0.3" x1="172.23445277983987" x2="176.4835382374775" y1="55.19839476539836" y2="52.563006222186495" /><path d="M 173.08426987136738 54.67131705675599 a86.0,86.0 0 0,1 12.851231095245387,41.99856678651699" fill="none" id="id51" stroke="none" /><text fill="#e1ed5e" style="font-size:6.75px; font-family:Arial;" text-anchor="middle"><textPath startOffset="22.20632615414155" xlink:href="#id51">March</textPath></text><line stroke="#e1ed5e" stroke-width="0.3" x1="184.98032266829074" x2="189.97916517819016" y1="98.17113171792111" y2="98.06355123074" /><path d="M 185.9800911702706 98.14961562048488 a86.0,86.0 0 0,1 -9.607161424134198,41.387399972396054" fill="none" id="id52" stroke="none" /><text fill="#e1ed5e" style="font-size:6.75px; font-family:Arial;" text-anchor="middle"><textPath startOffset="21.466115282336823" xlink:href="#id52">April</textPath></text><path d="M 119.9155931802556 106.66101706037122 l 2.712312677139996 0.9071666031721373 a23.859998479804702,23.859998479804702 0 0,0 -0.1336264092812194,0.3883808945069068 l -2.6962954369155456 -0.9537202007683445" fill="red" stroke="none" /><path d="M 119.79798401119884 107.00284435728193 l 3.9275035474641493 1.3892170051256958 a25.16595823342888,25.16595823342888 0 0,0 -0.14797072811353476,0.40715189286948356 l -3.903008558345388 -1.4566166950013104" fill="red" stroke="none" /><path d="M 119.41010516605496 108.01547362559984 l 11.635930580526576 4.8050999146893165 a33.58903751940476,33.58903751940476 0 0,0 -0.22528490368108964,0.5325069642173744 l -11.551494695653178 -5.004681404572854" fill="red" stroke="none" /><path d="M 119.26925614724726 108.34839909993367 l 11.730422560733274 5.082201845236108 a33.78403649279372,33.78403649279372 0 0,0 -0.23577865437061615,0.5316186218588299 l -11.641202821631385 -5.283368803587626" fill="red" stroke="none" /><path d="M 119.12269723197855 108.67885076344098 l 2.3345079436476466 1.059518215615712 a23.563689955547563,23.563689955547563 0 0,0 -0.17080913010241167,0.3679076703470205 l -2.3159241967054034 -1.099545953241563" fill="red" stroke="none" /><line stroke="#e1ed5e" stroke-width="0.3" x1="174.80103733775053" x2="179.2010983576182" y1="140.37084112569926" y2="142.7455964860345" /><path d="M 175.68104954172406 140.8457921977663 a86.0,86.0 0 0,1 -30.038265399797805,32.042727171017184" fill="none" id="id53" stroke="none" /><text fill="#e1ed5e" style="font-size:6.75px; font-family:Arial;" text-anchor="middle"><textPath startOffset="22.206326154141568" xlink:href="#id53">May</textPath></text><path d="M 118.30583269289576 110.29060199501025 l 3.7129165221628115 2.0872115904950435 a25.259366305455124,25.259366305455124 0 0,0 -0.21632602897580702,0.37718266569456665 l -3.676438497034625 -2.1508141020479252" fill="red" stroke="none" /><path d="M 118.12598468904814 110.60418214915192 l 2.105718193011668 1.2319010336012473 a23.439596127429322,23.439596127429322 0 0,0 -0.20673626041474685,0.3465018639025972 l -2.084201056898694 -1.2679649913899484" fill="red" stroke="none" /><path d="M 117.94076556474637 110.91462005526583 l 3.236893407542138 1.9692282124314473 a24.788843977313622,24.788843977313622 0 0,0 -0.2249119675920047,0.36262970528783756 l -3.2025168002821705 -2.0246542490845583" fill="red" stroke="none" /><path d="M 117.75023020441432 111.22182372390056 l 9.199501873060944 5.815991521141465 a31.88377655441535,31.88377655441535 0 0,0 -0.29727087554892156,0.4613710003722679 l -9.098026134134972 -5.9734841214351855" fill="red" stroke="none" /><path d="M 117.35343817320211 111.8261652097733 l 2.4679412196565647 1.681873084766487 a23.986541634891747,23.986541634891747 0 0,0 -0.23545542537782072,0.33919110135218844 l -2.4386248871166076 -1.724105448305695" fill="red" stroke="none" /><path d="M 117.14729908036423 112.12312394758627 l 2.2315754675796846 1.5777217079534744 a23.732971799205238,23.732971799205238 0 0,0 -0.23870872528438541,0.3315455413648962 l -2.204086949919696 -1.6159008547695017" fill="red" stroke="none" /><path d="M 116.93607887273984 112.41649034213515 l 27.474808372166702 20.142837983242895 a55.0675654707884,55.0675654707884 0 0,0 -0.5670352668375415,0.7596364035078556 l -27.12401183863407 -20.612787266260064" fill="red" stroke="none" /><path d="M 116.71984013943494 112.70617746262583 l 3.4185918603723127 2.597945583685873 a25.293727001521727,25.293727001521727 0 0,0 -0.2664190466611368,0.3443825314584226 l -3.3733659964931078 -2.6564061092575484" fill="red" stroke="none" /><path d="M 116.498646956653 112.99209946851258 l 8.732362187427954 6.876425590062896 a32.114826956282016,32.114826956282016 0 0,0 -0.34574224439396656,0.43136661018181305 l -8.612702030979133 -7.025720033822958" fill="red" stroke="none" /><path d="M 116.27256486870786 113.27417163493432 l 11.109998614535732 9.06286314807239 a35.33762733703434,35.33762733703434 0 0,0 -0.388552357447262,0.46803634495737095 l -10.952350257194926 -9.252760750143532" fill="red" stroke="none" /><path d="M 116.0416608686014 113.55231037782055 l 11.813052606230345 9.979899010489026 a36.46436536483555,36.46436536483555 0 0,0 -0.4091952777129219,0.47598655290679187 l -11.639514818946644 -10.181762662557347" fill="red" stroke="none" /><path d="M 115.80600337817218 113.82643327865902 l 9.803610694576795 8.57579021814616 a34.025166429511444,34.025166429511444 0 0,0 -0.3894117924083582,0.43750827689685834 l -9.6545400525201 -8.743272664783886" fill="red" stroke="none" /><path d="M 114.55890576462653 115.13401014063108 l 2.3001189289800563 2.39097798684973 a24.317728563498278,24.317728563498278 0 0,0 -0.30416170869724285,0.28760388038987295 l -2.2586213858920057 -2.430216503985524" fill="red" stroke="none" /><path d="M 114.29624159901734 115.38237550388516 l 15.403703794313207 16.57397535384635 a43.626770640390674,43.626770640390674 0 0,0 -0.5544764161536221,0.5065010596473971 l -15.116127828692722 -16.83666918008033" fill="red" stroke="none" /><path d="M 114.0293411484842 115.62618273729858 l 6.21754439736833 6.925235041493144 a30.306811414935346,30.306811414935346 0 0,0 -0.3911853806207688,0.34517561605352237 l -6.097416663840974 -7.031233799318955" fill="red" stroke="none" /><path d="M 112.92097659922987 116.55440617244103 l 1.7955762213996254 2.300499335661514 a23.91828565432427,23.91828565432427 0 0,0 -0.3267366199005634,0.2505277073755288 l -1.7557108730055684 -2.3310663848644144" fill="red" stroke="none" /><path d="M 112.34349029814194 116.9893568818739 l 2.0002273557313215 2.7530767692604523 a24.402990034081423,24.402990034081423 0 0,0 -0.3419587183717228,0.2439784659911298 l -1.952541309510714 -2.7870994970958014" fill="red" stroke="none" /><path d="M 111.7513745106137 117.40417183066458 l 4.47222761873986 6.623516072276682 a28.99198254712353,28.99198254712353 0 0,0 -0.41600085119703334,0.27570268034031087 l -4.357552068802862 -6.699516773708311" fill="red" stroke="none" /><path d="M 111.1453310114006 117.79835938074945 l 9.204213767463127 14.698523021252454 a38.342552582692264,38.342552582692264 0 0,0 -0.5623954153884949,0.3454691980897492 l -8.949839152142323 -14.85478068617058" fill="red" stroke="none" /><line stroke="#e1ed5e" stroke-width="0.3" x1="143.8653032363475" x2="146.44561519142675" y1="172.8068346515853" y2="177.08958963109032" /><path d="M 144.38136562736335 173.6633856474863 a86.0,86.0 0 0,1 -40.68145358897372,12.25698825130547" fill="none" id="id54" stroke="none" /><text fill="#e1ed5e" style="font-size:6.75px; font-family:Arial;" text-anchor="middle"><textPath startOffset="21.466115282336833" xlink:href="#id54">June</textPath></text><path d="M 110.8373102113329 117.98757091392108 l 19.67444148591001 32.65528110928464 a59.12415287070519,59.12415287070519 0 0,0 -0.8762540938853794,0.5177063638946608 l -19.109419520996248 -32.989106045473044" fill="red" stroke="none" /><path d="M 110.5260780823613 118.17145234162733 l 5.144311466792891 8.880763558647658 a31.263133140127387,31.263133140127387 0 0,0 -0.4679811644050366,0.2657319187073226 l -4.990681535466655 -8.96799864314961" fill="red" stroke="none" /><path d="M 110.21172684928248 118.3499491758327 l 3.7358285366369763 6.713092191819708 a28.6825791002125,28.6825791002125 0 0,0 -0.43348553824669084,0.23637087833007636 l -3.619720186521637 -6.776403721909555" fill="red" stroke="none" /><path d="M 109.89434966115114 118.52300852407294 l 8.006520132322839 14.988841686227936 a37.99322628943943,37.99322628943943 0 0,0 -0.5795036201369982,0.30316890502315363 l -7.747325609659345 -15.124440010195807" fill="red" stroke="none" /><path d="M 109.57404056367764 118.69057910512821 l 9.629511110134102 18.79886950035409 a42.12167083143612,42.12167083143612 0 0,0 -0.6481644443357919,0.32500310806310795 l -9.304492758115549 -18.961840449326502" fill="red" stroke="none" /><path d="M 109.2508944713604 118.85261126421891 l 17.521450328305026 35.707367849400974 a60.774581585978936,60.774581585978936 0 0,0 -0.9431269641169934,0.45275825650738044 l -16.9042106961878 -36.003680382407914" fill="red" stroke="none" /><path d="M 108.92500713936063 119.00905698771935 l 5.294867333789845 11.277350630515594 a33.45850140771454,33.45850140771454 0 0,0 -0.5234375488616703,0.24028450569185367 l -5.099961789160755 -11.366822206541523" fill="red" stroke="none" /><path d="M 108.59647513512805 119.15986991738527 l 5.207595933461778 11.606717765018695 a33.72143673816005,33.72143673816005 0 0,0 -0.5316414535638698,0.2330559897402691 l -5.007033805240154 -11.694638308053419" fill="red" stroke="none" /><path d="M 108.2653958097858 119.30500536409082 l 8.505381539345104 19.865526106601713 a42.60973490401737,42.60973490401737 0 0,0 -0.676741080654143,0.28287782659875854 l -8.162168999193499 -20.008988976220444" fill="red" stroke="none" /><path d="M 107.93186726928326 119.44442032107085 l 12.167290596477994 29.827265698548334 a53.213486919471165,53.213486919471165 0 0,0 -0.8511089869796286,0.3386738308068427 l -11.652060533456497 -30.032286373761245" fill="red" stroke="none" /><path d="M 107.59598834532513 119.57807347666477 l 9.255138253368104 23.854404262303525 a46.58691436649527,46.58691436649527 0 0,0 -0.7501153842953823,0.2836294535185218 l -8.843152648312447 -24.010181965928677" fill="red" stroke="none" /><path d="M 107.2578585660854 119.70592522655815 l 9.800511473923185 26.609521875998887 a49.35695116932995,49.35695116932995 0 0,0 -0.7997716680893486,0.2867696656638363 l -9.341020245204103 -26.774279082702684" fill="red" stroke="none" /><path d="M 106.91757812671514 119.82793768551818 l 9.245536083726213 26.500591678085456 a49.0670856478562,49.0670856478562 0 0,0 -0.799864215896313,0.27135736994076165 l -8.788002134892672 -26.65581203492434" fill="red" stroke="none" /><path d="M 106.2309692047433 120.05430185196036 l 6.839389943418848 22.01249691687958 a44.05053741919637,44.05053741919637 0 0,0 -0.7260473042923928,0.21875209692644365 l -6.459467664686208 -22.12696438291175" fill="red" stroke="none" /><path d="M 105.88484417918355 120.15858648285463 l 0.81688568659939 2.7982492413596094 a23.915047348112992,23.915047348112992 0 0,0 -0.3961571231291006,0.11195796010283042 l -0.7685973953656836 -2.811895994800959" fill="red" stroke="none" /><path d="M 105.53697534728816 120.25689768951611 l 2.4362425437347217 8.912937634705422 a30.23989908018758,30.23989908018758 0 0,0 -0.5032920827114937,0.13292401339466228 l -2.2824600182117303 -8.953552997403667" fill="red" stroke="none" /><path d="M 105.18746579009965 120.34920634021253 l 0.7597692814888235 2.9803959207746553 a24.075712796355383,24.075712796355383 0 0,0 -0.4024618997441141,0.09891534310773094 l -0.7083540970014983 -2.993032522196416" fill="red" stroke="none" /><path d="M 104.83641907484287 120.43548508189849 l 1.2477735969604942 5.272259978236369 a26.417902198026898,26.417902198026898 0 0,0 -0.4434180104816429,0.10092049554052325 l -1.1568354370859892 -5.2929572073545765" fill="red" stroke="none" /><path d="M 104.48393922423573 120.51570834832081 l 6.1180436374947105 27.992350621240863 a49.653135103383946,49.653135103383946 0 0,0 -0.8365572936370439,0.17530871457585495 l -5.635294882428288 -28.09351531654326" fill="red" stroke="none" /><path d="M 104.13013068566511 120.58985236759428 l 2.43070593701947 12.117746434991126 a33.35913063346293,33.35913063346293 0 0,0 -0.5639796059339274,0.10808803376001233 l -2.2217587165138384 -12.157791667099607" fill="red" stroke="none" /><path d="M 103.7750983002368 120.6578951692458 l 3.268039000133802 17.883191828285913 a39.17934621689316,39.17934621689316 0 0,0 -0.6644649739142451,0.11552575287465064 l -2.959725054747507 -17.93679615968157" fill="red" stroke="none" /><path d="M 103.41894727170886 120.7198165907248 l 3.0392152521617213 18.418529915803468 a39.667594210511425,39.667594210511425 0 0,0 -0.6746591442345286,0.10536788326335594 l -2.721720244318676 -18.468116106413927" fill="red" stroke="none" /><path d="M 103.06178313531738 120.77559828337769 l 0.7246516704760052 4.917092862498734 a25.970203442713352,25.970203442713352 0 0,0 -0.4428184444712855,0.06137060143286469 l -0.6399046348178893 -4.928838029424201" fill="red" stroke="none" /><path d="M 102.70371172650421 120.8252237178851 l 3.3404922331859015 25.72999828421083 a46.94593802631671,46.94593802631671 0 0,0 -0.802267131274975,0.09714337692504929 l -2.8970976788595464 -25.78368718986123" fill="red" stroke="none" /><path d="M 102.34483914955558 120.86867818915974 l 0.7951883501342768 7.077043976285632 a28.12157819268103,28.12157819268103 0 0,0 -0.48150489762356324,0.0499099513934283 l -0.6732508559051109 -7.089683296134819" fill="red" stroke="none" /><line stroke="#e1ed5e" stroke-width="0.3" x1="102.19456741930631" x2="102.32365962044197" y1="184.97166512339345" y2="189.96999836594603" /><path d="M 102.22038585953345 185.97133177190398 a86.0,86.0 0 0,1 -42.740103519485714,-10.115201625700543" fill="none" id="id55" stroke="none" /><text fill="#e1ed5e" style="font-size:6.75px; font-family:Arial;" text-anchor="middle"><textPath startOffset="22.20632615414155" xlink:href="#id55">July</textPath></text><path d="M 100.54218724476979 120.99299961872073 l 0.06649841647896158 2.5747585271599225 a23.57561711296088,23.57561711296088 0 0,0 -0.40577039810858595,0.006985705387772925 l -0.02216832847770767 -2.5755217098268552" fill="red" stroke="none" /><path d="M 99.81925306533755 120.99922214144158 l -0.022955169388769982 2.6669370752507087 a23.667035864616086,23.667035864616086 0 0,0 -0.40734384677277086,-0.007012793733453181 l 0.06885870605420877 -2.666146804238096" fill="red" stroke="none" /><path d="M 98.73552117531835 120.96189622390904 l -0.627482140235322 10.40208443923976 a31.420992971756014,31.420992971756014 0 0,0 -0.5395990551866062,-0.037213910102368616 l 0.8064439562008583 -10.389742184621106" fill="red" stroke="none" /><path d="M 98.01472825383883 120.90594882070398 l -0.9676021249282397 10.18935596180691 a31.235195591124562,31.235195591124562 0 0,0 -0.5348170558674799,-0.05543597457566906 l 1.142851777401313 -10.17119061877548" fill="red" stroke="none" /><path d="M 97.2962882734958 120.8252237178851 l -2.808106560914255 21.629320456553327 a42.81084514340804,42.81084514340804 0 0,0 -0.7299685539515489,-0.10116699008906804 l 3.180003706052635 -21.577778900971655" fill="red" stroke="none" /><path d="M 96.93821686468263 120.77559828337769 l -3.65024802494624 24.76860157932619 a46.03613258550577,46.03613258550577 0 0,0 -0.7829740732240938,-0.12228444756250342 l 4.076057961778851 -24.70209882441658" fill="red" stroke="none" /><path d="M 96.22490169976321 120.6578951692458 l -3.0935288732649022 16.92824665332103 a38.20858668355418,38.20858668355418 0 0,0 -0.6459659844812575,-0.12380091833783043 l 3.3844624723178547 -16.87248853663473" fill="red" stroke="none" /><path d="M 95.86986931433489 120.58985236759428 l -0.5403356202967591 2.6937236367548856 a23.747382320277513,23.747382320277513 0 0,0 -0.4000965063626193,-0.08384411297375481 l 0.5866235880887651 -2.6840235430545896" fill="red" stroke="none" /><path d="M 94.81253420990036 120.34920634021253 l -8.370830202139423 32.83679505844919 a54.886957785904045,54.886957785904045 0 0,0 -0.9135007767226574,-0.24126385781181317 l 8.93482142167357 -32.6878398513338" fill="red" stroke="none" /><path d="M 94.46302465271185 120.25689768951611 l -6.112384714622383 22.362019701552434 a44.1823461287284,44.1823461287284 0 0,0 -0.7318886256284943,-0.20683903624049516 l 6.496404508355492 -22.253491871973416" fill="red" stroke="none" /><path d="M 94.11515582081647 120.15858648285463 l -5.427047684065898 18.590400485505587 a40.36635837674733,40.36635837674733 0 0,0 -0.6653241345193269,-0.20045670399357607 l 5.74624679302547 -18.494228412406287" fill="red" stroke="none" /><path d="M 93.76903079525671 120.05430185196036 l -3.5775907532609432 11.514434193329166 a33.057418894204766,33.057418894204766 0 0,0 -0.5419506529362929,-0.1735154848326582 l 3.7752627512881762 -11.451145861836801" fill="red" stroke="none" /><path d="M 92.40401165467489 119.57807347666478 l -8.611155322313488 22.194587979190832 a44.80654808137984,44.80654808137984 0 0,0 -0.7166464359929813,-0.2851684067784628 l 8.991922834348328 -22.0430727280063" fill="red" stroke="none" /><path d="M 92.06813273071674 119.44442032107085 l -8.174830800038572 20.040028499361085 a42.64325763059858,42.64325763059858 0 0,0 -0.6772734990384405,-0.2831003775265763 l 8.518575758574475 -19.896343078814535" fill="red" stroke="none" /><path d="M 90.42595943632237 118.69057910512821 l -4.752573915571581 9.27804286300604 a31.424444262921103,31.424444262921103 0 0,0 -0.479311208593462,-0.25075297068938335 l 4.911576026691538 -9.19486047337194" fill="red" stroke="none" /><path d="M 90.10565033884886 118.52300852407294 l -5.447867842028133 10.198841352062109 a32.56268260174672,32.56268260174672 0 0,0 -0.49212631629315784,-0.2683465060958048 l 5.622616970189932 -10.103554194206538" fill="red" stroke="none" /><line stroke="#e1ed5e" stroke-width="0.3" x1="58.666819895761336" x2="56.23545636021788" y1="174.27360380694188" y2="178.64263932499728" /><path d="M 58.180547188652646 175.14741091055294 a86.0,86.0 0 0,1 -31.652253787137756,-30.449443065178592" fill="none" id="id56" stroke="none" /><text fill="#e1ed5e" style="font-size:6.75px; font-family:Arial;" text-anchor="middle"><textPath startOffset="22.20632615414155" xlink:href="#id56">August</textPath></text><path d="M 89.7882731507175 118.34994917583269 l -2.6954738482276857 4.843628198225801 a26.543132091979,26.543132091979 0 0,0 -0.39732696680413687,-0.22561262134824422 l 2.77844958195303 -4.796512411082924" fill="red" stroke="none" /><path d="M 89.4739219176387 118.17145234162733 l -8.9110381029484 15.383365289061915 a38.777922479550675,38.777922479550675 0 0,0 -0.5747112081146151,-0.33954951185819443 l 9.174517182091396 -15.22769720490997" fill="red" stroke="none" /><path d="M 89.1626897886671 117.98757091392108 l -7.691323416318623 12.765919095704948 a35.90386346731932,35.90386346731932 0 0,0 -0.5266255595583261,-0.3234964311160034 l 7.909928175809258 -12.631634197760567" fill="red" stroke="none" /><path d="M 88.54995079064634 117.60387380957326 l -12.798565043128045 19.67714896620602 a44.473249851723594,44.473249851723594 0 0,0 -0.6381388290277886,-0.42292361923283006 l 13.135378570895796 -19.45392732588187" fill="red" stroke="none" /><path d="M 88.24862548938628 117.40417183066458 l -11.36796171007464 16.836324873133666 a41.31483174125305,41.31483174125305 0 0,0 -0.5859684855759956,-0.40303446752508404 l 11.656087080273526 -16.63814961624348" fill="red" stroke="none" /><path d="M 87.95078237400918 117.19931262002967 l -7.362112098936197 10.508837292487208 a33.83106993969219,33.83106993969219 0 0,0 -0.474074254899258,-0.3382393934184723 l 7.541913681684342 -10.380553637224518" fill="red" stroke="none" /><path d="M 87.65650970185807 116.9893568818739 l -20.565234362683796 28.305616767050502 a55.98766646913224,55.98766646913224 0 0,0 -0.7748027308153534,-0.5731805373399803 l 21.049422063917714 -27.947426280970756" fill="red" stroke="none" /><path d="M 87.07902340077011 116.55440617244103 l -16.056710779495386 20.571921169876717 a47.096396335049505,47.096396335049505 0 0,0 -0.6347753382214019,-0.5043039194440806 l 16.408443610434148 -20.292483336427505" fill="red" stroke="none" /><path d="M 86.79598089348748 116.32954008644616 l -2.146553877234824 2.654664258152575 a24.41393261084407,24.41393261084407 0 0,0 -0.3245075176849303,-0.26704759469536843 l 2.191931523464443 -2.6173215446000255" fill="red" stroke="none" /><path d="M 86.24171649860922 115.8653595955263 l -12.470312075783635 14.380135816415017 a40.0341006975895,40.0341006975895 0 0,0 -0.5167404351709213,-0.45596335365815605 l 12.715994863861145 -14.16334932098457" fill="red" stroke="none" /><path d="M 85.97065885151581 115.62618273729859 l -7.9982163034903655 8.908585813688404 a32.97223309317311,32.97223309317311 0 0,0 -0.41906208893579944,-0.38280328237662287 l 8.15037794189302 -8.769589764725204" fill="red" stroke="none" /><path d="M 85.70375840098266 115.38237550388516 l -7.863790856524539 8.461229687625993 a32.55126029755725,32.55126029755725 0 0,0 -0.407145220265962,-0.38498121848478895 l 8.008271911181318 -8.324613832395272" fill="red" stroke="none" /><path d="M 85.44109423537348 115.13401014063109 l -39.23104477323255 40.7807454093295 a77.58749040326781,77.58749040326781 0 0,0 -0.9545110400346117,-0.9341899506172561 l 39.92720576564295 -40.09940535578968" fill="red" stroke="none" /><path d="M 85.18274418774928 114.88116024355367 l -21.0835008134307 21.174430547413106 a50.88093900059291,50.88093900059291 0 0,0 -0.6153186411989578,-0.623314534909165 l 21.444860079685192 -20.808375518523277" fill="red" stroke="none" /><path d="M 84.9287848128048 114.62390073753433 l -10.16070164944328 9.859131496669498 a35.157765779868654,35.157765779868654 0 0,0 -0.41769677286810986,-0.4379533964225213 l 10.328904973690346 -9.682770983664476" fill="red" stroke="none" /><path d="M 84.67929136418377 114.36230785411682 l -17.46303148015974 16.37061575584394 a44.9364685929762,44.9364685929762 0 0,0 -0.5241594949446015,-0.5688716090048348 l 17.74223738310007 -16.067592892037762" fill="red" stroke="none" /><path d="M 84.43433777217949 114.09645910891817 l -23.178880510718006 20.991085154466095 a52.27117135145708,52.27117135145708 0 0,0 -0.5982339739446675,-0.672122211561655 l 23.536773334311015 -20.588988773163578" fill="red" stroke="none" /><path d="M 84.19399662182784 113.82643327865904 l -16.107228465064953 14.089932435664972 a42.40021039306396,42.40021039306396 0 0,0 -0.47580605594763986,-0.5534699366241963 l 16.347377030583374 -13.810585399879246" fill="red" stroke="none" /><path d="M 83.95833913139862 113.55231037782056 l -2.1566853172365072 1.8220101425835615 a23.823298163010932,23.823298163010932 0 0,0 -0.26194737340800905,-0.3155324858316145 l 2.187728690538053 -1.7846163996381859" fill="red" stroke="none" /><path d="M 83.72743513129214 113.27417163493432 l -11.901264723336505 9.708330056446874 a36.35876865181072,36.35876865181072 0 0,0 -0.3914317300912208,-0.48837126866871955 l 12.066614365482586 -9.502030954199896" fill="red" stroke="none" /><path d="M 83.50135304334701 112.99209946851258 l -26.271454642020725 20.687838996034394 a54.43913891435594,54.43913891435594 0 0,0 -0.5734079240178142,-0.7412070379590444 l 26.623669383256605 -20.232553963962097" fill="red" stroke="none" /><path d="M 83.28015986056508 112.70617746262583 l -22.186250309247942 16.860354603191148 a48.865772196907685,48.865772196907685 0 0,0 -0.5031748896107547,-0.6740849922988716 l 22.47318646555378 -16.47595673138297" fill="red" stroke="none" /><path d="M 83.06392112726016 112.41649034213515 l -25.52047969078394 18.710044514336417 a52.644283044116605,52.644283044116605 0 0,0 -0.529501733086457,-0.7354315957267746 l 25.838761216246002 -18.267979313158506" fill="red" stroke="none" /><path d="M 82.6465618267979 111.8261652097733 l -2.318325874758145 1.5799119765972574 a23.805486894528038,23.805486894528038 0 0,0 -0.22784899714217577,-0.3406033357696564 l 2.3451779773110513 -1.5397717266217799" fill="red" stroke="none" /><path d="M 82.05923443525364 110.91462005526583 l -31.94911705186587 19.43687812339242 a58.397036133595364,58.397036133595364 0 0,0 -0.5150594235468211,-0.8632692200271644 l 32.27895735111092 -18.884046809479145" fill="red" stroke="none" /><line stroke="#e1ed5e" stroke-width="0.3" x1="26.63291911575756" x2="22.317208475507996" y1="142.92168965132927" y2="145.44649492493687" /><path d="M 25.769776987707644 143.4266507060508 a86.0,86.0 0 0,1 -11.730757126820373,-40.83630448921669" fill="none" id="id57" stroke="none" /><text fill="#e1ed5e" style="font-size:6.75px; font-family:Arial;" text-anchor="middle"><textPath startOffset="21.46611528233685" xlink:href="#id57">September</textPath></text><path d="M 81.87401531095188 110.60418214915194 l -6.519168087899809 3.81388636540101 a28.552832698165833,28.552832698165833 0 0,0 -0.24453190309334563,-0.4263619846987055 l 6.583851987145532 -3.701104534843998" fill="red" stroke="none" /><path d="M 81.69416730710424 110.29060199501025 l -3.842181444561207 2.1598777123062645 a25.407655837863,25.407655837863 0 0,0 -0.21103307422191434,-0.38308632841281426 l 3.878790928234638 -2.0934208654956277" fill="red" stroke="none" /><path d="M 81.51974371655577 109.97397251340807 l -4.216100268869605 2.275469969166496 a25.790956591093362,25.790956591093362 0 0,0 -0.20749130602600313,-0.39249535586090223 l 4.254644083120494 -2.2025595982194677" fill="red" stroke="none" /><path d="M 81.35079622478065 109.6543875284942 l -55.94761132565806 28.96316258548259 a84.0,84.0 0 0,0 -0.6536853208549331,-1.28978315318926 l 56.437875316299255 -27.995825220590643" fill="red" stroke="none" /><path d="M 81.18737489456691 109.33194174019688 l -26.512383947935856 13.151382170711294 a50.59502248018862,50.59502248018862 0 0,0 -0.38029807285727896,-0.7835266706543823 l 26.734835277407853 -12.693066544091627" fill="red" stroke="none" /><path d="M 81.02952815118164 109.00673069616217 l -10.967588035302372 5.207151019101916 a33.14093938078277,33.14093938078277 0 0,0 -0.24023296169179684,-0.5174404273565487 l 11.055595613833995 -5.017590524466541" fill="red" stroke="none" /><path d="M 80.87730276802145 108.67885076344099 l -9.79708622279819 4.446415074858763 a31.758880307674836,31.758880307674836 0 0,0 -0.22164509752580666,-0.499751182323834 l 9.872172405055277 -4.277115556042233" fill="red" stroke="none" /><path d="M 80.73074385275274 108.34839909993369 l -5.659003965068205 2.4517616688200827 a27.167289611924602,27.167289611924602 0 0,0 -0.18221362311923914,-0.430699180019754 l 5.700368569379751 -2.35398796313417" fill="red" stroke="none" /><path d="M 80.58989483394504 108.01547362559985 l -19.133256191463712 7.901147833177494 a41.70047413877059,41.70047413877059 0 0,0 -0.26826785906549117,-0.6658188257135488 l 19.266426664786593 -7.570629639621139" fill="red" stroke="none" /><path d="M 80.45479744820244 107.68017299344265 l -21.286427078589824 8.364376984204569 a43.870828146484186,43.870828146484186 0 0,0 -0.2701309065862141,-0.7052265564650303 l 21.427252264769546 -7.99672686090638" fill="red" stroke="none" /><path d="M 80.32549172779594 107.34259656027581 l -5.53696299878467 2.066414311695337 a26.909993854268365,26.909993854268365 0 0,0 -0.1582253036905074,-0.4353680806923584 l 5.571712563480403 -1.9707984339968614" fill="red" stroke="none" /><path d="M 80.20201598880116 107.00284435728193 l -18.24545991009594 6.453693260139777 a40.353215857497474,40.353215857497474 0 0,0 -0.22599562789375308,-0.6568490808677373 l 18.35384636893292 -6.138671476182743" fill="red" stroke="none" /><path d="M 79.67330655649465 105.27499134158121 l -2.5550298946900707 0.6630572064969871 a23.639663353885783,23.639663353885783 0 0,0 -0.09882357030213818,-0.3947510392488298 l 2.5660647792872675 -0.6189783278507653" fill="red" stroke="none" /><path d="M 79.50377843672027 104.57218783832718 l -10.937804131399872 2.43994703478356 a32.2066453834061,32.2066453834061 0 0,0 -0.11604508487602261,-0.5421240031427744 l 10.978183255000335 -2.251309212224622" fill="red" stroke="none" /><path d="M 79.4281124754447 104.21870165774334 l -8.425890925564536 1.7279075618712383 a29.601238424313244,29.601238424313244 0 0,0 -0.09806476862775,-0.5000301425149393 l 8.454385627167952 -1.5826136922883443" fill="red" stroke="none" /><path d="M 79.29508885075956 103.50808413554451 l -8.82042321757609 1.494466048916239 a29.94613293599635,29.94613293599635 0 0,0 -0.08173618112166095,-0.5089712778678687 l 8.844841153059042 -1.3424155413551566" fill="red" stroke="none" /><line stroke="#e1ed5e" stroke-width="0.3" x1="15.007084014347285" x2="10.007500721073583" y1="101.09737516637583" y2="101.16192664675087" /><path d="M 14.007167355692545 101.11028546245083 a86.0,86.0 0 0,1 10.666146001902534,-42.60595125391555" fill="none" id="id58" stroke="none" /><text fill="#e1ed5e" style="font-size:6.75px; font-family:Arial;" text-anchor="middle"><textPath startOffset="22.20632615414155" xlink:href="#id58">October</textPath></text><path d="M 80.803312248108 91.48605970444005 l -2.557585082913007 -1.134316866439104 a23.79784134822319,23.79784134822319 0 0,0 0.1693020170808711,-0.3730345528049149 l 2.5376807488687843 1.1781734280860898" fill="red" stroke="none" /><path d="M 80.95270993114464 91.15688171328213 l -17.494567255710475 -8.122232982116078 a40.288093531511905,40.288093531511905 0 0,0 0.29744470418085966,-0.6264944048618489 l 17.352164357687865 8.422169802618459" fill="red" stroke="none" /><path d="M 81.10775173730289 90.83032412892265 l -16.091887634290966 -7.810472936225325 a38.887211496545646,38.887211496545646 0 0,0 0.2974686262420472,-0.5996785987223455 l 15.955058995095506 8.086311123446631" fill="red" stroke="none" /><path d="M 81.26839172434947 90.50648371742162 l -2.8604489726772813 -1.4497270334708237 a24.20684842124891,24.20684842124891 0 0,0 0.19156904097783597,-0.37005041196810634 l 2.835070498539331 1.4987501676992656" fill="red" stroke="none" /><path d="M 81.43458229118936 90.18545643968196 l -2.7553613120208165 -1.4566121832211563 a24.11668654376557,24.11668654376557 0 0,0 0.19717332158340067,-0.365332219456271 l 2.7298798912189444 1.5038253860099" fill="red" stroke="none" /><path d="M 81.6062741919709 89.86733742301443 l -2.550174765372589 -1.404830140426702 a23.9115183422734,23.9115183422734 0 0,0 0.20170203616331517,-0.3588054158165339 l 2.525615087916843 1.4485190661780205" fill="red" stroke="none" /><line stroke="#e1ed5e" stroke-width="0.3" x1="26.266209847984243" x2="21.928928074336255" y1="57.711370442889674" y2="55.22380399835377" /><path d="M 25.398753493254645 57.213857153982495 a86.0,86.0 0 0,1 29.58750427330803,-30.492523968695096" fill="none" id="id59" stroke="none" /><text fill="#e1ed5e" style="font-size:6.75px; font-family:Arial;" text-anchor="middle"><textPath startOffset="21.46611528233685" xlink:href="#id59">November</textPath></text><path d="M 81.78341655067845 89.55222093294921 l -15.186750548442701 -8.710075350734945 a38.50722150531332,38.50722150531332 0 0,0 0.33472003565824743,-0.5721450420336531 l 15.034570838314128 8.970199805122489" fill="red" stroke="none" /><path d="M 81.96595687620814 89.24020034530311 l -8.990781154124534 -5.364243796776727 a31.469443981063105,31.469443981063105 0 0,0 0.28155292194088843,-0.4627989743146165 l 8.897112433897428 5.518210544298418" fill="red" stroke="none" /><path d="M 82.15384107792192 88.93136811851018 l -5.4918239458469165 -3.4061658802852413 a27.462359960277432,27.462359960277432 0 0,0 0.2526176231564486,-0.3995804135800815 l 5.432378726444505 3.5001939415795382" fill="red" stroke="none" /><path d="M 82.34701348167596 88.62581576622439 l -4.881756953360714 -3.1454169476877523 a26.807340073259617,26.807340073259617 0 0,0 0.2532698317923412,-0.3857473296641267 l 4.826890486210452 3.2289823413295458" fill="red" stroke="none" /><path d="M 82.54541684631803 88.32363383020206 l -9.739090181111356 -6.515032877846286 a32.717317566543876,32.717317566543876 0 0,0 0.31716406692831794,-0.46539913222702556 l 9.625501648514298 6.681710033343728" fill="red" stroke="none" /><path d="M 82.7489923806493 88.02491185347247 l -14.285072327550798 -9.91623237764128 a38.38950706520282,38.38950706520282 0 0,0 0.38149550745036587,-0.5395983405225494 l 14.112264200296556 10.160657218495615" fill="red" stroke="none" /><path d="M 82.95767976084542 87.72973835380427 l -2.579439988354381 -1.8571651696258942 a24.1784545176537,24.1784545176537 0 0,0 0.24608760486005907,-0.3356632164703107 l 2.5470897709806883 1.9012908297677056" fill="red" stroke="none" /><path d="M 83.17141714833178 87.43820079747576 l -4.557193298033999 -3.401744974106208 a26.68681629952145,26.68681629952145 0 0,0 0.2779547049297503,-0.3657558102032685 l 4.4979626528801395 3.479685560190503" fill="red" stroke="none" /><path d="M 83.39014120810768 87.1503855733568 l -2.2661013433230015 -1.7530870598136725 a23.865053147412183,23.865053147412183 0 0,0 0.25415817870603535,-0.32275507678951515 l 2.2355890840229953 1.7918345305562353" fill="red" stroke="none" /><path d="M 83.84228863543731 86.58626213691792 l -5.789193801429951 -4.806047486482176 a28.524151600867476,28.524151600867476 0 0,0 0.31687532513174466,-0.3750804373334229 l 5.705607862811083 4.904986873444715" fill="red" stroke="none" /><path d="M 84.07557802195018 86.31012108654704 l -3.8890050550081248 -3.343292985469338 a26.128544462570957,26.128544462570957 0 0,0 0.29613362737904614,-0.3385319279678709 l 3.830879564051235 3.4097404696401523" fill="red" stroke="none" /><path d="M 84.5562425177563 85.77008943001954 l -5.222588305544738 -4.8121038301185814 a28.101533065546803,28.101533065546803 0 0,0 0.3308389179300438,-0.3529158905713054 l 5.138982065644238 4.901289137567938" fill="red" stroke="none" /><path d="M 84.80347519578584 85.50635884689758 l -3.9030236524882786 -3.722497410430904 a26.393568447933866,26.393568447933866 0 0,0 0.3163906850829893,-0.3260684125044094 l 3.838368703702171 3.7891300184854373" fill="red" stroke="none" /><path d="M 85.31137513191541 84.99185889309783 l -2.189544068307179 -2.2371724128059864 a24.130342414445952,24.130342414445952 0 0,0 0.2993504064920439,-0.28797485387032695 l 2.1507104182027077 2.2745303534386268" fill="red" stroke="none" /><path d="M 86.10567301691215 84.25364557470407 l -3.639439353818402 -4.124554002820697 a26.500678551988504,26.500678551988504 0 0,0 0.34464284060078587,-0.2988708752020537 l 3.5679027145708426 4.186589871442431" fill="red" stroke="none" /><path d="M 86.37877921826538 84.01681056812374 l -11.736215595832462 -13.771317570380264 a39.093864820323084,39.093864820323084 0 0,0 0.5159319040996155,-0.43207813227617825 l 11.497426154773736 13.971296860050256" fill="red" stroke="none" /><path d="M 86.65592168130627 83.78471172551755 l -16.560833109300372 -20.124183665551705 a47.06230921232724,47.06230921232724 0 0,0 0.6299550083472281,-0.5093798063158069 l 16.21197470238864 20.406269569131645" fill="red" stroke="none" /><path d="M 86.93701828274178 83.55741782278169 l -3.362241975835917 -4.232107277187432 a26.405127483204797,26.405127483204797 0 0,0 0.3583143671227856,-0.27967004702764703 l 3.2888950535537056 4.289355713438301" fill="red" stroke="none" /><path d="M 87.22198572758235 83.33499621200491 l -1.6609546260915282 -2.1662063091643544 a23.729692298373262,23.729692298373262 0 0,0 0.3262876152992948,-0.24575306719175613 l 1.6234208570338435 2.194475965861965" fill="red" stroke="none" /><path d="M 87.51073957382395 83.11751280151077 l -1.7075832068767658 -2.308243294377265 a23.871206630398646,23.871206630398646 0 0,0 0.33244029444508305,-0.2415320119369779 l 1.6675975960779008 2.3372945411309103" fill="red" stroke="none" /><path d="M 87.80319425747018 82.90503203632743 l -6.391136043507146 -8.957776996829178 a32.00401693253596,32.00401693253596 0 0,0 0.45120918199815063,-0.31610086686892336 l 6.235995721925335 9.066462706462044" fill="red" stroke="none" /><path d="M 88.09926311788651 82.69761687909137 l -10.49486112384505 -15.258391960452142 a39.51919639799699,39.51919639799699 0 0,0 0.5637983676983758,-0.38067917461163236 l 10.230658061740135 15.43678304736244" fill="red" stroke="none" /><path d="M 88.39885842347998 82.49532879139004 l -10.630136483476008 -16.039546006619293 a40.2423189287514,40.2423189287514 0 0,0 0.5807023616341341,-0.37770496929390523 l 10.352467096057588 16.22014990007273" fill="red" stroke="none" /><path d="M 89.00827224532344 82.1063720568725 l -7.717659246076928 -12.563713933178839 a35.744801525734715,35.744801525734715 0 0,0 0.5270450708518437,-0.317538758040692 l 7.500252109007435 12.69469930067815" fill="red" stroke="none" /><line stroke="#e1ed5e" stroke-width="0.3" x1="56.762969772571076" x2="54.21961505331055" y1="26.818313649435495" y2="22.513508569990535" /><path d="M 56.25429882871897 25.957352633546506 a86.0,86.0 0 0,1 42.265352541879196,-11.944610805530505" fill="none" id="id60" stroke="none" /><text fill="#e1ed5e" style="font-size:6.75px; font-family:Arial;" text-anchor="middle"><textPath startOffset="22.20632615414155" xlink:href="#id60">December</textPath></text><path d="M 89.3179101791058 81.91981866633112 l -1.6579745081781438 -2.806237380238763 a24.25942444367374,24.25942444367374 0 0,0 0.36135367783294425,-0.2093193739668547 l 1.6094240978798795 2.834360911595665" fill="red" stroke="none" /><path d="M 89.94658935756843 81.56283822128135 l -4.436487072108468 -8.136167196078441 a30.267126533264154,30.267126533264154 0 0,0 0.45956301059456367,-0.24548264458467808 l 4.295779014985599 8.21132856716487" fill="red" stroke="none" /><path d="M 90.26544431104013 81.39251694778311 l -1.2176854600963245 -2.3275907278819292 a23.62686818783355,23.62686818783355 0 0,0 0.3619855738361008,-0.18542307051481685 l 1.1774393986714602 2.348206323709251" fill="red" stroke="none" /><path d="M 90.58718382345135 81.22770947309562 l -5.682761079502975 -11.333318316063199 a33.67824426093485,33.67824426093485 0 0,0 0.5204551399673609,-0.25538507687012674 l 5.486834672525188 11.429458553068155" fill="red" stroke="none" /><path d="M 90.91171255644093 81.06846463323043 l -8.579318033068615 -17.87131665613309 a40.82394150859804,40.82394150859804 0 0,0 0.6361182458211243,-0.2986660458274655 l 8.270421575947882 18.016347684600564" fill="red" stroke="none" /><path d="M 91.23893434514133 80.91482961587045 l -1.0420029970690705 -2.2699070550633436 a23.497648551043014,23.497648551043014 0 0,0 0.36904498410082265,-0.16557972696295753 l 1.0027758945014735 2.28750711254283" fill="red" stroke="none" /><path d="M 91.56875222667455 80.76684994638697 l -4.763089958924889 -10.86544084123475 a32.863592652783694,32.863592652783694 0 0,0 0.5200526483753863,-0.22265940359413222 l 4.575353552759195 10.945819772791669" fill="red" stroke="none" /><path d="M 91.90106846888425 80.62456947434976 l -12.163170797943824 -29.098489086092016 a52.538306722989574,52.538306722989574 0 0,0 0.8374008916522784,-0.3415968495891627 l 11.660486036703166 29.303546821864753" fill="red" stroke="none" /><path d="M 92.57280143429618 80.3572730644239 l -1.1691596693713358 -3.0920789213305957 a24.305735377827673,24.305735377827673 0 0,0 0.3926159535835277,-0.14460376912714532 l 1.1157613900152386 3.111745958264063" fill="red" stroke="none" /><path d="M 92.91201910852362 80.23233633223022 l -1.1185796876977538 -3.119605906189517 a24.314085322930374,24.314085322930374 0 0,0 0.3951826131169945,-0.1378714541025069 l 1.0647150705174742 3.138398213464234" fill="red" stroke="none" /><path d="M 93.25333710446033 80.11325718540243 l -8.84845853069281 -26.082082628117465 a48.54215410220009,48.54215410220009 0 0,0 0.7935883499353041,-0.26163360186963713 l 8.398187358515095 26.230529954246336" fill="red" stroke="none" /><path d="M 93.94186890950719 79.89281104454417 l -0.8389587911802511 -2.784539107543457 a23.908179825034473,23.908179825034473 0 0,0 0.39506534646259545,-0.11533040803753537 l 0.7909032269942343 2.798567844499691" fill="red" stroke="none" /><path d="M 94.98787191387505 79.60689891045804 l -2.160162315499893 -8.789162549887427 a30.050728123065543,30.050728123065543 0 0,0 0.5033873496772994,-0.11913552187564276 l 2.0085512788600597 8.82504398390394" fill="red" stroke="none" /><path d="M 95.692805502759 79.44645832069477 l -3.9625561762366646 -18.908958854084332 a40.31969400366594,40.31969400366594 0 0,0 0.6805073292812233,-0.13650336837324092 l 3.6364824374883047 18.974366178534783" fill="red" stroke="none" /><path d="M 96.04723909329186 79.375362276772 l -3.701248374750649 -19.312300605728254 a40.663778736997784,40.663778736997784 0 0,0 0.6885827672985162,-0.12583409941352236 l 3.368270486349239 19.373150186492513" fill="red" stroke="none" /><path d="M 96.40284397218896 79.31037775812273 l -3.4110291934135804 -19.619083776771234 a40.91340172844127,40.91340172844127 0 0,0 0.6948864511448494,-0.11466221845576632 l 3.0728135361298454 19.674892258166626" fill="red" stroke="none" /><path d="M 96.75951476605007 79.25152402106235 l -0.9933308032437125 -6.360189546402829 a27.437291134541347,27.437291134541347 0 0,0 0.4672584001296199,-0.06886174202246072 l 0.8837034226854438 6.376345772586259" fill="red" stroke="none" /><path d="M 98.91598698831166 79.02799685794201 l -1.402662456584062 -27.136797371935277 a48.173024004931506,48.173024004931506 0 0,0 0.8284823452814367,-0.03567619254673035 l 0.935339278913301 27.1569212910062" fill="red" stroke="none" /><path d="M 99.27714615592234 79.0124445844662 l -0.3819706575354727 -11.090250688730276 a32.096826660000616,32.096826660000616 0 0,0 0.552330392842435,-0.014265064513735156 l 0.19101362949815867 11.09518254538637" fill="red" stroke="none" /><path d="M 99.63851952072746 79.00311137660856 l -0.10275623965400559 -5.968680034162965 a26.96956448955897,26.96956448955897 0 0,0 0.46423671892653984,-0.003995832004563509 l 1.4621216088884191e-15 5.9695644895589695" fill="red" stroke="none" /></svg>