<?xml version="1.0" encoding="utf-8" ?>
<svg baseProfile="full" height="200mm" version="1.1" viewBox="0,0,200,200" width="200mm" xmlns="http://www.w3.org/2000/svg" xmlns:ev="http://www.w3.org/2001/xml-events" xmlns:xlink="http://www.w3.org/1999/xlink"><defs /><rect fill="#1a1a1a" height="200" width="200" x="0" y="0" /><text alignment-baseline="middle" fill="#e1ed5e" style="dominant-baseline: central; font-size:9.0px; font-family:Arial;" text-anchor="middle" x="100.0" y="100.0">2024</text><line stroke="#e1ed5e" stroke-width="0.3" x1="100.0" x2="100.0" y1="15.0" y2="10.0" /><path d="M 100.0 14.0 a86.0,86.0 0 0,1 42.35913384403234,11.155469271406648" fill="none" id="id61" stroke="none" /><text fill="#e1ed5e" style="font-size:6.75px; font-family:Arial;" text-anchor="middle"><textPath startOffset="22.145653131862478" xlink:href="#id61">January</textPath></text><path d="M 100.36049292484886 79.00309439819443 l 1.0814787745465644 -62.990716805416696 a84.0,84.0 0 0,0 1.4415467437170346,0.03712913059981959 l -2.1626388323343404 62.96286995746683" fill="red" stroke="none" /><path d="M 100.72087961077811 79.0123766808444 l 0.15816793561923315 -4.604886869198307 a25.60760243228222,25.60760243228222 0 0,0 0.43919993947063923,0.01886113516189766 l -0.23719363569070864 4.601493165610578" fill="red" stroke="none" /><path d="M 101.44090949804482 79.04949213459386 l 0.38429713362132906 -5.587595981226767 a26.600795759205212,26.600795759205212 0 0,0 0.4552928933099922,0.03524254941569505 l -0.48015902170655467 5.580175664816019" fill="red" stroke="none" /><path d="M 101.80034050326958 79.07731436759882 l 1.3504529117630797 -15.694309872419085 a36.75230413109144,36.75230413109144 0 0,0 0.628115142821691,0.05948315707406586 l -1.6196676179697835 15.668814959839835" fill="red" stroke="none" /><path d="M 102.15924093988457 79.11130261209362 l 1.9339134452021456 -18.708858277479056 a39.808545910312425,39.808545910312425 0 0,0 0.6791415623400654,0.07609922861394418 l -2.2547909091430074 18.672903288358143" fill="red" stroke="none" /><path d="M 102.51750503828377 79.15144685158666 l 0.910815825666666 -7.542861627308892 a28.59765404562578,28.59765404562578 0 0,0 0.4868712172955115,0.06303522658025122 l -1.040164864852969 7.526114804528244" fill="red" stroke="none" /><path d="M 103.58742460773223 79.30868818359171 l 1.700091158306647 -9.805674019468416 a30.951962264931993,30.951962264931993 0 0,0 0.5227421878004684,0.0952610400757147 l -1.868168079658169 9.775044805461336" fill="red" stroke="none" /><path d="M 103.94208987418118 79.37332000966035 l 1.1178487301123892 -5.849056913859726 a26.95491835082431,26.95491835082431 0 0,0 0.4537456366305951,0.09076183521381699 l -1.218090852273941 5.829005681983049" fill="red" stroke="none" /><path d="M 104.64783097203109 79.52079915486377 l 1.4620456590983106 -6.44204293951541 a27.60586820515279,27.60586820515279 0 0,0 0.4612386438705975,0.10885106406574513 l -1.572416456708793 6.415995731803438" fill="red" stroke="none" /><path d="M 104.9986988182912 79.60360301121754 l 1.23091467690468 -5.022551932434548 a26.171187373884393,26.171187373884393 0 0,0 0.4354321113543618,0.11068513996225296 l -1.3169520814844362 5.000681560637028" fill="red" stroke="none" /><path d="M 105.3480935250658 79.69241777938227 l 2.5248204674964567 -9.587154561840224 a30.914043120024385,30.914043120024385 0 0,0 0.5120228175929229,0.13955409579928554 l -2.689024686024072 9.542399971896796" fill="red" stroke="none" /><path d="M 105.69591212413111 79.78721728523813 l 7.716199873563221 -27.382071216872642 a49.44850724756331,49.44850724756331 0 0,0 0.8150526517342718,0.23724994821522596 l -8.185112537679098 27.2455775743549" fill="red" stroke="none" /><path d="M 106.04205211174951 79.88797359093562 l 1.5125206325189202 -5.034689264980052 a26.256977711451782,26.256977711451782 0 0,0 0.43056362987710706,0.1333897131496429 l -1.5987248952676574 5.007982964023762" fill="red" stroke="none" /><path d="M 106.72888874123014 80.10723608172694 l 3.6886864468125986 -10.90494604337327 a32.51191799448647,32.51191799448647 0 0,0 0.527148591279445,0.18336964416516316 l -3.875340810137062 10.840017966639516" fill="red" stroke="none" /><path d="M 107.06938296918511 80.22567764915836 l 1.5665566198940273 -4.381937676549468 a25.653544610777633,25.653544610777633 0 0,0 0.41340179975295316,0.15180686708086735 l -1.6415475713011052 4.354399960459879" fill="red" stroke="none" /><path d="M 107.74402155503746 80.48000691201159 l 5.91644060348609 -14.913295225840018 a37.04402206142966,37.04402206142966 0 0,0 0.5890802812846364,0.23957382207142536 l -6.171575345961166 14.8095341471893" fill="red" stroke="none" /><path d="M 108.07796709384702 80.6158196554323 l 9.464352551991482 -22.711000748209614 a45.604136323260065,45.604136323260065 0 0,0 0.7200348586637708,0.30734006524427576 l -9.852822485825683 22.54518603330594" fill="red" stroke="none" /><path d="M 108.4095320186766 80.7573450057729 l 3.8263101768877696 -8.75534648910681 a30.55493284717741,30.55493284717741 0 0,0 0.47881994650725246,0.21417007172885014 l -3.976043526250654 8.688372666468107" fill="red" stroke="none" /><path d="M 108.73861861582097 80.90454125486305 l 1.9468428334251275 -4.254202940225525 a25.678508274512538,25.678508274512538 0 0,0 0.39925346488439467,0.18687078105515437 l -2.019585012181027 4.220155927599838" fill="red" stroke="none" /><path d="M 109.06512990194946 81.05736502329252 l 2.511522009550379 -5.248115049366111 a26.81811433162318,26.81811433162318 0 0,0 0.41356054573401124,0.20229318670173316 l -2.6012428045464575 5.204228112567156" fill="red" stroke="none" /><path d="M 109.3889696526874 81.21577127319529 l 8.806530477809403 -17.618960216513166 a40.697277430336904,40.697277430336904 0 0,0 0.6222279968215015,0.3177140487270656 l -9.107685696344484 17.465188216113265" fill="red" stroke="none" /><path d="M 109.71004243097381 81.37971332152246 l 2.297787378903785 -4.406310273670457 a25.969446354122695,25.969446354122695 0 0,0 0.3935127751291808,0.20952338806108267 l -2.373088969819525 4.366216417886801" fill="red" stroke="none" /><path d="M 110.34350942703115 81.72400993836675 l 4.97203934033944 -8.785117102771846 a31.09452612613873,31.09452612613873 0 0,0 0.46228310785200816,0.2668992767601737 l -5.122114916051845 8.6984709287355" fill="red" stroke="none" /><line stroke="#e1ed5e" stroke-width="0.3" x1="143.13028292997686" x2="145.6673583964461" y1="26.7553504044142" y2="22.446841604673864" /><path d="M 143.63769802327073 25.89364864446614 a86.0,86.0 0 0,1 29.32050498858742,28.57503671076993" fill="none" id="id62" stroke="none" /><text fill="#e1ed5e" style="font-size:6.75px; font-family:Arial;" text-anchor="middle"><textPath startOffset="20.669276256404974" xlink:href="#id62">February</textPath></text><path d="M 111.27062007382361 82.28071324371311 l 4.088436015863067 -6.427700488109152 a28.617784626821955,28.617784626821955 0 0,0 0.41225195345657994,0.2672167355437552 l -4.198173601576654 6.356569910861502" fill="red" stroke="none" /><path d="M 111.8722381534696 82.67804972795209 l 3.1590938705044596 -4.609212367730131 a26.587907724139264,26.587907724139264 0 0,0 0.37426266850831663,0.26126440932243106 l -3.2377516301865366 4.554303142602573" fill="red" stroke="none" /><path d="M 112.16784306229584 82.88440491214696 l 9.399003948307177 -13.220876122805995 a37.22136987664345,37.22136987664345 0 0,0 0.5175879439940119,0.3746937562076142 l -9.624572902675157 13.057581595225306" fill="red" stroke="none" /><path d="M 112.45986205192187 83.09580414077388 l 11.864481700026044 -16.09644806577204 a40.99653885912133,40.99653885912133 0 0,0 0.5629156878586313,0.4224224265307279 l -12.139050376795442 15.890406611977298" fill="red" stroke="none" /><path d="M 112.7482090630111 83.31218511350987 l 16.897512917295842 -22.119386826191963 a48.835107622513235,48.835107622513235 0 0,0 0.6618088562874161,0.5146265695641752 l -17.274731718218487 21.826059205006995" fill="red" stroke="none" /><path d="M 113.31354834802062 83.75963576809568 l 4.08423988638898 -4.982108573278293 a27.442237288823172,27.442237288823172 0 0,0 0.36174836236027674,0.3017833499072887 l -4.16916258291115 4.911263039459134" fill="red" stroke="none" /><path d="M 113.59037401385872 83.9905735841838 l 12.289950253374148 -14.477530495834397 a39.9905704624223,39.9905704624223 0 0,0 0.519535630387526,0.4487625035977557 l -12.536665363524534 14.264423859771922" fill="red" stroke="none" /><path d="M 113.86319453409587 84.22622945171908 l 4.543089428268866 -5.169201805946344 a27.8818826540306,27.8818826540306 0 0,0 0.35680176129260494,0.3190543350966861 l -4.631156216384847 5.09045194096627" fill="red" stroke="none" /><path d="M 114.39649973595853 84.71141617570332 l 10.602500887742648 -11.259488524461181 a36.465739778848494,36.465739778848494 0 0,0 0.4520493041766682,0.43305300763229004 l -10.79422267778463 11.07582338652331" fill="red" stroke="none" /><path d="M 114.65682725009322 84.96080404539774 l 7.1695492113455686 -7.3565890936528815 a31.2723823423176,31.2723823423176 0 0,0 0.3812372645913521,0.37797884601202403 l -7.294778396066883 7.232430237412198" fill="red" stroke="none" /><path d="M 114.91283532996326 85.21462403516908 l 4.049572949203101 -4.014961422572386 a26.702539460245934,26.702539460245934 0 0,0 0.31993863671376926,0.328285226323866 l -4.117898387067682 3.944853504180778" fill="red" stroke="none" /><path d="M 115.41159269507618 85.73525988315684 l 3.6972871144854977 -3.4221537558761606 a26.03796271679315,26.03796271679315 0 0,0 0.3008033152613091,0.33063553645709587 l -3.755488130588684 3.358180643861393" fill="red" stroke="none" /><path d="M 115.8921839302757 86.27271002978787 l 4.4887783480702765 -3.877299826525569 a26.93149095952103,26.93149095952103 0 0,0 0.29920301208168176,0.3524603958969508 l -4.554675923659071 3.7996726481790666" fill="red" stroke="none" /><path d="M 116.1254893667686 86.54754324733833 l 4.781419625257902 -3.988830308472011 a27.2267761211229,27.2267761211229 0 0,0 0.29632220401716286,0.3614649075845219 l -4.849188648513692 3.906163119188994" fill="red" stroke="none" /><path d="M 116.35404254752997 86.82634096563983 l 17.720992616254257 -14.274777248406199 a43.75528169012533,43.75528169012533 0 0,0 0.4661678738483698,0.588987880104461 l -17.963426920744187 13.96846942438706" fill="red" stroke="none" /><line stroke="#e1ed5e" stroke-width="0.3" x1="172.87174338648825" x2="177.1583165268699" y1="56.24261187166439" y2="53.66864786411523" /><path d="M 173.72905801456457 55.72781907015455 a86.0,86.0 0 0,1 12.242430191666344,42.057860355516425" fill="none" id="id63" stroke="none" /><text fill="#e1ed5e" style="font-size:6.75px; font-family:Arial;" text-anchor="middle"><textPath startOffset="22.145653131862474" xlink:href="#id63">March</textPath></text><path d="M 118.36410011445183 89.81374322990088 l 6.418991135217066 -3.560506177858137 a28.340344095242486,28.340344095242486 0 0,0 0.232329620452257,0.4274603338016488 l -6.479166105284664 3.449791010581885" fill="red" stroke="none" /><line stroke="#e1ed5e" stroke-width="0.3" x1="184.99686870605535" x2="189.99668451229388" y1="99.2704041080226" y2="99.22748670261217" /><path d="M 185.99683186730306 99.26182062694052 a86.0,86.0 0 0,1 -10.086455211305974,41.156179273409016" fill="none" id="id64" stroke="none" /><text fill="#e1ed5e" style="font-size:6.75px; font-family:Arial;" text-anchor="middle"><textPath startOffset="21.40746469413373" xlink:href="#id64">April</textPath></text><path d="M 120.592083275326 104.11899336999214 l 15.01211613247576 3.0028436653280135 a36.30949708035308,36.30949708035308 0 0,0 -0.12750216350101384,0.6101440086550988 l -14.958356258150383 -3.2601041252685214" fill="red" stroke="none" /><line stroke="#e1ed5e" stroke-width="0.3" x1="174.33088141563837" x2="178.70328620479359" y1="141.23008692659167" y2="143.65538615756765" /><path d="M 175.20536237346943 141.71514677278685 a86.0,86.0 0 0,1 -30.301960400862466,31.631185727798858" fill="none" id="id65" stroke="none" /><text fill="#e1ed5e" style="font-size:6.75px; font-family:Arial;" text-anchor="middle"><textPath startOffset="22.145653131862474" xlink:href="#id65">May</textPath></text><path d="M 117.21940702142032 112.02048342749411 l 4.05117931415247 2.828037791719497 a25.940632711182907,25.940632711182907 0 0,0 -0.2580288813307582,0.3629499354338057 l -4.002035334291751 -2.8971649538628066" fill="red" stroke="none" /><path d="M 117.01052211995028 112.31430620078461 l 11.150953499014886 8.072430396274113 a34.76618670656048,34.76618670656048 0 0,0 -0.3541151011097548,0.4804251444297181 l -11.010736378321303 -8.262661849972709" fill="red" stroke="none" /><path d="M 116.79662413953412 112.60449989151573 l 13.267894135528449 9.956475110870057 a37.58820097011623,37.58820097011623 0 0,0 -0.3917192122437597,0.5127730231827271 l -13.095022945930385 -10.182769047293661" fill="red" stroke="none" /><path d="M 116.1254893667686 113.45245675266167 l 5.533720152814419 4.616426165055098 a28.20648661048293,28.20648661048293 0 0,0 -0.3133679366947357,0.3691466414739296 l -5.453657652612568 -4.710739588978584" fill="red" stroke="none" /><path d="M 114.39649973595853 115.28858382429668 l 6.515095247065657 6.91880537873037 a30.50349061908759,30.50349061908759 0 0,0 -0.3843007375625837,0.3557030254110469 l -6.395364738189107 -7.029626150273796" fill="red" stroke="none" /><path d="M 113.86319453409587 115.77377054828091 l 8.618059087663992 9.805769246475096 a34.05465637056697,34.05465637056697 0 0,0 -0.4424194794054888,0.3821514090772328 l -8.448460128495647 -9.952264788017047" fill="red" stroke="none" /><line stroke="#e1ed5e" stroke-width="0.3" x1="143.1302829299769" x2="145.66735839644613" y1="173.24464959558577" y2="177.55315839532614" /><path d="M 143.63769802327073 174.10635135553383 a86.0,86.0 0 0,1 -40.68552437913181,11.842963189579606" fill="none" id="id66" stroke="none" /><text fill="#e1ed5e" style="font-size:6.75px; font-family:Arial;" text-anchor="middle"><textPath startOffset="21.407464694133747" xlink:href="#id66">June</textPath></text><line stroke="#e1ed5e" stroke-width="0.3" x1="101.45913802915013" x2="101.54496967792366" y1="184.9874750549273" y2="189.98673829345242" /><path d="M 101.47630435890484 185.9873277026323 a86.0,86.0 0 0,1 -42.54439059252881,-10.42667462771756" fill="none" id="id67" stroke="none" /><text fill="#e1ed5e" style="font-size:6.75px; font-family:Arial;" text-anchor="middle"><textPath startOffset="22.145653131862474" xlink:href="#id67">July</textPath></text><path d="M 99.27912038922189 120.98762331915562 l -0.6304784547645501 18.35569229813422 a39.36651689422102,39.36651689422102 0 0,0 -0.6751812038176328,-0.028995186017848878 l 0.9454854191830216 -18.342164543690544" fill="red" stroke="none" /><path d="M 98.91894614982273 120.97215588758144 l -0.6868624713941095 13.324948448261518 a34.34263958905571,34.34263958905571 0 0,0 -0.5884948961334066,-0.03540239158964272 l 0.9155017196599624 -13.311194078847183" fill="red" stroke="none" /><path d="M 98.55909050195518 120.95050786540614 l -3.77962190129445 54.95487293183735 a76.08469479511649,76.08469479511649 0 0,0 -1.3022475396394324,-0.10080219555714094 l 4.722438435709118 -54.881892969285154" fill="red" stroke="none" /><path d="M 97.84075906011543 120.88869738790638 l -1.1258139259763127 10.891228477757188 a31.949260922575156,31.949260922575156 0 0,0 -0.5450606266165335,-0.06107518010005401 l 1.3126104541936454 -10.870297537150163" fill="red" stroke="none" /><path d="M 97.48249496171623 120.84855314841334 l -0.6176534483243141 5.115056593280484 a26.15221309096286,26.15221309096286 0 0,0 -0.4452379136503396,-0.05764496189560723 l 0.7053691838654477 -5.10370003518448" fill="red" stroke="none" /><path d="M 97.12497278360702 120.80226474461374 l -4.014128487633343 29.044234100645493 a50.320313129438574,50.320313129438574 0 0,0 -0.8546663033919395,-0.12560651454806313 l 4.512119896632968 -28.971046512798548" fill="red" stroke="none" /><path d="M 96.05791012581884 120.62667999033965 l -1.0233375577134303 5.354534523248311 a26.45144565392382,26.45144565392382 0 0,0 -0.4452704286404255,-0.08906655625373733 l 1.115104471884814 -5.336178570331712" fill="red" stroke="none" /><path d="M 95.70440661134978 120.55596938700252 l -2.2491896184002234 10.763186539852386 a31.99568271782971,31.99568271782971 0 0,0 -0.5366705694832951,-0.11696485277447434 l 2.433622604502655 -10.722990228944195" fill="red" stroke="none" /><path d="M 95.35216902796893 120.47920084513623 l -1.1025826578278441 4.858182630542867 a25.98172931711982,25.98172931711982 0 0,0 -0.4341025432195736,-0.10244701819987571 l 1.1858173547873057 -4.838539468696764" fill="red" stroke="none" /><path d="M 95.00130118170881 120.39639698878247 l -3.571589862174228 14.573305445699855 a36.00458215870241,36.00458215870241 0 0,0 -0.5990385917086948,-0.15227326749016099 l 3.8212337471083018 -14.50984694637443" fill="red" stroke="none" /><path d="M 94.6519064749342 120.30758222061772 l -4.228382204898099 16.055855957587873 a37.603304689172845,37.603304689172845 0 0,0 -0.6228156551054242,-0.16975117633717923 l 4.503379260938218 -15.98090428710655" fill="red" stroke="none" /><path d="M 94.30408787586889 120.21278271476187 l -2.8350072795638868 10.060440696376505 a31.45225972125113,31.45225972125113 0 0,0 -0.5184230852611598,-0.1509054045405259 l 3.0072903772066533 -10.010291597533463" fill="red" stroke="none" /><path d="M 93.61358852112213 120.00534299687104 l -7.519117004079296 23.55352692160726 a45.72459809517462,45.72459809517462 0 0,0 -0.7456969132282193,-0.24512538680083995 l 7.9223366549552585 -23.420980613404403" fill="red" stroke="none" /><path d="M 93.27111125876986 119.89276391827306 l -3.908946349700979 11.556105308642879 a33.199320942957634,33.199320942957634 0 0,0 -0.5382941501477094,-0.1872466481020154 l 4.10674627189371 -11.487300227972273" fill="red" stroke="none" /><path d="M 92.93061703081489 119.77432235084164 l -5.89251976039245 16.48242650152194 a38.504061600231196,38.504061600231196 0 0,0 -0.6204853405188717,-0.22785081165603305 l 6.1745942525654405 -16.378844840857187" fill="red" stroke="none" /><path d="M 92.59220618246901 119.65005319985036 l -3.6593567528114432 9.706878544568204 a31.373735244517533,31.373735244517533 0 0,0 -0.5023200008757707,-0.19430816740140236 l 3.825449016180742 -9.642630489028761" fill="red" stroke="none" /><path d="M 92.25597844496254 119.51999308798841 l -3.754706748085858 9.46431376115983 a31.1818985328769,31.1818985328769 0 0,0 -0.49585980507936084,-0.20166186594362778 l 3.91662101435566 -9.39846463863691" fill="red" stroke="none" /><path d="M 91.92203290615298 119.3841803445677 l -6.562140307596456 15.746747874932057 a38.05935971990917,38.05935971990917 0 0,0 -0.6009118449806288,-0.2564935341951865 l 6.831487227747516 -15.631779691077467" fill="red" stroke="none" /><path d="M 91.59046798132341 119.24265499422711 l -3.549012747079959 8.120835702926668 a29.862475048927614,29.862475048927614 0 0,0 -0.46796858553143283,-0.20931639598810434 l 3.687894735467027 -8.058715556028709" fill="red" stroke="none" /><path d="M 90.93487009805054 118.94263497670748 l -4.994772852061635 10.437154232927744 a32.57073655069605,32.57073655069605 0 0,0 -0.5022713907584864,-0.24568610636033958 l 5.173204492082191 -10.349874376470185" fill="red" stroke="none" /><path d="M 90.6110303473126 118.78422872680471 l -4.991133920787873 9.98561126964104 a32.16350528479391,32.16350528479391 0 0,0 -0.49175361910565035,-0.2510929017986033 l 5.161814761607106 -9.8984604161696" fill="red" stroke="none" /><path d="M 90.28995756902619 118.62028667847754 l -7.8305294047293446 15.016072627571994 a37.93515951843524,37.93515951843524 0 0,0 -0.5748281920803313,-0.3060636349560981 l 8.087146412596237 -14.879438524893322" fill="red" stroke="none" /><path d="M 89.97174638481275 118.45085714620012 l -7.610113739136079 14.0017521350364 a36.936213288406506,36.936213288406506 0 0,0 -0.5544931384131402,-0.3075679967944309 l 7.849351065705322 -13.869051222808821" fill="red" stroke="none" /><line stroke="#e1ed5e" stroke-width="0.3" x1="58.13341422392154" x2="55.67067388415222" y1="173.97424548756322" y2="178.32567169271397" /><path d="M 57.64086615596768 174.84453072859336 a86.0,86.0 0 0,1 -31.369924170532247,-30.572349798747897" fill="none" id="id68" stroke="none" /><text fill="#e1ed5e" style="font-size:6.75px; font-family:Arial;" text-anchor="middle"><textPath startOffset="22.145653131862474" xlink:href="#id68">August</textPath></text><path d="M 89.65649057296885 118.27599006163327 l -9.025190382140996 15.94664662820346 a39.32347129008811,39.32347129008811 0 0,0 -0.5846230441257539,-0.33753227190046503 l 9.29760589412715 -15.789367459026824" fill="red" stroke="none" /><path d="M 89.34428304082925 118.09573695890944 l -3.602104396595574 6.117160760658695 a28.098930331797575,28.098930331797575 0 0,0 -0.41354566387302727,-0.2483222890237258 l 3.706582817026028 -6.0544244710990505" fill="red" stroke="none" /><path d="M 89.03521579738668 117.91015095944536 l -6.916485910377005 11.297559940505243 a34.246608545501466,34.246608545501466 0 0,0 -0.4987543505005293,-0.3112596024245991 l 7.1094043896672465 -11.177164541239096" fill="red" stroke="none" /><path d="M 88.72937992617639 117.7192867562869 l -6.155918656675773 9.678126599205745 a32.470024802844264,32.470024802844264 0 0,0 -0.46774519161103084,-0.30318678206518984 l 6.321149480543814 -9.57102597543666" fill="red" stroke="none" /><path d="M 88.4268655584334 117.5232005979908 l -6.095683829303506 9.229642242741878 a32.06090671128898,32.06090671128898 0 0,0 -0.45664458115819795,-0.30725085360338755 l 6.253224698558709 -9.12364171508137" fill="red" stroke="none" /><path d="M 88.1277618465304 117.32195027204791 l -9.45576859196293 13.796248964741922 a37.72567024552066,37.72567024552066 0 0,0 -0.5310425387302726,-0.37070893487568474 l 9.691206221866969 -13.631895214061108" fill="red" stroke="none" /><path d="M 87.83215693770417 117.11559508785305 l -9.64237557728285 13.563208797224389 a37.64139536368528,37.64139536368528 0 0,0 -0.5234286782008529,-0.3789219973487876 l 9.873785265857657 -13.395686028502537" fill="red" stroke="none" /><path d="M 87.54013794807813 116.9041958592261 l -10.016605869055615 13.58944960623161 a37.88210691046316,37.88210691046316 0 0,0 -0.520152014352136,-0.39033176869402864 l 10.248410872318518 -13.415498810273567" fill="red" stroke="none" /><path d="M 87.2517909369889 116.68781488649013 l -6.532260605353201 8.550938820789808 a31.76052895229317,31.76052895229317 0 0,0 -0.4304157472832165,-0.33469388843380143 l 6.678086297271646 -8.437543880735214" fill="red" stroke="none" /><path d="M 86.96720088162412 116.46651593811092 l -28.033185201400027 35.419013730059966 a66.17041073696552,66.17041073696552 0 0,0 -0.8846329447466181,-0.7125976804074085 l 28.63706891650191 -34.932567755859154" fill="red" stroke="none" /><path d="M 86.68645165197938 116.24036423190432 l -12.593473566288164 15.361990080712497 a40.86419683009378,40.86419683009378 0 0,0 -0.538678976020485,-0.4493851605779683 l 12.855326876470542 -15.143542736222658" fill="red" stroke="none" /><path d="M 86.40962598614128 116.0094264158162 l -3.6375432893736366 4.2850168484096445 a26.620773129492214,26.620773129492214 0 0,0 -0.3458425321096607,-0.29873054220429984 l 3.71056530124616 -4.221942173740623" fill="red" stroke="none" /><path d="M 86.13680546590413 115.77377054828092 l -8.6850304518249 9.88197036512647 a34.15610475202914,34.15610475202914 0 0,0 -0.43709237592165157,-0.39085069779447856 l 8.853387854569924 -9.73142413744861" fill="red" stroke="none" /><line stroke="#e1ed5e" stroke-width="0.3" x1="26.387840678322732" x2="22.057713659400548" y1="142.50000000000003" y2="145.00000000000006" /><path d="M 25.521815274538298 143.00000000000003 a86.0,86.0 0 0,1 -11.493303480769221,-40.785679425670985" fill="none" id="id69" stroke="none" /><text fill="#e1ed5e" style="font-size:6.75px; font-family:Arial;" text-anchor="middle"><textPath startOffset="21.40746469413373" xlink:href="#id69">September</textPath></text><line stroke="#e1ed5e" stroke-width="0.3" x1="15.003131293944662" x2="10.003315487706104" y1="100.72959589197737" y2="100.7725132973878" /><path d="M 14.003168132696942 100.73817937305945 a86.0,86.0 0 0,1 10.791469493833604,-42.45332614584628" fill="none" id="id70" stroke="none" /><text fill="#e1ed5e" style="font-size:6.75px; font-family:Arial;" text-anchor="middle"><textPath startOffset="22.145653131862435" xlink:href="#id70">October</textPath></text><line stroke="#e1ed5e" stroke-width="0.3" x1="26.387840678322718" x2="22.05771365940052" y1="57.49999999999999" y2="54.99999999999999" /><path d="M 25.521815274538284 56.99999999999999 a86.0,86.0 0 0,1 29.574782752854787,-30.34633250058573" fill="none" id="id71" stroke="none" /><text fill="#e1ed5e" style="font-size:6.75px; font-family:Arial;" text-anchor="middle"><textPath startOffset="21.40746469413373" xlink:href="#id71">November</textPath></text><path d="M 82.576782715395 88.27688183743585 l -7.606241969815499 -5.117819053085599 a30.16771447872962,30.16771447872962 0 0,0 0.2927852298852555,-0.4271824003951897 l 7.51726700311493 5.247636188550824" fill="red" stroke="none" /><path d="M 82.78059297857968 87.97951657250589 l -12.148440424676807 -8.480554911854457 a35.81568143437555,35.81568143437555 0 0,0 0.35625500416673506,-0.5011172783969795 l 12.001070321980098 8.687849416960956" fill="red" stroke="none" /><line stroke="#e1ed5e" stroke-width="0.3" x1="56.869717070023135" x2="54.33264160355391" y1="26.7553504044142" y2="22.446841604673864" /><path d="M 56.362301976729285 25.89364864446614 a86.0,86.0 0 0,1 42.16139366436587,-11.88097634709845" fill="none" id="id72" stroke="none" /><text fill="#e1ed5e" style="font-size:6.75px; font-family:Arial;" text-anchor="middle"><textPath startOffset="22.145653131862474" xlink:href="#id72">December</textPath></text></svg>