<?xml version="1.0" encoding="utf-8" ?>
<svg baseProfile="full" height="200mm" version="1.1" viewBox="0,0,200,200" width="200mm" xmlns="http://www.w3.org/2000/svg" xmlns:ev="http://www.w3.org/2001/xml-events" xmlns:xlink="http://www.w3.org/1999/xlink"><defs /><rect fill="#1a1a1a" height="200" width="200" x="0" y="0" /><text alignment-baseline="middle" fill="#e1ed5e" style="dominant-baseline: central; font-size:9.0px; font-family:Arial;" text-anchor="middle" x="100.0" y="100.0">2025</text><line stroke="#e1ed5e" stroke-width="0.3" x1="100.0" x2="100.0" y1="15.0" y2="10.0" /><path d="M 100.0 14.0 a86.0,86.0 0 0,1 42.46469731375804,11.215312516191453" fill="none" id="id73" stroke="none" /><text fill="#e1ed5e" style="font-size:6.75px; font-family:Arial;" text-anchor="middle"><textPath startOffset="22.20632615414155" xlink:href="#id73">January</textPath></text><path d="M 100.0 79.0 l 0.0 -18.519477518324095 a39.519477518324095,39.519477518324095 0 0,0 0.6802628416154145,0.0058552370444276995 l -0.3187823623428861 18.516733657888228" fill="#ffd013" stroke="none" /><path d="M 101.08401301168833 79.027996857942 l 1.4360184632524549 -27.782123829379515 a48.81921194961818,48.81921194961818 0 0,0 0.83884878176976,0.050601649313008513 l -1.9140292938618269 27.7532889106862" fill="#b9ff1f" stroke="none" /><path d="M 101.44485096284872 79.0497635885617 l 1.2252641198512717 -17.76624277339028 a38.808443347087845,38.808443347087845 0 0,0 0.6660449389460115,0.051697906071838606 l -1.5308992481596242 17.742519605129978" fill="#ffc612" stroke="none" /><path d="M 103.95276090670814 79.375362276772 l 4.163960809322185 -21.726632400215337 a43.122050652587745,43.122050652587745 0 0,0 0.7278049163779603,0.14599081939224884 l -4.53733213516727 21.65173762474588" fill="#ffff18" stroke="none" /><path d="M 106.74666289553966 80.11325718540242 l 9.57613138589221 -28.22700125656738 a50.80714498669952,50.80714498669952 0 0,0 0.8257806145774749,0.2880986417986731 l -10.060594004532959 28.0579817615965" fill="#a2ff22" stroke="none" /><path d="M 107.4271985657038 80.35727306442388 l 10.560936137676089 -27.930528974186878 a50.86047254954224,50.86047254954224 0 0,0 0.81623026120324,0.31668466044891475 l -11.040149563878996 27.744601609847418" fill="#a1ff22" stroke="none" /><path d="M 108.09893153111575 80.62456947434976 l 6.559567578145311 -15.69274235747899 a38.00852990444707,38.00852990444707 0 0,0 0.6014691347504895,0.25751769410691 l -6.8287204706861155 15.577505135409288" fill="#ffbb11" stroke="none" /><path d="M 108.43124777332544 80.76684994638697 l 1.6141044554469706 -3.6820544275823726 a25.02030570986495,25.02030570986495 0 0,0 0.39295924878767524,0.1763093604438648 l -1.677245822701426 3.6537247366219767" fill="#ff0000" stroke="none" /><path d="M 109.08828744355905 81.06846463323043 l 9.262318866889188 -19.294054935628342 a42.402128554211046,42.402128554211046 0 0,0 0.6552718597980429,0.32153905578845743 l -9.593061993697663 19.131760719705053" fill="#fff517" stroke="none" /><path d="M 109.41281617654863 81.2277094730956 l 7.4178909602429615 -14.79374520767891 a37.54932033552366,37.54932033552366 0 0,0 0.5752904769583337,0.2946861267014107 l -7.671441924790051 14.663866555664999" fill="#ffb510" stroke="none" /><path d="M 109.73455568895987 81.39251694778311 l 9.830322466460288 -18.79054006542249 a42.206594157121074,42.206594157121074 0 0,0 0.640846743627014,0.34231813651735643 l -10.152314256615613 18.618543202403377" fill="#fff316" stroke="none" /><line stroke="#e1ed5e" stroke-width="0.3" x1="143.23703022742887" x2="145.7803849466894" y1="26.81831364943548" y2="22.513508569990506" /><path d="M 143.74570117128098 25.957352633546492 a86.0,86.0 0 0,1 28.547481713284135,27.462654790039103" fill="none" id="id74" stroke="none" /><text fill="#e1ed5e" style="font-size:6.75px; font-family:Arial;" text-anchor="middle"><textPath startOffset="19.985693538727396" xlink:href="#id74">February</textPath></text><path d="M 110.99172775467656 82.1063720568725 l 17.138261918512697 -27.899679577786323 a53.743123585429196,53.743123585429196 0 0,0 0.7840887503936195,0.4909963035640443 l -17.61596982127858 27.600538932899337" fill="#80ff25" stroke="none" /><path d="M 111.2981086023043 82.29822771554956 l 24.020328013632653 -37.63482824093312 a65.64702066887602,65.64702066887602 0 0,0 0.9472958057947779,0.6161475428360554 l -24.664590845211713 37.215781773937536" fill="#35ff66" stroke="none" /><path d="M 111.90073688211348 82.69761687909136 l 18.369223897269396 -26.706862999550783 a53.414270281232426,53.414270281232426 0 0,0 0.7530620062921592,0.5275680604300698 l -18.826217043145206 26.386710096356776" fill="#84ff25" stroke="none" /><path d="M 113.06298171725822 83.55741782278167 l 20.62391694636559 -25.959651214907883 a54.154930876270186,54.154930876270186 0 0,0 0.7248936676330692,0.5861469329170828 l -21.06771401256315 25.60079818472667" fill="#7bff26" stroke="none" /><path d="M 113.34407831869373 83.78471172551755 l 15.173422834533017 -18.43824800008015 a44.87889758401731,44.87889758401731 0 0,0 0.5922784864282893,0.49601619936627306 l -15.488558857920424 18.174330643320058" fill="#e9ff1a" stroke="none" /><path d="M 114.16331599549186 84.49514656593476 l 22.101373980084823 -24.194797628023828 a53.76978736685055,53.76978736685055 0 0,0 0.6779912278461652,0.6301189561296977 l -22.514573091725836 23.81077408581949" fill="#80ff26" stroke="none" /><path d="M 114.94478906791727 85.2469230424477 l 23.417821857572036 -23.11741748063079 a53.906068916337496,53.906068916337496 0 0,0 0.6461944737869126,0.6659602073352855 l -23.81228059506206 22.710893077745393" fill="#7eff26" stroke="none" /><path d="M 115.4437574822437 85.77008943001954 l 24.306443344227226 -22.396007931380733 a54.0512383929649,54.0512383929649 0 0,0 0.6245655585062677,0.689660889144004 l -24.688352543349527 21.97429425496718" fill="#7dff26" stroke="none" /><path d="M 115.68641384162765 86.03803664274999 l 18.05595808544181 -16.071017105259703 a45.17219917965226,45.17219917965226 0 0,0 0.5119690926113947,0.5852691756612068 l -18.32991904163105 15.757832373395548" fill="#e6ff1a" stroke="none" /><path d="M 116.38621287248628 86.86637796730983 l 9.251573704868065 -7.4151772098195625 a32.85649480536443,32.85649480536443 0 0,0 0.3499152852002558,0.444356877750761 l -9.377843070662284 7.254827938115763" fill="#ff740a" stroke="none" /><path d="M 116.82858285166822 87.43820079747576 l 37.39755285831959 -27.915633408515337 a67.66754277213903,67.66754277213903 0 0,0 0.688718276654259,0.9394109553592425 l -37.87253374748748 27.2677600094846" fill="#38ff7e" stroke="none" /><path d="M 117.2510076193507 88.02491185347247 l 27.211660928707083 -18.889449557089204 a54.125304452468676,54.125304452468676 0 0,0 0.5246946559406569,0.7699246636729769 l -27.53278005031647 18.41824687014582" fill="#7cff26" stroke="none" /><path d="M 117.65298651832404 88.62581576622439 l 20.210015659659344 -13.02173098256461 a45.04184291492562,45.04184291492562 0 0,0 0.41432576501848817,0.655363859711559 l -20.43116902092379 12.671919475138846" fill="#e7ff1a" stroke="none" /><line stroke="#e1ed5e" stroke-width="0.3" x1="172.23445277983987" x2="176.4835382374775" y1="55.19839476539836" y2="52.563006222186495" /><path d="M 173.08426987136738 54.67131705675599 a86.0,86.0 0 0,1 12.851231095245387,41.99856678651699" fill="none" id="id75" stroke="none" /><text fill="#e1ed5e" style="font-size:6.75px; font-family:Arial;" text-anchor="middle"><textPath startOffset="22.20632615414155" xlink:href="#id75">March</textPath></text><path d="M 118.03404312379186 89.2402003453031 l 28.401250363152933 -16.945271881226322 a54.0722430645273,54.0722430645273 0 0,0 0.470017373862781,0.8034120503017531 l -28.68872741148604 16.453880418570673" fill="#7cff26" stroke="none" /><path d="M 118.3937258080291 89.86733742301442 l 28.80754352644233 -15.86938509749062 a53.8893895869219,53.8893895869219 0 0,0 0.4405891300064424,0.8163447440097921 l -29.076440755667235 15.37115937014837" fill="#7eff26" stroke="none" /><path d="M 118.73160827565052 90.50648371742162 l 29.647255869198894 -15.025762987680935 a54.237528998644144,54.237528998644144 0 0,0 0.41489123598958794,0.8363954147486219 l -29.90150711814189 14.513207984433363" fill="#7aff26" stroke="none" /><path d="M 119.04729006885535 91.15688171328212 l 48.41559369268198 -22.477991378213325 a74.37911397741536,74.37911397741536 0 0,0 0.5291460616449994,1.1659032058663257 l -48.79534207129033 21.641266163504937" fill="#40ffca" stroke="none" /><path d="M 119.47837535516314 92.15188598940014 l 29.569714329293106 -11.91405777359386 a52.87966088509309,52.87966088509309 0 0,0 0.33290629757512646,0.8472102155030017 l -29.77041417674993 11.403298553195075" fill="#8aff24" stroke="none" /><path d="M 119.7369772167798 92.82701384747503 l 22.35401411960267 -8.124092761121338 a44.78450820283446,44.78450820283446 0 0,0 0.25707783291902414,0.7267936521353683 l -22.490545033331504 7.738101482559355" fill="#eaff1a" stroke="none" /><path d="M 120.08093135843002 93.85539295169968 l 60.24279407529006 -18.433821144900946 a84.0,84.0 0 0,0 0.41117641155319085,1.3862824530138804 l -60.551176383954946 17.394109305140535" fill="#4dd2ff" stroke="none" /><path d="M 120.37134235888165 94.90015583598534 l 14.573324710798454 -3.648344996973291 a36.02305609199769,36.02305609199769 0 0,0 0.14540826623647968,0.6028111386423612 l -14.633965777295753 3.3969486266715236" fill="#ffa00e" stroke="none" /><path d="M 120.53481517161879 95.60439243477599 l 17.138132112674008 -3.668525990552656 a38.52637028180189,38.52637028180189 0 0,0 0.13322914931923774,0.6496726474499298 l -17.19874055790824 3.372977686939315" fill="#ffc212" stroke="none" /><path d="M 120.83666639777658 97.38593545837742 l 16.947585259674465 -2.126159763164794 a38.080433292877444,38.080433292877444 0 0,0 0.07599702460832733,0.6510960962433521 l -16.981672637286383 1.8341199285965892" fill="#ffbc11" stroke="none" /><path d="M 120.87857604477298 97.74499172005257 l 37.46650265303536 -4.0466013353635155 a58.684397347141854,58.684397347141854 0 0,0 0.09982739765933817,1.005248271030032 l -37.53060717637693 3.401077533629049" fill="#4aff2c" stroke="none" /><path d="M 120.94382443527127 98.46500227214037 l 29.59125647139793 -2.1687782758344714 a50.670626194365724,50.670626194365724 0 0,0 0.056267097918513864,0.8704271003923884 l -29.624204160320858 1.659092111189048" fill="#a3ff21" stroke="none" /><path d="M 120.96714384426684 98.82574320788733 l 32.88425439702589 -1.8416699654505926 a53.93578502950794,53.93578502950794 0 0,0 0.043935555664222796,0.9274101395107046 l -32.91108356092361 1.2753487193168882" fill="#7eff26" stroke="none" /><line stroke="#e1ed5e" stroke-width="0.3" x1="184.98032266829074" x2="189.97916517819016" y1="98.17113171792111" y2="98.06355123074" /><path d="M 185.9800911702706 98.14961562048488 a86.0,86.0 0 0,1 -9.607161424134198,41.387399972396054" fill="none" id="id76" stroke="none" /><text fill="#e1ed5e" style="font-size:6.75px; font-family:Arial;" text-anchor="middle"><textPath startOffset="21.466115282336823" xlink:href="#id76">April</textPath></text><path d="M 120.99513854157772 99.54816195383933 l 32.78257913980747 -0.7055164926539683 a53.790169999241336,53.790169999241336 0 0,0 0.011954206691587133,0.92586648226141 l -32.78986635361677 0.14111375233209564" fill="#7fff26" stroke="none" /><path d="M 120.99980553446 99.90962569577887 l 23.86691424129404 -0.10271313060127321 a44.86713525726291,44.86713525726291 0 0,0 -0.003323805901521849,0.7723354350311344 l -23.865146138103015 -0.30813178263354596" fill="#e9ff1a" stroke="none" /><path d="M 120.9904718944345 100.63252640178507 l 23.708656355063972 0.7144361103860437 a44.71941831323734,44.71941831323734 0 0,0 -0.029808403643817486,0.7692224473828505 l -23.692845818568955 -1.1224358047829004" fill="#ebff1a" stroke="none" /><path d="M 120.9764740272857 100.99374915477107 l 28.159323476693427 1.3340327772670015 a49.19090530855439,49.19090530855439 0 0,0 -0.04734893806818527,0.8454470964249167 l -28.13218818773771 -1.8185515900273417" fill="#b5ff20" stroke="none" /><path d="M 120.95626037817324 101.35467743843564 l 27.757159106445457 1.7943085511446502 a48.81509347166101,48.81509347166101 0 0,0 -0.061422036125871785,0.8380548829026156 l -27.722160511655247 -2.271836570544036" fill="#b9ff1f" stroke="none" /><path d="M 120.89721153311464 102.0752229133903 l 32.89745149093547 3.2669212836340495 a54.05926631478553,54.05926631478553 0 0,0 -0.09992649051817556,0.9251951976068341 l -32.83634269891624 -3.832712803125675" fill="#7cff26" stroke="none" /><path d="M 120.8583938346157 102.4346265915055 l 32.404508071079114 3.782308343587647 a53.62449999210109,53.62449999210109 0 0,0 -0.11490578890652162,0.9159121943991616 l -32.33460077292575 -4.339538292274203" fill="#81ff25" stroke="none" /><path d="M 120.81339534386255 102.79330883721812 l 32.70674806745773 4.389483162363337 a53.99998381182665,53.99998381182665 0 0,0 -0.13156954365810838,0.9201970819069887 l -32.62634447278302 -4.9518257162507355" fill="#7dff26" stroke="none" /><path d="M 120.64145759157962 103.86396538481128 l 45.82429054479215 8.578050831102264 a67.62025911548005,67.62025911548005 0 0,0 -0.22401647423175744,1.1422551758726294 l -45.669844137584725 -9.365569734042838" fill="#38ff7d" stroke="none" /><path d="M 120.49622156327973 104.57218783832717 l 38.60997940044068 8.612908369854159 a60.558977487922476,60.558977487922476 0 0,0 -0.23571697846129402,1.0154625739247702 l -38.45600185604883 -9.276239601127495" fill="#37ff2e" stroke="none" /><path d="M 120.41448212921028 104.9243191809786 l 15.824775510202475 3.8172041341214755 a37.27865373272182,37.27865373272182 0 0,0 -0.1558401912402463,0.6225040975623758 l -15.756724004667166 -4.089036071081247" fill="#ffb210" stroke="none" /><path d="M 120.02730092923936 106.31721596034902 l 42.91060695236777 13.535302238955111 a65.99471742016452,65.99471742016452 0 0,0 -0.3510533965631167,1.0804312592717678 l -42.67126130478841 -14.271932398204674" fill="#35ff6a" stroke="none" /><path d="M 119.79798401119884 107.00284435728193 l 31.049236372854672 10.982581338007238 a53.93436157242685,53.93436157242685 0 0,0 -0.3171231024936527,0.8725865791095185 l -30.855589009355793 -11.515415714122888" fill="#7eff26" stroke="none" /><path d="M 119.67450827220406 107.3425965602758 l 26.397211237708973 9.851533250704314 a49.1756183342613,49.1756183342613 0 0,0 -0.30279470262601976,0.7905014207645041 l -26.223722255489445 -10.304458238301962" fill="#b5ff20" stroke="none" /><path d="M 119.26925614724726 108.34839909993367 l 27.210138031548304 11.78878365183288 a50.654123350482536,50.654123350482536 0 0,0 -0.35351492248262006,0.7970828249843593 l -27.00318202433441 -12.255414813309926" fill="#a3ff21" stroke="none" /><path d="M 119.12269723197855 108.67885076344098 l 21.593698218992728 9.800316451176114 a44.713582717845966,44.713582717845966 0 0,0 -0.32412106008038083,0.6981279282499894 l -21.421802542072516 -10.170564446704933" fill="#ebff1a" stroke="none" /><path d="M 118.81262510543309 109.33194174019688 l 25.290668784560165 12.545354321655578 a49.23125648330602,49.23125648330602 0 0,0 -0.3831160677426303,0.7559243478869738 l -25.070974047031267 -12.978832881245246" fill="#b4ff20" stroke="none" /><path d="M 118.64920377521936 109.65438752849418 l 28.957271550960144 14.990705484825488 a53.60743514305936,53.60743514305936 0 0,0 -0.43127817656745715,0.8158157786412218 l -28.694940866167794 -15.486936278552845" fill="#81ff25" stroke="none" /><line stroke="#e1ed5e" stroke-width="0.3" x1="174.80103733775053" x2="179.2010983576182" y1="140.37084112569926" y2="142.7455964860345" /><path d="M 175.68104954172406 140.8457921977663 a86.0,86.0 0 0,1 -30.038265399797805,32.042727171017184" fill="none" id="id77" stroke="none" /><text fill="#e1ed5e" style="font-size:6.75px; font-family:Arial;" text-anchor="middle"><textPath startOffset="22.206326154141568" xlink:href="#id77">May</textPath></text><path d="M 118.48025628344425 109.97397251340804 l 16.12714455439059 8.703975423184518 a39.32604648159581,39.32604648159581 0 0,0 -0.32663762997127477,0.592942176711024 l -15.974930514967804 -8.980288118293348" fill="#ffcd13" stroke="none" /><path d="M 118.12598468904814 110.60418214915192 l 27.010483770658126 15.801849927294182 a52.2932052473011,52.2932052473011 0 0,0 -0.46122388965895145,0.7730377686169689 l -26.73447900530095 -16.264449789797254" fill="#90ff24" stroke="none" /><path d="M 117.55443506779139 111.5257021239791 l 33.28342270364756 21.852871611492393 a60.81625578250737,60.81625578250737 0 0,0 -0.5820894548967266,0.8701447561362431 l -32.90233014334011 -22.422553281834443" fill="#34ff2f" stroke="none" /><path d="M 116.71984013943494 112.70617746262583 l 25.26306286091235 19.198566330974053 a52.730226823633316,52.730226823633316 0 0,0 -0.5554079380920303,0.717939629727448 l -24.92884810560225 -19.630583954814753" fill="#8bff24" stroke="none" /><path d="M 116.498646956653 112.99209946851258 l 19.054474393165997 15.004722950109066 a45.253138048701004,45.253138048701004 0 0,0 -0.4871868541009646,0.6078405088942668 l -18.79336962701018 -15.330491292581582" fill="#e5ff1a" stroke="none" /><path d="M 116.0416608686014 113.55231037782055 l 6.9234993673873815 5.849108337100671 a30.063493356832897,30.063493356832897 0 0,0 -0.3373660665717526,0.39243295277681745 l -6.82179079124485 -5.9674183890390164" fill="#ff4c07" stroke="none" /><path d="M 115.80600337817218 113.82643327865902 l 16.434814313829758 14.376490888969752 a42.83544393436263,42.83544393436263 0 0,0 -0.4902438033813726,0.5507941101378492 l -16.184911660800047 -14.657259168848467" fill="#fffb17" stroke="none" /><path d="M 115.07121518719521 114.62390073753431 l 23.76939587910828 23.063918974666723 a54.119911517511056,54.119911517511056 0 0,0 -0.6544885190969918,0.6629934144192872 l -23.368866734955756 -23.469652883066676" fill="#7cff26" stroke="none" /><path d="M 114.81725581225074 114.88116024355365 l 13.456124205181908 13.514158295688906 a40.07091379735695,40.07091379735695 0 0,0 -0.4929677375186958,0.48247268711715213 l -13.221506515287418 -13.743781085728632" fill="#ffd714" stroke="none" /><path d="M 114.29624159901734 115.38237550388516 l 16.18893586023062 17.418864159898945 a44.78021179274215,44.78021179274215 0 0,0 -0.5691361286881967,0.5198923594693017 l -15.88670018207556 -17.694949285954827" fill="#eaff1a" stroke="none" /><path d="M 114.0293411484842 115.62618273729858 l 12.881391365438688 14.34757151149275 a40.28167658132966,40.28167658132966 0 0,0 -0.5199360226244298,0.45878308804129514 l -12.63251298990767 -14.567177741306335" fill="#ffda14" stroke="none" /><path d="M 113.20401910651253 116.32954008644616 l 23.305482812785744 28.822119443742846 a58.065618818069545,58.065618818069545 0 0,0 -0.782620873199284,0.6217613540233143 l -22.805904446869107 -29.219014711771287" fill="#51ff2b" stroke="none" /><path d="M 112.92097659922987 116.55440617244103 l 9.54003518504651 12.222730699941948 a36.50507713928663,36.50507713928663 0 0,0 -0.49867894739953567,0.38236575210476487 l -9.328227509153479 -12.385135793874085" fill="#ffa70f" stroke="none" /><path d="M 112.34349029814194 116.9893568818739 l 12.231349854454164 16.835008802628426 a41.809215281856076,41.809215281856076 0 0,0 -0.5858718810253828,0.41800403124838287 l -11.939750645579895 -17.04305709572103" fill="#ffee16" stroke="none" /><path d="M 111.7513745106137 117.40417183066458 l 18.301280917489436 27.10479846604893 a53.70484647733408,53.70484647733408 0 0,0 -0.7706013830431746,0.5107125770719311 l -17.832004835706297 -27.41580906421218" fill="#80ff25" stroke="none" /><path d="M 111.1453310114006 117.79835938074945 l 10.09123900400108 16.11504388757285 a40.013882931539044,40.013882931539044 0 0,0 -0.5869099159232187,0.36052800655363304 l -9.812349888145553 -16.286360360954863" fill="#ffd614" stroke="none" /><line stroke="#e1ed5e" stroke-width="0.3" x1="143.8653032363475" x2="146.44561519142675" y1="172.8068346515853" y2="177.08958963109032" /><path d="M 144.38136562736335 173.6633856474863 a86.0,86.0 0 0,1 -40.68145358897372,12.25698825130547" fill="none" id="id78" stroke="none" /><text fill="#e1ed5e" style="font-size:6.75px; font-family:Arial;" text-anchor="middle"><textPath startOffset="21.466115282336833" xlink:href="#id78">June</textPath></text><path d="M 110.21172684928248 118.3499491758327 l 11.603041099349255 20.850069493693603 a44.861181040448116,44.861181040448116 0 0,0 -0.6779959759461387,0.36969746438794726 l -11.242422311534467 -21.046707609841324" fill="#e9ff1a" stroke="none" /><path d="M 109.89434966115114 118.52300852407294 l 8.555666238299555 16.01688681807794 a39.15874687648621,39.15874687648621 0 0,0 -0.5972810890571766,0.3124692365471215 l -8.278694246715883 -16.16178547356978" fill="#ffcb12" stroke="none" /><path d="M 107.93186726928326 119.44442032107085 l 5.5964778200681105 13.719375697620295 a35.81694413578484,35.81694413578484 0 0,0 -0.5728646026569524,0.22795464797519946 l -5.359492141369292 -13.813677190001563" fill="#ff9e0e" stroke="none" /><path d="M 105.53697534728816 120.25689768951611 l 5.028092053564256 18.39515979647713 a40.06996627257229,40.06996627257229 0 0,0 -0.6668969604040463,0.17613354857485936 l -4.710704650348712 -18.478984694355574" fill="#ffd714" stroke="none" /><path d="M 104.48393922423573 120.51570834832081 l 4.749462714983199 21.73057818115885 a43.24354792222843,43.24354792222843 0 0,0 -0.7285684044272522,0.15267859288564023 l -4.374702849126569 -21.809112754771032" fill="#feff18" stroke="none" /><path d="M 103.06178313531738 120.77559828337769 l 4.010072095495958 27.21017239347055 a48.504075332456864,48.504075332456864 0 0,0 -0.8270439327368064,0.11462075303584329 l -3.541099571572321 -27.275167711998996" fill="#bdff1f" stroke="none" /><path d="M 101.26447882468166 120.96189622390904 l 0.8280579585868759 13.727129831256692 a34.7520825109129,34.7520825109129 0 0,0 -0.5974245920913714,0.030880027384263747 l -0.5916452980820248 -13.739349665403157" fill="#ff8f0d" stroke="none" /><line stroke="#e1ed5e" stroke-width="0.3" x1="102.19456741930631" x2="102.32365962044197" y1="184.97166512339345" y2="189.96999836594603" /><path d="M 102.22038585953345 185.97133177190398 a86.0,86.0 0 0,1 -42.740103519485714,-10.115201625700543" fill="none" id="id79" stroke="none" /><text fill="#e1ed5e" style="font-size:6.75px; font-family:Arial;" text-anchor="middle"><textPath startOffset="22.20632615414155" xlink:href="#id79">July</textPath></text><path d="M 100.54218724476979 120.99299961872073 l 0.5627765053751617 21.79019716294133 a42.79746337982607,42.79746337982607 0 0,0 -0.7366061159910249,0.012681342298823816 l -0.1876106994914688 -21.79665598251931" fill="#fffa17" stroke="none" /><path d="M 99.81925306533755 120.99922214144158 l -0.1905439086286225 22.137436922310865 a43.13825694291237,43.13825694291237 0 0,0 -0.7424716650921913,-0.012782323045939084 l 0.5715752636134817 -22.130877121985765" fill="#ffff18" stroke="none" /><line stroke="#e1ed5e" stroke-width="0.3" x1="58.666819895761336" x2="56.23545636021788" y1="174.27360380694188" y2="178.64263932499728" /><path d="M 58.180547188652646 175.14741091055294 a86.0,86.0 0 0,1 -31.652253787137756,-30.449443065178592" fill="none" id="id80" stroke="none" /><text fill="#e1ed5e" style="font-size:6.75px; font-family:Arial;" text-anchor="middle"><textPath startOffset="22.20632615414155" xlink:href="#id80">August</textPath></text><line stroke="#e1ed5e" stroke-width="0.3" x1="26.63291911575756" x2="22.317208475507996" y1="142.92168965132927" y2="145.44649492493687" /><path d="M 25.769776987707644 143.4266507060508 a86.0,86.0 0 0,1 -11.730757126820373,-40.83630448921669" fill="none" id="id81" stroke="none" /><text fill="#e1ed5e" style="font-size:6.75px; font-family:Arial;" text-anchor="middle"><textPath startOffset="21.46611528233685" xlink:href="#id81">September</textPath></text><line stroke="#e1ed5e" stroke-width="0.3" x1="15.007084014347285" x2="10.007500721073583" y1="101.09737516637583" y2="101.16192664675087" /><path d="M 14.007167355692545 101.11028546245083 a86.0,86.0 0 0,1 10.666146001902534,-42.60595125391555" fill="none" id="id82" stroke="none" /><text fill="#e1ed5e" style="font-size:6.75px; font-family:Arial;" text-anchor="middle"><textPath startOffset="22.20632615414155" xlink:href="#id82">October</textPath></text><line stroke="#e1ed5e" stroke-width="0.3" x1="26.266209847984243" x2="21.928928074336255" y1="57.711370442889674" y2="55.22380399835377" /><path d="M 25.398753493254645 57.213857153982495 a86.0,86.0 0 0,1 29.58750427330803,-30.492523968695096" fill="none" id="id83" stroke="none" /><text fill="#e1ed5e" style="font-size:6.75px; font-family:Arial;" text-anchor="middle"><textPath startOffset="21.46611528233685" xlink:href="#id83">November</textPath></text><line stroke="#e1ed5e" stroke-width="0.3" x1="56.762969772571076" x2="54.21961505331055" y1="26.818313649435495" y2="22.513508569990535" /><path d="M 56.25429882871897 25.957352633546506 a86.0,86.0 0 0,1 42.265352541879196,-11.944610805530505" fill="none" id="id84" stroke="none" /><text fill="#e1ed5e" style="font-size:6.75px; font-family:Arial;" text-anchor="middle"><textPath startOffset="22.20632615414155" xlink:href="#id84">December</textPath></text></svg>