<?xml version="1.0" encoding="utf-8" ?>
<svg baseProfile="full" height="200mm" version="1.1" viewBox="0,0,200,200" width="200mm" xmlns="http://www.w3.org/2000/svg" xmlns:ev="http://www.w3.org/2001/xml-events" xmlns:xlink="http://www.w3.org/1999/xlink"><defs /><rect fill="#1a1a1a" height="200" width="200" x="0" y="0" /><text alignment-baseline="middle" fill="#e1ed5e" style="dominant-baseline: central; font-size:9.0px; font-family:Arial;" text-anchor="middle" x="100.0" y="100.0">2025</text><line stroke="#e1ed5e" stroke-width="0.3" x1="100.0" x2="100.0" y1="15.0" y2="10.0" /><path d="M 100.0 14.0 a86.0,86.0 0 0,1 42.46469731375804,11.215312516191453" fill="none" id="id73" stroke="none" /><text fill="#e1ed5e" style="font-size:6.75px; font-family:Arial;" text-anchor="middle"><textPath startOffset="22.20632615414155" xlink:href="#id73">January</textPath></text><path d="M 100.0 79.0 l 0.0 -25.000825292026406 a46.000825292026406,46.000825292026406 0 0,0 0.7918285892139786,0.006815518656572103 l -0.43034810994145023 24.997121149978394" fill="red" stroke="none" /><path d="M 101.08401301168833 79.027996857942 l 1.9385885309332294 -37.50516305940666 a58.555231081767396,58.555231081767396 0 0,0 1.0061404577746678,0.06069314006337507 l -2.583891037547509 37.46623664996299" fill="red" stroke="none" /><path d="M 101.44485096284872 79.0497635885617 l 1.6540755087005405 -23.983977476350102 a45.04094718131031,45.04094718131031 0 0,0 0.7730094878360401,0.06000041372287494 l -2.0666751858989216 23.951951800438763" fill="red" stroke="none" /><path d="M 103.95276090670814 79.375362276772 l 5.621241561145808 -29.330403100433635 a50.864207719654644,50.864207719654644 0 0,0 0.8584754176993884,0.17220209267307457 l -6.125283388312322 29.229297051683353" fill="red" stroke="none" /><path d="M 106.74666289553966 80.11325718540242 l 12.927534673442949 -38.10573631113502 a61.23889029964449,61.23889029964449 0 0,0 0.9953302528792233,0.3472511814077355 l -13.581546930385446 37.87756427655507" fill="red" stroke="none" /><path d="M 107.4271985657038 80.35727306442388 l 14.25699612945568 -37.70550624371603 a61.310881157948195,61.310881157948195 0 0,0 0.9839428151872976,0.3817545258238727 l -14.903922109642645 37.45450901400161" fill="red" stroke="none" /><path d="M 108.09893153111575 80.62456947434976 l 8.855249984789648 -21.184804465672556 a43.9610843067547,43.9610843067547 0 0,0 0.6956658257278031,0.2978478012586956 l -9.218599568307766 21.02923713645107" fill="red" stroke="none" /><path d="M 108.43124777332544 80.76684994638697 l 2.1790001069837373 -4.970680159234296 a26.427310817673945,26.427310817673945 0 0,0 0.4150571270716744,0.18622403429220422 l -2.2642393525221918 4.932435794425561" fill="red" stroke="none" /><path d="M 109.08828744355905 81.06846463323043 l 12.503895726054585 -26.04648517449403 a49.892331132554595,49.892331132554595 0 0,0 0.7710235718259014,0.3783379181763616 l -12.950390564890919 25.827392096182837" fill="red" stroke="none" /><path d="M 109.41281617654863 81.2277094730956 l 10.013964797270303 -19.971181097629753 a43.341163026917215,43.341163026917215 0 0,0 0.6640268885531714,0.3401403632612117 l -10.35625217341223 19.79584820905604" fill="red" stroke="none" /><path d="M 109.73455568895987 81.39251694778311 l 13.27068618999011 -25.36675286079899 a49.62836465210767,49.62836465210767 0 0,0 0.7535357096201809,0.40251267948487185 l -13.705366946138602 25.134561454812363" fill="red" stroke="none" /><line stroke="#e1ed5e" stroke-width="0.3" x1="143.23703022742887" x2="145.7803849466894" y1="26.81831364943548" y2="22.513508569990506" /><path d="M 143.74570117128098 25.957352633546492 a86.0,86.0 0 0,1 28.547481713284135,27.462654790039103" fill="none" id="id74" stroke="none" /><text fill="#e1ed5e" style="font-size:6.75px; font-family:Arial;" text-anchor="middle"><textPath startOffset="19.985693538727396" xlink:href="#id74">February</textPath></text><path d="M 110.99172775467656 82.1063720568725 l 23.13621923781462 -37.6638603404225 a65.20238699847638,65.20238699847638 0 0,0 0.9512744093307104,0.5956879478528088 l -23.781112799517594 37.26002805124675" fill="red" stroke="none" /><path d="M 111.2981086023043 82.29822771554956 l 32.42683404711637 -50.80606430802466 a81.27234636871509,81.27234636871509 0 0,0 1.172771468647709,0.762803185969201 l -33.296572541548365 50.240362197895934" fill="red" stroke="none" /><path d="M 111.90073688211348 82.69761687909136 l 24.797986711630934 -36.05358819055258 a64.7584433722702,64.7584433722702 0 0,0 0.9129980253126052,0.6396134625915331 l -25.41491587652719 35.62138988519711" fill="red" stroke="none" /><path d="M 113.06298171725822 83.55741782278167 l 27.841765184961282 -35.04487121862307 a65.75831640426613,65.75831640426613 0 0,0 0.8802113932076228,0.7117363987078977 l -28.4408799767334 34.56042872265105" fill="red" stroke="none" /><path d="M 113.34407831869373 83.78471172551755 l 20.48373627133153 -24.891167501078314 a53.23590655154901,53.23590655154901 0 0,0 0.7025681078052644,0.5883805855097768 l -20.90916191609591 24.534885758174717" fill="red" stroke="none" /><path d="M 114.16331599549186 84.49514656593476 l 29.83629473580537 -32.66236360478585 a65.23838242762824,65.23838242762824 0 0,0 0.8226004448006077,0.7645174632070509 l -30.394103064400827 32.14394155550416" fill="red" stroke="none" /><path d="M 114.94478906791727 85.2469230424477 l 31.613466006352926 -31.207927710931955 a65.4223590655155,65.4223590655155 0 0,0 0.7842450347446248,0.8082334453891087 l -32.14597530480066 30.659130069992734" fill="red" stroke="none" /><path d="M 115.4437574822437 85.77008943001954 l 32.81308249211097 -30.234043102850833 a65.6183341797867,65.6183341797867 0 0,0 0.7582240990908282,0.8372499879756728 l -33.32865023181784 29.664740327605614" fill="red" stroke="none" /><path d="M 115.68641384162765 86.03803664274999 l 24.375085805073656 -21.695465788179828 a53.6318562722194,53.6318562722194 0 0,0 0.6078484840100777,0.6948758944585839 l -24.74492615266158 21.272674337518296" fill="red" stroke="none" /><path d="M 116.38621287248628 86.86637796730983 l 12.489390029651496 -10.010301302976018 a37.00596749619096,37.00596749619096 0 0,0 0.39410636305692903,0.5004750589545176 l -12.65985047330239 9.793833850068461" fill="red" stroke="none" /><path d="M 116.82858285166822 87.43820079747576 l 50.48574855500462 -37.68539760757273 a84.0,84.0 0 0,0 0.8549495499454944,1.1661502253140252 l -51.126960717463746 36.81078493858721" fill="red" stroke="none" /><path d="M 117.2510076193507 88.02491185347247 l 36.73505260131287 -25.500278167786497 a65.71832148298628,65.71832148298628 0 0,0 0.6370782100596615,0.9348336619404084 l -37.16855527704127 24.864166482575683" fill="red" stroke="none" /><line stroke="#e1ed5e" stroke-width="0.3" x1="172.23445277983987" x2="176.4835382374775" y1="55.19839476539836" y2="52.563006222186495" /><path d="M 173.08426987136738 54.67131705675599 a86.0,86.0 0 0,1 12.851231095245387,41.99856678651699" fill="none" id="id75" stroke="none" /><text fill="#e1ed5e" style="font-size:6.75px; font-family:Arial;" text-anchor="middle"><textPath startOffset="22.20632615414155" xlink:href="#id75">March</textPath></text><line stroke="#e1ed5e" stroke-width="0.3" x1="184.98032266829074" x2="189.97916517819016" y1="98.17113171792111" y2="98.06355123074" /><path d="M 185.9800911702706 98.14961562048488 a86.0,86.0 0 0,1 -9.607161424134198,41.387399972396054" fill="none" id="id76" stroke="none" /><text fill="#e1ed5e" style="font-size:6.75px; font-family:Arial;" text-anchor="middle"><textPath startOffset="21.466115282336823" xlink:href="#id76">April</textPath></text><line stroke="#e1ed5e" stroke-width="0.3" x1="174.80103733775053" x2="179.2010983576182" y1="140.37084112569926" y2="142.7455964860345" /><path d="M 175.68104954172406 140.8457921977663 a86.0,86.0 0 0,1 -30.038265399797805,32.042727171017184" fill="none" id="id77" stroke="none" /><text fill="#e1ed5e" style="font-size:6.75px; font-family:Arial;" text-anchor="middle"><textPath startOffset="22.206326154141568" xlink:href="#id77">May</textPath></text><line stroke="#e1ed5e" stroke-width="0.3" x1="143.8653032363475" x2="146.44561519142675" y1="172.8068346515853" y2="177.08958963109032" /><path d="M 144.38136562736335 173.6633856474863 a86.0,86.0 0 0,1 -40.68145358897372,12.25698825130547" fill="none" id="id78" stroke="none" /><text fill="#e1ed5e" style="font-size:6.75px; font-family:Arial;" text-anchor="middle"><textPath startOffset="21.466115282336833" xlink:href="#id78">June</textPath></text><line stroke="#e1ed5e" stroke-width="0.3" x1="102.19456741930631" x2="102.32365962044197" y1="184.97166512339345" y2="189.96999836594603" /><path d="M 102.22038585953345 185.97133177190398 a86.0,86.0 0 0,1 -42.740103519485714,-10.115201625700543" fill="none" id="id79" stroke="none" /><text fill="#e1ed5e" style="font-size:6.75px; font-family:Arial;" text-anchor="middle"><textPath startOffset="22.20632615414155" xlink:href="#id79">July</textPath></text><line stroke="#e1ed5e" stroke-width="0.3" x1="58.666819895761336" x2="56.23545636021788" y1="174.27360380694188" y2="178.64263932499728" /><path d="M 58.180547188652646 175.14741091055294 a86.0,86.0 0 0,1 -31.652253787137756,-30.449443065178592" fill="none" id="id80" stroke="none" /><text fill="#e1ed5e" style="font-size:6.75px; font-family:Arial;" text-anchor="middle"><textPath startOffset="22.20632615414155" xlink:href="#id80">August</textPath></text><line stroke="#e1ed5e" stroke-width="0.3" x1="26.63291911575756" x2="22.317208475507996" y1="142.92168965132927" y2="145.44649492493687" /><path d="M 25.769776987707644 143.4266507060508 a86.0,86.0 0 0,1 -11.730757126820373,-40.83630448921669" fill="none" id="id81" stroke="none" /><text fill="#e1ed5e" style="font-size:6.75px; font-family:Arial;" text-anchor="middle"><textPath startOffset="21.46611528233685" xlink:href="#id81">September</textPath></text><line stroke="#e1ed5e" stroke-width="0.3" x1="15.007084014347285" x2="10.007500721073583" y1="101.09737516637583" y2="101.16192664675087" /><path d="M 14.007167355692545 101.11028546245083 a86.0,86.0 0 0,1 10.666146001902534,-42.60595125391555" fill="none" id="id82" stroke="none" /><text fill="#e1ed5e" style="font-size:6.75px; font-family:Arial;" text-anchor="middle"><textPath startOffset="22.20632615414155" xlink:href="#id82">October</textPath></text><line stroke="#e1ed5e" stroke-width="0.3" x1="26.266209847984243" x2="21.928928074336255" y1="57.711370442889674" y2="55.22380399835377" /><path d="M 25.398753493254645 57.213857153982495 a86.0,86.0 0 0,1 29.58750427330803,-30.492523968695096" fill="none" id="id83" stroke="none" /><text fill="#e1ed5e" style="font-size:6.75px; font-family:Arial;" text-anchor="middle"><textPath startOffset="21.46611528233685" xlink:href="#id83">November</textPath></text><line stroke="#e1ed5e" stroke-width="0.3" x1="56.762969772571076" x2="54.21961505331055" y1="26.818313649435495" y2="22.513508569990535" /><path d="M 56.25429882871897 25.957352633546506 a86.0,86.0 0 0,1 42.265352541879196,-11.944610805530505" fill="none" id="id84" stroke="none" /><text fill="#e1ed5e" style="font-size:6.75px; font-family:Arial;" text-anchor="middle"><textPath startOffset="22.20632615414155" xlink:href="#id84">December</textPath></text></svg>