<?xml version="1.0" encoding="utf-8" ?>
<svg baseProfile="full" height="200mm" version="1.1" viewBox="0,0,200,200" width="200mm" xmlns="http://www.w3.org/2000/svg" xmlns:ev="http://www.w3.org/2001/xml-events" xmlns:xlink="http://www.w3.org/1999/xlink"><defs /><rect fill="#1a1a1a" height="200" width="200" x="0" y="0" /><text alignment-baseline="middle" fill="#e1ed5e" style="dominant-baseline: central; font-size:9.0px; font-family:Arial;" text-anchor="middle" x="100.0" y="100.0">2025</text><line stroke="#e1ed5e" stroke-width="0.3" x1="100.0" x2="100.0" y1="15.0" y2="10.0" /><path d="M 100.0 14.0 a86.0,86.0 0 0,1 42.46469731375804,11.215312516191453" fill="none" id="id73" stroke="none" /><text fill="#e1ed5e" style="font-size:6.75px; font-family:Arial;" text-anchor="middle"><textPath startOffset="22.20632615414155" xlink:href="#id73">January</textPath></text><path d="M 100.0 79.0 l 0.0 -26.132249502322495 a47.132249502322495,47.132249502322495 0 0,0 0.8113041971091391,0.0069831513623946 l -0.4498237178366108 26.128377727568658" fill="red" stroke="none" /><path d="M 101.08401301168833 79.027996857942 l 2.0263202746688935 -39.202477008080535 a60.25481088254811,60.25481088254811 0 0,0 1.0353439288769197,0.062454773191483175 l -2.700826252385425 39.16178896550875" fill="red" stroke="none" /><path d="M 101.44485096284872 79.0497635885617 l 1.7289314806271345 -25.06938375630172 a46.12893165228932,46.12893165228932 0 0,0 0.7916818819866238,0.061449750880906366 l -2.1602035519760996 25.035908743232344" fill="red" stroke="none" /><path d="M 103.95276090670814 79.375362276772 l 5.875633515007882 -30.657764408628445 a52.215726609157265,52.215726609157265 0 0,0 0.8812860697317416,0.17677769487929176 l -6.402485994206749 30.552082757671947" fill="red" stroke="none" /><path d="M 106.74666289553966 80.11325718540242 l 13.512576388591464 -39.83022948725938 a63.059920371599205,63.059920371599205 0 0,0 1.0249278878649422,0.35757721508945556 l -14.19618628051968 39.59173141899771" fill="red" stroke="none" /><path d="M 107.4271985657038 80.35727306442388 l 14.902203253562433 -39.411886818249165 a63.13516921035169,63.13516921035169 0 0,0 1.0132197573563428,0.3931135245408756 l -15.578406175918444 39.14953058981774" fill="red" stroke="none" /><path d="M 108.09893153111575 80.62456947434976 l 9.25599852424728 -22.143532842951164 a45.00019907100199,45.00019907100199 0 0,0 0.7121093835220537,0.3048880745519307 l -9.63579166555965 21.98092524043644" fill="red" stroke="none" /><path d="M 108.43124777332544 80.76684994638697 l 2.277611790657454 -5.195630648192345 a26.672926343729262,26.672926343729262 0 0,0 0.418914669570495,0.18795480116676014 l -2.366708578694729 5.155655516509053" fill="red" stroke="none" /><path d="M 109.08828744355905 81.06846463323043 l 13.069765459642458 -27.225231218887192 a51.19986728599867,51.19986728599867 0 0,0 0.7912299075980567,0.3882530793846054 l -13.536466634250946 26.996222979367754" fill="red" stroke="none" /><path d="M 109.41281617654863 81.2277094730956 l 10.467151525321952 -20.87498637358088 a44.35222295952223,44.35222295952223 0 0,0 0.6795172661595944,0.348075136320752 l -10.824929279070302 20.69171871194763" fill="red" stroke="none" /><path d="M 109.73455568895987 81.39251694778311 l 13.87125738982908 -26.51473729683515 a50.92395487723955,50.92395487723955 0 0,0 0.7732073934750762,0.41302061172660237 l -14.325609829832466 26.27203795860679" fill="red" stroke="none" /><line stroke="#e1ed5e" stroke-width="0.3" x1="143.23703022742887" x2="145.7803849466894" y1="26.81831364943548" y2="22.513508569990506" /><path d="M 143.74570117128098 25.957352633546492 a86.0,86.0 0 0,1 28.547481713284135,27.462654790039103" fill="none" id="id74" stroke="none" /><text fill="#e1ed5e" style="font-size:6.75px; font-family:Arial;" text-anchor="middle"><textPath startOffset="19.985693538727396" xlink:href="#id74">February</textPath></text><path d="M 110.99172775467656 82.1063720568725 l 24.18325981646024 -39.36835620984307 a67.20278699402786,67.20278699402786 0 0,0 0.9804593734369762,0.6139635696987187 l -24.85733834226948 38.94624829882141" fill="red" stroke="none" /><path d="M 111.2981086023043 82.29822771554956 l 33.894325806912875 -53.10531685335132 a84.0,84.0 0 0,0 1.2121318968628794,0.7884043033618879 l -34.803424729560035 52.514013625829904" fill="red" stroke="none" /><path d="M 111.90073688211348 82.69761687909136 l 25.920231365733933 -37.685210429833056 a66.73875248838752,66.73875248838752 0 0,0 0.9409174473736035,0.6591728019579849 l -26.56507995269119 37.23345278511113" fill="red" stroke="none" /><line stroke="#e1ed5e" stroke-width="0.3" x1="172.23445277983987" x2="176.4835382374775" y1="55.19839476539836" y2="52.563006222186495" /><path d="M 173.08426987136738 54.67131705675599 a86.0,86.0 0 0,1 12.851231095245387,41.99856678651699" fill="none" id="id75" stroke="none" /><text fill="#e1ed5e" style="font-size:6.75px; font-family:Arial;" text-anchor="middle"><textPath startOffset="22.20632615414155" xlink:href="#id75">March</textPath></text><line stroke="#e1ed5e" stroke-width="0.3" x1="184.98032266829074" x2="189.97916517819016" y1="98.17113171792111" y2="98.06355123074" /><path d="M 185.9800911702706 98.14961562048488 a86.0,86.0 0 0,1 -9.607161424134198,41.387399972396054" fill="none" id="id76" stroke="none" /><text fill="#e1ed5e" style="font-size:6.75px; font-family:Arial;" text-anchor="middle"><textPath startOffset="21.466115282336823" xlink:href="#id76">April</textPath></text><line stroke="#e1ed5e" stroke-width="0.3" x1="174.80103733775053" x2="179.2010983576182" y1="140.37084112569926" y2="142.7455964860345" /><path d="M 175.68104954172406 140.8457921977663 a86.0,86.0 0 0,1 -30.038265399797805,32.042727171017184" fill="none" id="id77" stroke="none" /><text fill="#e1ed5e" style="font-size:6.75px; font-family:Arial;" text-anchor="middle"><textPath startOffset="22.206326154141568" xlink:href="#id77">May</textPath></text><line stroke="#e1ed5e" stroke-width="0.3" x1="143.8653032363475" x2="146.44561519142675" y1="172.8068346515853" y2="177.08958963109032" /><path d="M 144.38136562736335 173.6633856474863 a86.0,86.0 0 0,1 -40.68145358897372,12.25698825130547" fill="none" id="id78" stroke="none" /><text fill="#e1ed5e" style="font-size:6.75px; font-family:Arial;" text-anchor="middle"><textPath startOffset="21.466115282336833" xlink:href="#id78">June</textPath></text><line stroke="#e1ed5e" stroke-width="0.3" x1="102.19456741930631" x2="102.32365962044197" y1="184.97166512339345" y2="189.96999836594603" /><path d="M 102.22038585953345 185.97133177190398 a86.0,86.0 0 0,1 -42.740103519485714,-10.115201625700543" fill="none" id="id79" stroke="none" /><text fill="#e1ed5e" style="font-size:6.75px; font-family:Arial;" text-anchor="middle"><textPath startOffset="22.20632615414155" xlink:href="#id79">July</textPath></text><line stroke="#e1ed5e" stroke-width="0.3" x1="58.666819895761336" x2="56.23545636021788" y1="174.27360380694188" y2="178.64263932499728" /><path d="M 58.180547188652646 175.14741091055294 a86.0,86.0 0 0,1 -31.652253787137756,-30.449443065178592" fill="none" id="id80" stroke="none" /><text fill="#e1ed5e" style="font-size:6.75px; font-family:Arial;" text-anchor="middle"><textPath startOffset="22.20632615414155" xlink:href="#id80">August</textPath></text><line stroke="#e1ed5e" stroke-width="0.3" x1="26.63291911575756" x2="22.317208475507996" y1="142.92168965132927" y2="145.44649492493687" /><path d="M 25.769776987707644 143.4266507060508 a86.0,86.0 0 0,1 -11.730757126820373,-40.83630448921669" fill="none" id="id81" stroke="none" /><text fill="#e1ed5e" style="font-size:6.75px; font-family:Arial;" text-anchor="middle"><textPath startOffset="21.46611528233685" xlink:href="#id81">September</textPath></text><line stroke="#e1ed5e" stroke-width="0.3" x1="15.007084014347285" x2="10.007500721073583" y1="101.09737516637583" y2="101.16192664675087" /><path d="M 14.007167355692545 101.11028546245083 a86.0,86.0 0 0,1 10.666146001902534,-42.60595125391555" fill="none" id="id82" stroke="none" /><text fill="#e1ed5e" style="font-size:6.75px; font-family:Arial;" text-anchor="middle"><textPath startOffset="22.20632615414155" xlink:href="#id82">October</textPath></text><line stroke="#e1ed5e" stroke-width="0.3" x1="26.266209847984243" x2="21.928928074336255" y1="57.711370442889674" y2="55.22380399835377" /><path d="M 25.398753493254645 57.213857153982495 a86.0,86.0 0 0,1 29.58750427330803,-30.492523968695096" fill="none" id="id83" stroke="none" /><text fill="#e1ed5e" style="font-size:6.75px; font-family:Arial;" text-anchor="middle"><textPath startOffset="21.46611528233685" xlink:href="#id83">November</textPath></text><line stroke="#e1ed5e" stroke-width="0.3" x1="56.762969772571076" x2="54.21961505331055" y1="26.818313649435495" y2="22.513508569990535" /><path d="M 56.25429882871897 25.957352633546506 a86.0,86.0 0 0,1 42.265352541879196,-11.944610805530505" fill="none" id="id84" stroke="none" /><text fill="#e1ed5e" style="font-size:6.75px; font-family:Arial;" text-anchor="middle"><textPath startOffset="22.20632615414155" xlink:href="#id84">December</textPath></text></svg>